G75*
%MOIN*%
%OFA0B0*%
%FSLAX25Y25*%
%IPPOS*%
%LPD*%
%AMOC8*
5,1,8,0,0,1.08239X$1,22.5*
%
%ADD10C,0.13800*%
%ADD11R,0.03300X0.05800*%
%ADD12C,0.08200*%
D10*
X0044000Y0139500D03*
X0124000Y0139500D03*
X0146000Y0139500D03*
X0226000Y0139500D03*
X0248000Y0139500D03*
X0328000Y0139500D03*
X0328000Y0241500D03*
X0248000Y0241500D03*
X0226000Y0241500D03*
X0146000Y0241500D03*
X0124000Y0241500D03*
X0044000Y0241500D03*
X0044000Y0343500D03*
X0124000Y0343500D03*
X0146000Y0343500D03*
X0226000Y0343500D03*
X0248000Y0343500D03*
X0328000Y0343500D03*
D11*
X0289772Y0283500D03*
X0286228Y0283500D03*
X0187772Y0283500D03*
X0184228Y0283500D03*
X0085772Y0283500D03*
X0082228Y0283500D03*
X0082228Y0181500D03*
X0085772Y0181500D03*
X0184228Y0181500D03*
X0187772Y0181500D03*
X0286228Y0181500D03*
X0289772Y0181500D03*
X0289772Y0079500D03*
X0286228Y0079500D03*
X0187772Y0079500D03*
X0184228Y0079500D03*
X0085772Y0079500D03*
X0082228Y0079500D03*
D12*
X0069000Y0054500D03*
X0079000Y0054500D03*
X0089000Y0054500D03*
X0099000Y0054500D03*
X0171000Y0054500D03*
X0181000Y0054500D03*
X0191000Y0054500D03*
X0201000Y0054500D03*
X0273000Y0054500D03*
X0283000Y0054500D03*
X0293000Y0054500D03*
X0303000Y0054500D03*
X0303000Y0156500D03*
X0293000Y0156500D03*
X0283000Y0156500D03*
X0273000Y0156500D03*
X0201000Y0156500D03*
X0191000Y0156500D03*
X0181000Y0156500D03*
X0171000Y0156500D03*
X0099000Y0156500D03*
X0089000Y0156500D03*
X0079000Y0156500D03*
X0069000Y0156500D03*
X0069000Y0258500D03*
X0079000Y0258500D03*
X0089000Y0258500D03*
X0099000Y0258500D03*
X0171000Y0258500D03*
X0181000Y0258500D03*
X0191000Y0258500D03*
X0201000Y0258500D03*
X0273000Y0258500D03*
X0283000Y0258500D03*
X0293000Y0258500D03*
X0303000Y0258500D03*
M02*
