%
M48
M72
T01C0.0150
T02C0.0400
T03C0.1300
%
T01
X6400Y8450
X5900Y8950
X7400Y8450
X8094Y9830
X8094Y10280
X8694Y10280
X8694Y9830
X9900Y8978
X10400Y8450
X10900Y9450
X9400Y7950
X9400Y7450
X5900Y10450
X9400Y17650
X9400Y18150
X10400Y18650
X9900Y19178
X10900Y19650
X8694Y20030
X8694Y20480
X8094Y20480
X8094Y20030
X7400Y18650
X6400Y18650
X5900Y19150
X5900Y20650
X9400Y27850
X9400Y28350
X10400Y28850
X9900Y29378
X10900Y29850
X8694Y30230
X8694Y30680
X8094Y30680
X8094Y30230
X7400Y28850
X6400Y28850
X5900Y29350
X5900Y30850
X16100Y30850
X16100Y29350
X16600Y28850
X17600Y28850
X18294Y30230
X18294Y30680
X18894Y30680
X18894Y30230
X20100Y29378
X20600Y28850
X19600Y28350
X19600Y27850
X21100Y29850
X26300Y29350
X26800Y28850
X27800Y28850
X28494Y30230
X28494Y30680
X29094Y30680
X29094Y30230
X30300Y29378
X30800Y28850
X31300Y29850
X29800Y28350
X29800Y27850
X26300Y30850
X26300Y20650
X26300Y19150
X26800Y18650
X27800Y18650
X28494Y20030
X28494Y20480
X29094Y20480
X29094Y20030
X30300Y19178
X30800Y18650
X31300Y19650
X29800Y18150
X29800Y17650
X29094Y10280
X29094Y9830
X28494Y9830
X28494Y10280
X27800Y8450
X26800Y8450
X26300Y8950
X26300Y10450
X29800Y7950
X29800Y7450
X30800Y8450
X30300Y8978
X31300Y9450
X21100Y9450
X20100Y8978
X20600Y8450
X19600Y7950
X19600Y7450
X17600Y8450
X16600Y8450
X16100Y8950
X16100Y10450
X18294Y10280
X18294Y9830
X18894Y9830
X18894Y10280
X19600Y17650
X19600Y18150
X20600Y18650
X20100Y19178
X21100Y19650
X18894Y20030
X18894Y20480
X18294Y20480
X18294Y20030
X17600Y18650
X16600Y18650
X16100Y19150
X16100Y20650
T02
X6900Y5450
X7900Y5450
X8900Y5450
X9900Y5450
X17100Y5450
X18100Y5450
X19100Y5450
X20100Y5450
X27300Y5450
X28300Y5450
X29300Y5450
X30300Y5450
X30300Y15650
X29300Y15650
X28300Y15650
X27300Y15650
X20100Y15650
X19100Y15650
X18100Y15650
X17100Y15650
X9900Y15650
X8900Y15650
X7900Y15650
X6900Y15650
X6900Y25850
X7900Y25850
X8900Y25850
X9900Y25850
X17100Y25850
X18100Y25850
X19100Y25850
X20100Y25850
X27300Y25850
X28300Y25850
X29300Y25850
X30300Y25850
T03
X32800Y24150
X24800Y24150
X22600Y24150
X14600Y24150
X12400Y24150
X4400Y24150
X4400Y13950
X12400Y13950
X14600Y13950
X22600Y13950
X24800Y13950
X32800Y13950
X32800Y34350
X24800Y34350
X22600Y34350
X14600Y34350
X12400Y34350
X4400Y34350
M30
