G75*
%MOIN*%
%OFA0B0*%
%FSLAX25Y25*%
%IPPOS*%
%LPD*%
%AMOC8*
5,1,8,0,0,1.08239X$1,22.5*
%
%ADD10C,0.00800*%
%ADD11C,0.01000*%
%ADD12C,0.01100*%
%ADD13C,0.00000*%
D10*
X0034000Y0049500D02*
X0134000Y0049500D01*
X0134000Y0149500D01*
X0034000Y0149500D01*
X0034000Y0049500D01*
X0136000Y0049500D02*
X0236000Y0049500D01*
X0236000Y0149500D01*
X0136000Y0149500D01*
X0136000Y0049500D01*
X0238000Y0049500D02*
X0338000Y0049500D01*
X0338000Y0149500D01*
X0238000Y0149500D01*
X0238000Y0049500D01*
X0238000Y0151500D02*
X0338000Y0151500D01*
X0338000Y0251500D01*
X0238000Y0251500D01*
X0238000Y0151500D01*
X0236000Y0151500D02*
X0136000Y0151500D01*
X0136000Y0251500D01*
X0236000Y0251500D01*
X0236000Y0151500D01*
X0134000Y0151500D02*
X0034000Y0151500D01*
X0034000Y0251500D01*
X0134000Y0251500D01*
X0134000Y0151500D01*
X0134000Y0253500D02*
X0034000Y0253500D01*
X0034000Y0353500D01*
X0134000Y0353500D01*
X0134000Y0253500D01*
X0136000Y0253500D02*
X0236000Y0253500D01*
X0236000Y0353500D01*
X0136000Y0353500D01*
X0136000Y0253500D01*
X0238000Y0253500D02*
X0338000Y0253500D01*
X0338000Y0353500D01*
X0238000Y0353500D01*
X0238000Y0253500D01*
D11*
X0237000Y0361500D02*
X0237000Y0001500D01*
X0135000Y0002500D02*
X0135000Y0362500D01*
X0001500Y0252500D02*
X0361500Y0252500D01*
X0366500Y0150500D02*
X0006500Y0150500D01*
D12*
X0121518Y0365050D02*
X0123487Y0368987D01*
X0125995Y0368003D02*
X0126980Y0367018D01*
X0128948Y0367018D01*
X0129932Y0366034D01*
X0128948Y0365050D01*
X0125995Y0365050D01*
X0125995Y0368003D02*
X0126980Y0368987D01*
X0129932Y0368987D01*
X0132441Y0368003D02*
X0132441Y0366034D01*
X0133425Y0365050D01*
X0136378Y0365050D01*
X0138886Y0366034D02*
X0138886Y0368003D01*
X0139871Y0368987D01*
X0141839Y0368987D01*
X0142823Y0368003D01*
X0142823Y0366034D01*
X0141839Y0365050D01*
X0139871Y0365050D01*
X0138886Y0366034D01*
X0136378Y0368987D02*
X0133425Y0368987D01*
X0132441Y0368003D01*
X0121518Y0365050D02*
X0119550Y0368987D01*
X0145332Y0368987D02*
X0145332Y0365050D01*
X0145332Y0367018D02*
X0147300Y0368987D01*
X0148285Y0368987D01*
X0150703Y0368003D02*
X0150703Y0366034D01*
X0151687Y0365050D01*
X0153656Y0365050D01*
X0154640Y0367018D02*
X0150703Y0367018D01*
X0150703Y0368003D02*
X0151687Y0368987D01*
X0153656Y0368987D01*
X0154640Y0368003D01*
X0154640Y0367018D01*
X0214550Y0368987D02*
X0216518Y0365050D01*
X0218487Y0368987D01*
X0220995Y0368003D02*
X0221980Y0367018D01*
X0223948Y0367018D01*
X0224932Y0366034D01*
X0223948Y0365050D01*
X0220995Y0365050D01*
X0220995Y0368003D02*
X0221980Y0368987D01*
X0224932Y0368987D01*
X0227441Y0368003D02*
X0227441Y0366034D01*
X0228425Y0365050D01*
X0231378Y0365050D01*
X0233886Y0366034D02*
X0233886Y0368003D01*
X0234871Y0368987D01*
X0236839Y0368987D01*
X0237823Y0368003D01*
X0237823Y0366034D01*
X0236839Y0365050D01*
X0234871Y0365050D01*
X0233886Y0366034D01*
X0231378Y0368987D02*
X0228425Y0368987D01*
X0227441Y0368003D01*
X0240332Y0368987D02*
X0240332Y0365050D01*
X0240332Y0367018D02*
X0242300Y0368987D01*
X0243285Y0368987D01*
X0245703Y0368003D02*
X0245703Y0366034D01*
X0246687Y0365050D01*
X0248656Y0365050D01*
X0249640Y0367018D02*
X0245703Y0367018D01*
X0245703Y0368003D02*
X0246687Y0368987D01*
X0248656Y0368987D01*
X0249640Y0368003D01*
X0249640Y0367018D01*
X0374550Y0258987D02*
X0376518Y0255050D01*
X0378487Y0258987D01*
X0380995Y0258003D02*
X0381980Y0258987D01*
X0384932Y0258987D01*
X0383948Y0257018D02*
X0381980Y0257018D01*
X0380995Y0258003D01*
X0380995Y0255050D02*
X0383948Y0255050D01*
X0384932Y0256034D01*
X0383948Y0257018D01*
X0387441Y0256034D02*
X0388425Y0255050D01*
X0391378Y0255050D01*
X0393886Y0256034D02*
X0394871Y0255050D01*
X0396839Y0255050D01*
X0397823Y0256034D01*
X0397823Y0258003D01*
X0396839Y0258987D01*
X0394871Y0258987D01*
X0393886Y0258003D01*
X0393886Y0256034D01*
X0391378Y0258987D02*
X0388425Y0258987D01*
X0387441Y0258003D01*
X0387441Y0256034D01*
X0400332Y0255050D02*
X0400332Y0258987D01*
X0402300Y0258987D02*
X0403285Y0258987D01*
X0402300Y0258987D02*
X0400332Y0257018D01*
X0405703Y0257018D02*
X0409640Y0257018D01*
X0409640Y0258003D01*
X0408656Y0258987D01*
X0406687Y0258987D01*
X0405703Y0258003D01*
X0405703Y0256034D01*
X0406687Y0255050D01*
X0408656Y0255050D01*
X0403656Y0153987D02*
X0401687Y0153987D01*
X0400703Y0153003D01*
X0400703Y0151034D01*
X0401687Y0150050D01*
X0403656Y0150050D01*
X0404640Y0152018D02*
X0400703Y0152018D01*
X0398285Y0153987D02*
X0397300Y0153987D01*
X0395332Y0152018D01*
X0395332Y0150050D02*
X0395332Y0153987D01*
X0392823Y0153003D02*
X0391839Y0153987D01*
X0389871Y0153987D01*
X0388886Y0153003D01*
X0388886Y0151034D01*
X0389871Y0150050D01*
X0391839Y0150050D01*
X0392823Y0151034D01*
X0392823Y0153003D01*
X0386378Y0153987D02*
X0383425Y0153987D01*
X0382441Y0153003D01*
X0382441Y0151034D01*
X0383425Y0150050D01*
X0386378Y0150050D01*
X0379932Y0151034D02*
X0378948Y0152018D01*
X0376980Y0152018D01*
X0375995Y0153003D01*
X0376980Y0153987D01*
X0379932Y0153987D01*
X0379932Y0151034D02*
X0378948Y0150050D01*
X0375995Y0150050D01*
X0371518Y0150050D02*
X0369550Y0153987D01*
X0373487Y0153987D02*
X0371518Y0150050D01*
X0403656Y0153987D02*
X0404640Y0153003D01*
X0404640Y0152018D01*
D13*
X0321500Y0139500D02*
X0321502Y0139661D01*
X0321508Y0139821D01*
X0321518Y0139982D01*
X0321532Y0140142D01*
X0321550Y0140302D01*
X0321571Y0140461D01*
X0321597Y0140620D01*
X0321627Y0140778D01*
X0321660Y0140935D01*
X0321698Y0141092D01*
X0321739Y0141247D01*
X0321784Y0141401D01*
X0321833Y0141554D01*
X0321886Y0141706D01*
X0321942Y0141857D01*
X0322003Y0142006D01*
X0322066Y0142154D01*
X0322134Y0142300D01*
X0322205Y0142444D01*
X0322279Y0142586D01*
X0322357Y0142727D01*
X0322439Y0142865D01*
X0322524Y0143002D01*
X0322612Y0143136D01*
X0322704Y0143268D01*
X0322799Y0143398D01*
X0322897Y0143526D01*
X0322998Y0143651D01*
X0323102Y0143773D01*
X0323209Y0143893D01*
X0323319Y0144010D01*
X0323432Y0144125D01*
X0323548Y0144236D01*
X0323667Y0144345D01*
X0323788Y0144450D01*
X0323912Y0144553D01*
X0324038Y0144653D01*
X0324166Y0144749D01*
X0324297Y0144842D01*
X0324431Y0144932D01*
X0324566Y0145019D01*
X0324704Y0145102D01*
X0324843Y0145182D01*
X0324985Y0145258D01*
X0325128Y0145331D01*
X0325273Y0145400D01*
X0325420Y0145466D01*
X0325568Y0145528D01*
X0325718Y0145586D01*
X0325869Y0145641D01*
X0326022Y0145692D01*
X0326176Y0145739D01*
X0326331Y0145782D01*
X0326487Y0145821D01*
X0326643Y0145857D01*
X0326801Y0145888D01*
X0326959Y0145916D01*
X0327118Y0145940D01*
X0327278Y0145960D01*
X0327438Y0145976D01*
X0327598Y0145988D01*
X0327759Y0145996D01*
X0327920Y0146000D01*
X0328080Y0146000D01*
X0328241Y0145996D01*
X0328402Y0145988D01*
X0328562Y0145976D01*
X0328722Y0145960D01*
X0328882Y0145940D01*
X0329041Y0145916D01*
X0329199Y0145888D01*
X0329357Y0145857D01*
X0329513Y0145821D01*
X0329669Y0145782D01*
X0329824Y0145739D01*
X0329978Y0145692D01*
X0330131Y0145641D01*
X0330282Y0145586D01*
X0330432Y0145528D01*
X0330580Y0145466D01*
X0330727Y0145400D01*
X0330872Y0145331D01*
X0331015Y0145258D01*
X0331157Y0145182D01*
X0331296Y0145102D01*
X0331434Y0145019D01*
X0331569Y0144932D01*
X0331703Y0144842D01*
X0331834Y0144749D01*
X0331962Y0144653D01*
X0332088Y0144553D01*
X0332212Y0144450D01*
X0332333Y0144345D01*
X0332452Y0144236D01*
X0332568Y0144125D01*
X0332681Y0144010D01*
X0332791Y0143893D01*
X0332898Y0143773D01*
X0333002Y0143651D01*
X0333103Y0143526D01*
X0333201Y0143398D01*
X0333296Y0143268D01*
X0333388Y0143136D01*
X0333476Y0143002D01*
X0333561Y0142865D01*
X0333643Y0142727D01*
X0333721Y0142586D01*
X0333795Y0142444D01*
X0333866Y0142300D01*
X0333934Y0142154D01*
X0333997Y0142006D01*
X0334058Y0141857D01*
X0334114Y0141706D01*
X0334167Y0141554D01*
X0334216Y0141401D01*
X0334261Y0141247D01*
X0334302Y0141092D01*
X0334340Y0140935D01*
X0334373Y0140778D01*
X0334403Y0140620D01*
X0334429Y0140461D01*
X0334450Y0140302D01*
X0334468Y0140142D01*
X0334482Y0139982D01*
X0334492Y0139821D01*
X0334498Y0139661D01*
X0334500Y0139500D01*
X0334498Y0139339D01*
X0334492Y0139179D01*
X0334482Y0139018D01*
X0334468Y0138858D01*
X0334450Y0138698D01*
X0334429Y0138539D01*
X0334403Y0138380D01*
X0334373Y0138222D01*
X0334340Y0138065D01*
X0334302Y0137908D01*
X0334261Y0137753D01*
X0334216Y0137599D01*
X0334167Y0137446D01*
X0334114Y0137294D01*
X0334058Y0137143D01*
X0333997Y0136994D01*
X0333934Y0136846D01*
X0333866Y0136700D01*
X0333795Y0136556D01*
X0333721Y0136414D01*
X0333643Y0136273D01*
X0333561Y0136135D01*
X0333476Y0135998D01*
X0333388Y0135864D01*
X0333296Y0135732D01*
X0333201Y0135602D01*
X0333103Y0135474D01*
X0333002Y0135349D01*
X0332898Y0135227D01*
X0332791Y0135107D01*
X0332681Y0134990D01*
X0332568Y0134875D01*
X0332452Y0134764D01*
X0332333Y0134655D01*
X0332212Y0134550D01*
X0332088Y0134447D01*
X0331962Y0134347D01*
X0331834Y0134251D01*
X0331703Y0134158D01*
X0331569Y0134068D01*
X0331434Y0133981D01*
X0331296Y0133898D01*
X0331157Y0133818D01*
X0331015Y0133742D01*
X0330872Y0133669D01*
X0330727Y0133600D01*
X0330580Y0133534D01*
X0330432Y0133472D01*
X0330282Y0133414D01*
X0330131Y0133359D01*
X0329978Y0133308D01*
X0329824Y0133261D01*
X0329669Y0133218D01*
X0329513Y0133179D01*
X0329357Y0133143D01*
X0329199Y0133112D01*
X0329041Y0133084D01*
X0328882Y0133060D01*
X0328722Y0133040D01*
X0328562Y0133024D01*
X0328402Y0133012D01*
X0328241Y0133004D01*
X0328080Y0133000D01*
X0327920Y0133000D01*
X0327759Y0133004D01*
X0327598Y0133012D01*
X0327438Y0133024D01*
X0327278Y0133040D01*
X0327118Y0133060D01*
X0326959Y0133084D01*
X0326801Y0133112D01*
X0326643Y0133143D01*
X0326487Y0133179D01*
X0326331Y0133218D01*
X0326176Y0133261D01*
X0326022Y0133308D01*
X0325869Y0133359D01*
X0325718Y0133414D01*
X0325568Y0133472D01*
X0325420Y0133534D01*
X0325273Y0133600D01*
X0325128Y0133669D01*
X0324985Y0133742D01*
X0324843Y0133818D01*
X0324704Y0133898D01*
X0324566Y0133981D01*
X0324431Y0134068D01*
X0324297Y0134158D01*
X0324166Y0134251D01*
X0324038Y0134347D01*
X0323912Y0134447D01*
X0323788Y0134550D01*
X0323667Y0134655D01*
X0323548Y0134764D01*
X0323432Y0134875D01*
X0323319Y0134990D01*
X0323209Y0135107D01*
X0323102Y0135227D01*
X0322998Y0135349D01*
X0322897Y0135474D01*
X0322799Y0135602D01*
X0322704Y0135732D01*
X0322612Y0135864D01*
X0322524Y0135998D01*
X0322439Y0136135D01*
X0322357Y0136273D01*
X0322279Y0136414D01*
X0322205Y0136556D01*
X0322134Y0136700D01*
X0322066Y0136846D01*
X0322003Y0136994D01*
X0321942Y0137143D01*
X0321886Y0137294D01*
X0321833Y0137446D01*
X0321784Y0137599D01*
X0321739Y0137753D01*
X0321698Y0137908D01*
X0321660Y0138065D01*
X0321627Y0138222D01*
X0321597Y0138380D01*
X0321571Y0138539D01*
X0321550Y0138698D01*
X0321532Y0138858D01*
X0321518Y0139018D01*
X0321508Y0139179D01*
X0321502Y0139339D01*
X0321500Y0139500D01*
X0241500Y0139500D02*
X0241502Y0139661D01*
X0241508Y0139821D01*
X0241518Y0139982D01*
X0241532Y0140142D01*
X0241550Y0140302D01*
X0241571Y0140461D01*
X0241597Y0140620D01*
X0241627Y0140778D01*
X0241660Y0140935D01*
X0241698Y0141092D01*
X0241739Y0141247D01*
X0241784Y0141401D01*
X0241833Y0141554D01*
X0241886Y0141706D01*
X0241942Y0141857D01*
X0242003Y0142006D01*
X0242066Y0142154D01*
X0242134Y0142300D01*
X0242205Y0142444D01*
X0242279Y0142586D01*
X0242357Y0142727D01*
X0242439Y0142865D01*
X0242524Y0143002D01*
X0242612Y0143136D01*
X0242704Y0143268D01*
X0242799Y0143398D01*
X0242897Y0143526D01*
X0242998Y0143651D01*
X0243102Y0143773D01*
X0243209Y0143893D01*
X0243319Y0144010D01*
X0243432Y0144125D01*
X0243548Y0144236D01*
X0243667Y0144345D01*
X0243788Y0144450D01*
X0243912Y0144553D01*
X0244038Y0144653D01*
X0244166Y0144749D01*
X0244297Y0144842D01*
X0244431Y0144932D01*
X0244566Y0145019D01*
X0244704Y0145102D01*
X0244843Y0145182D01*
X0244985Y0145258D01*
X0245128Y0145331D01*
X0245273Y0145400D01*
X0245420Y0145466D01*
X0245568Y0145528D01*
X0245718Y0145586D01*
X0245869Y0145641D01*
X0246022Y0145692D01*
X0246176Y0145739D01*
X0246331Y0145782D01*
X0246487Y0145821D01*
X0246643Y0145857D01*
X0246801Y0145888D01*
X0246959Y0145916D01*
X0247118Y0145940D01*
X0247278Y0145960D01*
X0247438Y0145976D01*
X0247598Y0145988D01*
X0247759Y0145996D01*
X0247920Y0146000D01*
X0248080Y0146000D01*
X0248241Y0145996D01*
X0248402Y0145988D01*
X0248562Y0145976D01*
X0248722Y0145960D01*
X0248882Y0145940D01*
X0249041Y0145916D01*
X0249199Y0145888D01*
X0249357Y0145857D01*
X0249513Y0145821D01*
X0249669Y0145782D01*
X0249824Y0145739D01*
X0249978Y0145692D01*
X0250131Y0145641D01*
X0250282Y0145586D01*
X0250432Y0145528D01*
X0250580Y0145466D01*
X0250727Y0145400D01*
X0250872Y0145331D01*
X0251015Y0145258D01*
X0251157Y0145182D01*
X0251296Y0145102D01*
X0251434Y0145019D01*
X0251569Y0144932D01*
X0251703Y0144842D01*
X0251834Y0144749D01*
X0251962Y0144653D01*
X0252088Y0144553D01*
X0252212Y0144450D01*
X0252333Y0144345D01*
X0252452Y0144236D01*
X0252568Y0144125D01*
X0252681Y0144010D01*
X0252791Y0143893D01*
X0252898Y0143773D01*
X0253002Y0143651D01*
X0253103Y0143526D01*
X0253201Y0143398D01*
X0253296Y0143268D01*
X0253388Y0143136D01*
X0253476Y0143002D01*
X0253561Y0142865D01*
X0253643Y0142727D01*
X0253721Y0142586D01*
X0253795Y0142444D01*
X0253866Y0142300D01*
X0253934Y0142154D01*
X0253997Y0142006D01*
X0254058Y0141857D01*
X0254114Y0141706D01*
X0254167Y0141554D01*
X0254216Y0141401D01*
X0254261Y0141247D01*
X0254302Y0141092D01*
X0254340Y0140935D01*
X0254373Y0140778D01*
X0254403Y0140620D01*
X0254429Y0140461D01*
X0254450Y0140302D01*
X0254468Y0140142D01*
X0254482Y0139982D01*
X0254492Y0139821D01*
X0254498Y0139661D01*
X0254500Y0139500D01*
X0254498Y0139339D01*
X0254492Y0139179D01*
X0254482Y0139018D01*
X0254468Y0138858D01*
X0254450Y0138698D01*
X0254429Y0138539D01*
X0254403Y0138380D01*
X0254373Y0138222D01*
X0254340Y0138065D01*
X0254302Y0137908D01*
X0254261Y0137753D01*
X0254216Y0137599D01*
X0254167Y0137446D01*
X0254114Y0137294D01*
X0254058Y0137143D01*
X0253997Y0136994D01*
X0253934Y0136846D01*
X0253866Y0136700D01*
X0253795Y0136556D01*
X0253721Y0136414D01*
X0253643Y0136273D01*
X0253561Y0136135D01*
X0253476Y0135998D01*
X0253388Y0135864D01*
X0253296Y0135732D01*
X0253201Y0135602D01*
X0253103Y0135474D01*
X0253002Y0135349D01*
X0252898Y0135227D01*
X0252791Y0135107D01*
X0252681Y0134990D01*
X0252568Y0134875D01*
X0252452Y0134764D01*
X0252333Y0134655D01*
X0252212Y0134550D01*
X0252088Y0134447D01*
X0251962Y0134347D01*
X0251834Y0134251D01*
X0251703Y0134158D01*
X0251569Y0134068D01*
X0251434Y0133981D01*
X0251296Y0133898D01*
X0251157Y0133818D01*
X0251015Y0133742D01*
X0250872Y0133669D01*
X0250727Y0133600D01*
X0250580Y0133534D01*
X0250432Y0133472D01*
X0250282Y0133414D01*
X0250131Y0133359D01*
X0249978Y0133308D01*
X0249824Y0133261D01*
X0249669Y0133218D01*
X0249513Y0133179D01*
X0249357Y0133143D01*
X0249199Y0133112D01*
X0249041Y0133084D01*
X0248882Y0133060D01*
X0248722Y0133040D01*
X0248562Y0133024D01*
X0248402Y0133012D01*
X0248241Y0133004D01*
X0248080Y0133000D01*
X0247920Y0133000D01*
X0247759Y0133004D01*
X0247598Y0133012D01*
X0247438Y0133024D01*
X0247278Y0133040D01*
X0247118Y0133060D01*
X0246959Y0133084D01*
X0246801Y0133112D01*
X0246643Y0133143D01*
X0246487Y0133179D01*
X0246331Y0133218D01*
X0246176Y0133261D01*
X0246022Y0133308D01*
X0245869Y0133359D01*
X0245718Y0133414D01*
X0245568Y0133472D01*
X0245420Y0133534D01*
X0245273Y0133600D01*
X0245128Y0133669D01*
X0244985Y0133742D01*
X0244843Y0133818D01*
X0244704Y0133898D01*
X0244566Y0133981D01*
X0244431Y0134068D01*
X0244297Y0134158D01*
X0244166Y0134251D01*
X0244038Y0134347D01*
X0243912Y0134447D01*
X0243788Y0134550D01*
X0243667Y0134655D01*
X0243548Y0134764D01*
X0243432Y0134875D01*
X0243319Y0134990D01*
X0243209Y0135107D01*
X0243102Y0135227D01*
X0242998Y0135349D01*
X0242897Y0135474D01*
X0242799Y0135602D01*
X0242704Y0135732D01*
X0242612Y0135864D01*
X0242524Y0135998D01*
X0242439Y0136135D01*
X0242357Y0136273D01*
X0242279Y0136414D01*
X0242205Y0136556D01*
X0242134Y0136700D01*
X0242066Y0136846D01*
X0242003Y0136994D01*
X0241942Y0137143D01*
X0241886Y0137294D01*
X0241833Y0137446D01*
X0241784Y0137599D01*
X0241739Y0137753D01*
X0241698Y0137908D01*
X0241660Y0138065D01*
X0241627Y0138222D01*
X0241597Y0138380D01*
X0241571Y0138539D01*
X0241550Y0138698D01*
X0241532Y0138858D01*
X0241518Y0139018D01*
X0241508Y0139179D01*
X0241502Y0139339D01*
X0241500Y0139500D01*
X0219500Y0139500D02*
X0219502Y0139661D01*
X0219508Y0139821D01*
X0219518Y0139982D01*
X0219532Y0140142D01*
X0219550Y0140302D01*
X0219571Y0140461D01*
X0219597Y0140620D01*
X0219627Y0140778D01*
X0219660Y0140935D01*
X0219698Y0141092D01*
X0219739Y0141247D01*
X0219784Y0141401D01*
X0219833Y0141554D01*
X0219886Y0141706D01*
X0219942Y0141857D01*
X0220003Y0142006D01*
X0220066Y0142154D01*
X0220134Y0142300D01*
X0220205Y0142444D01*
X0220279Y0142586D01*
X0220357Y0142727D01*
X0220439Y0142865D01*
X0220524Y0143002D01*
X0220612Y0143136D01*
X0220704Y0143268D01*
X0220799Y0143398D01*
X0220897Y0143526D01*
X0220998Y0143651D01*
X0221102Y0143773D01*
X0221209Y0143893D01*
X0221319Y0144010D01*
X0221432Y0144125D01*
X0221548Y0144236D01*
X0221667Y0144345D01*
X0221788Y0144450D01*
X0221912Y0144553D01*
X0222038Y0144653D01*
X0222166Y0144749D01*
X0222297Y0144842D01*
X0222431Y0144932D01*
X0222566Y0145019D01*
X0222704Y0145102D01*
X0222843Y0145182D01*
X0222985Y0145258D01*
X0223128Y0145331D01*
X0223273Y0145400D01*
X0223420Y0145466D01*
X0223568Y0145528D01*
X0223718Y0145586D01*
X0223869Y0145641D01*
X0224022Y0145692D01*
X0224176Y0145739D01*
X0224331Y0145782D01*
X0224487Y0145821D01*
X0224643Y0145857D01*
X0224801Y0145888D01*
X0224959Y0145916D01*
X0225118Y0145940D01*
X0225278Y0145960D01*
X0225438Y0145976D01*
X0225598Y0145988D01*
X0225759Y0145996D01*
X0225920Y0146000D01*
X0226080Y0146000D01*
X0226241Y0145996D01*
X0226402Y0145988D01*
X0226562Y0145976D01*
X0226722Y0145960D01*
X0226882Y0145940D01*
X0227041Y0145916D01*
X0227199Y0145888D01*
X0227357Y0145857D01*
X0227513Y0145821D01*
X0227669Y0145782D01*
X0227824Y0145739D01*
X0227978Y0145692D01*
X0228131Y0145641D01*
X0228282Y0145586D01*
X0228432Y0145528D01*
X0228580Y0145466D01*
X0228727Y0145400D01*
X0228872Y0145331D01*
X0229015Y0145258D01*
X0229157Y0145182D01*
X0229296Y0145102D01*
X0229434Y0145019D01*
X0229569Y0144932D01*
X0229703Y0144842D01*
X0229834Y0144749D01*
X0229962Y0144653D01*
X0230088Y0144553D01*
X0230212Y0144450D01*
X0230333Y0144345D01*
X0230452Y0144236D01*
X0230568Y0144125D01*
X0230681Y0144010D01*
X0230791Y0143893D01*
X0230898Y0143773D01*
X0231002Y0143651D01*
X0231103Y0143526D01*
X0231201Y0143398D01*
X0231296Y0143268D01*
X0231388Y0143136D01*
X0231476Y0143002D01*
X0231561Y0142865D01*
X0231643Y0142727D01*
X0231721Y0142586D01*
X0231795Y0142444D01*
X0231866Y0142300D01*
X0231934Y0142154D01*
X0231997Y0142006D01*
X0232058Y0141857D01*
X0232114Y0141706D01*
X0232167Y0141554D01*
X0232216Y0141401D01*
X0232261Y0141247D01*
X0232302Y0141092D01*
X0232340Y0140935D01*
X0232373Y0140778D01*
X0232403Y0140620D01*
X0232429Y0140461D01*
X0232450Y0140302D01*
X0232468Y0140142D01*
X0232482Y0139982D01*
X0232492Y0139821D01*
X0232498Y0139661D01*
X0232500Y0139500D01*
X0232498Y0139339D01*
X0232492Y0139179D01*
X0232482Y0139018D01*
X0232468Y0138858D01*
X0232450Y0138698D01*
X0232429Y0138539D01*
X0232403Y0138380D01*
X0232373Y0138222D01*
X0232340Y0138065D01*
X0232302Y0137908D01*
X0232261Y0137753D01*
X0232216Y0137599D01*
X0232167Y0137446D01*
X0232114Y0137294D01*
X0232058Y0137143D01*
X0231997Y0136994D01*
X0231934Y0136846D01*
X0231866Y0136700D01*
X0231795Y0136556D01*
X0231721Y0136414D01*
X0231643Y0136273D01*
X0231561Y0136135D01*
X0231476Y0135998D01*
X0231388Y0135864D01*
X0231296Y0135732D01*
X0231201Y0135602D01*
X0231103Y0135474D01*
X0231002Y0135349D01*
X0230898Y0135227D01*
X0230791Y0135107D01*
X0230681Y0134990D01*
X0230568Y0134875D01*
X0230452Y0134764D01*
X0230333Y0134655D01*
X0230212Y0134550D01*
X0230088Y0134447D01*
X0229962Y0134347D01*
X0229834Y0134251D01*
X0229703Y0134158D01*
X0229569Y0134068D01*
X0229434Y0133981D01*
X0229296Y0133898D01*
X0229157Y0133818D01*
X0229015Y0133742D01*
X0228872Y0133669D01*
X0228727Y0133600D01*
X0228580Y0133534D01*
X0228432Y0133472D01*
X0228282Y0133414D01*
X0228131Y0133359D01*
X0227978Y0133308D01*
X0227824Y0133261D01*
X0227669Y0133218D01*
X0227513Y0133179D01*
X0227357Y0133143D01*
X0227199Y0133112D01*
X0227041Y0133084D01*
X0226882Y0133060D01*
X0226722Y0133040D01*
X0226562Y0133024D01*
X0226402Y0133012D01*
X0226241Y0133004D01*
X0226080Y0133000D01*
X0225920Y0133000D01*
X0225759Y0133004D01*
X0225598Y0133012D01*
X0225438Y0133024D01*
X0225278Y0133040D01*
X0225118Y0133060D01*
X0224959Y0133084D01*
X0224801Y0133112D01*
X0224643Y0133143D01*
X0224487Y0133179D01*
X0224331Y0133218D01*
X0224176Y0133261D01*
X0224022Y0133308D01*
X0223869Y0133359D01*
X0223718Y0133414D01*
X0223568Y0133472D01*
X0223420Y0133534D01*
X0223273Y0133600D01*
X0223128Y0133669D01*
X0222985Y0133742D01*
X0222843Y0133818D01*
X0222704Y0133898D01*
X0222566Y0133981D01*
X0222431Y0134068D01*
X0222297Y0134158D01*
X0222166Y0134251D01*
X0222038Y0134347D01*
X0221912Y0134447D01*
X0221788Y0134550D01*
X0221667Y0134655D01*
X0221548Y0134764D01*
X0221432Y0134875D01*
X0221319Y0134990D01*
X0221209Y0135107D01*
X0221102Y0135227D01*
X0220998Y0135349D01*
X0220897Y0135474D01*
X0220799Y0135602D01*
X0220704Y0135732D01*
X0220612Y0135864D01*
X0220524Y0135998D01*
X0220439Y0136135D01*
X0220357Y0136273D01*
X0220279Y0136414D01*
X0220205Y0136556D01*
X0220134Y0136700D01*
X0220066Y0136846D01*
X0220003Y0136994D01*
X0219942Y0137143D01*
X0219886Y0137294D01*
X0219833Y0137446D01*
X0219784Y0137599D01*
X0219739Y0137753D01*
X0219698Y0137908D01*
X0219660Y0138065D01*
X0219627Y0138222D01*
X0219597Y0138380D01*
X0219571Y0138539D01*
X0219550Y0138698D01*
X0219532Y0138858D01*
X0219518Y0139018D01*
X0219508Y0139179D01*
X0219502Y0139339D01*
X0219500Y0139500D01*
X0139500Y0139500D02*
X0139502Y0139661D01*
X0139508Y0139821D01*
X0139518Y0139982D01*
X0139532Y0140142D01*
X0139550Y0140302D01*
X0139571Y0140461D01*
X0139597Y0140620D01*
X0139627Y0140778D01*
X0139660Y0140935D01*
X0139698Y0141092D01*
X0139739Y0141247D01*
X0139784Y0141401D01*
X0139833Y0141554D01*
X0139886Y0141706D01*
X0139942Y0141857D01*
X0140003Y0142006D01*
X0140066Y0142154D01*
X0140134Y0142300D01*
X0140205Y0142444D01*
X0140279Y0142586D01*
X0140357Y0142727D01*
X0140439Y0142865D01*
X0140524Y0143002D01*
X0140612Y0143136D01*
X0140704Y0143268D01*
X0140799Y0143398D01*
X0140897Y0143526D01*
X0140998Y0143651D01*
X0141102Y0143773D01*
X0141209Y0143893D01*
X0141319Y0144010D01*
X0141432Y0144125D01*
X0141548Y0144236D01*
X0141667Y0144345D01*
X0141788Y0144450D01*
X0141912Y0144553D01*
X0142038Y0144653D01*
X0142166Y0144749D01*
X0142297Y0144842D01*
X0142431Y0144932D01*
X0142566Y0145019D01*
X0142704Y0145102D01*
X0142843Y0145182D01*
X0142985Y0145258D01*
X0143128Y0145331D01*
X0143273Y0145400D01*
X0143420Y0145466D01*
X0143568Y0145528D01*
X0143718Y0145586D01*
X0143869Y0145641D01*
X0144022Y0145692D01*
X0144176Y0145739D01*
X0144331Y0145782D01*
X0144487Y0145821D01*
X0144643Y0145857D01*
X0144801Y0145888D01*
X0144959Y0145916D01*
X0145118Y0145940D01*
X0145278Y0145960D01*
X0145438Y0145976D01*
X0145598Y0145988D01*
X0145759Y0145996D01*
X0145920Y0146000D01*
X0146080Y0146000D01*
X0146241Y0145996D01*
X0146402Y0145988D01*
X0146562Y0145976D01*
X0146722Y0145960D01*
X0146882Y0145940D01*
X0147041Y0145916D01*
X0147199Y0145888D01*
X0147357Y0145857D01*
X0147513Y0145821D01*
X0147669Y0145782D01*
X0147824Y0145739D01*
X0147978Y0145692D01*
X0148131Y0145641D01*
X0148282Y0145586D01*
X0148432Y0145528D01*
X0148580Y0145466D01*
X0148727Y0145400D01*
X0148872Y0145331D01*
X0149015Y0145258D01*
X0149157Y0145182D01*
X0149296Y0145102D01*
X0149434Y0145019D01*
X0149569Y0144932D01*
X0149703Y0144842D01*
X0149834Y0144749D01*
X0149962Y0144653D01*
X0150088Y0144553D01*
X0150212Y0144450D01*
X0150333Y0144345D01*
X0150452Y0144236D01*
X0150568Y0144125D01*
X0150681Y0144010D01*
X0150791Y0143893D01*
X0150898Y0143773D01*
X0151002Y0143651D01*
X0151103Y0143526D01*
X0151201Y0143398D01*
X0151296Y0143268D01*
X0151388Y0143136D01*
X0151476Y0143002D01*
X0151561Y0142865D01*
X0151643Y0142727D01*
X0151721Y0142586D01*
X0151795Y0142444D01*
X0151866Y0142300D01*
X0151934Y0142154D01*
X0151997Y0142006D01*
X0152058Y0141857D01*
X0152114Y0141706D01*
X0152167Y0141554D01*
X0152216Y0141401D01*
X0152261Y0141247D01*
X0152302Y0141092D01*
X0152340Y0140935D01*
X0152373Y0140778D01*
X0152403Y0140620D01*
X0152429Y0140461D01*
X0152450Y0140302D01*
X0152468Y0140142D01*
X0152482Y0139982D01*
X0152492Y0139821D01*
X0152498Y0139661D01*
X0152500Y0139500D01*
X0152498Y0139339D01*
X0152492Y0139179D01*
X0152482Y0139018D01*
X0152468Y0138858D01*
X0152450Y0138698D01*
X0152429Y0138539D01*
X0152403Y0138380D01*
X0152373Y0138222D01*
X0152340Y0138065D01*
X0152302Y0137908D01*
X0152261Y0137753D01*
X0152216Y0137599D01*
X0152167Y0137446D01*
X0152114Y0137294D01*
X0152058Y0137143D01*
X0151997Y0136994D01*
X0151934Y0136846D01*
X0151866Y0136700D01*
X0151795Y0136556D01*
X0151721Y0136414D01*
X0151643Y0136273D01*
X0151561Y0136135D01*
X0151476Y0135998D01*
X0151388Y0135864D01*
X0151296Y0135732D01*
X0151201Y0135602D01*
X0151103Y0135474D01*
X0151002Y0135349D01*
X0150898Y0135227D01*
X0150791Y0135107D01*
X0150681Y0134990D01*
X0150568Y0134875D01*
X0150452Y0134764D01*
X0150333Y0134655D01*
X0150212Y0134550D01*
X0150088Y0134447D01*
X0149962Y0134347D01*
X0149834Y0134251D01*
X0149703Y0134158D01*
X0149569Y0134068D01*
X0149434Y0133981D01*
X0149296Y0133898D01*
X0149157Y0133818D01*
X0149015Y0133742D01*
X0148872Y0133669D01*
X0148727Y0133600D01*
X0148580Y0133534D01*
X0148432Y0133472D01*
X0148282Y0133414D01*
X0148131Y0133359D01*
X0147978Y0133308D01*
X0147824Y0133261D01*
X0147669Y0133218D01*
X0147513Y0133179D01*
X0147357Y0133143D01*
X0147199Y0133112D01*
X0147041Y0133084D01*
X0146882Y0133060D01*
X0146722Y0133040D01*
X0146562Y0133024D01*
X0146402Y0133012D01*
X0146241Y0133004D01*
X0146080Y0133000D01*
X0145920Y0133000D01*
X0145759Y0133004D01*
X0145598Y0133012D01*
X0145438Y0133024D01*
X0145278Y0133040D01*
X0145118Y0133060D01*
X0144959Y0133084D01*
X0144801Y0133112D01*
X0144643Y0133143D01*
X0144487Y0133179D01*
X0144331Y0133218D01*
X0144176Y0133261D01*
X0144022Y0133308D01*
X0143869Y0133359D01*
X0143718Y0133414D01*
X0143568Y0133472D01*
X0143420Y0133534D01*
X0143273Y0133600D01*
X0143128Y0133669D01*
X0142985Y0133742D01*
X0142843Y0133818D01*
X0142704Y0133898D01*
X0142566Y0133981D01*
X0142431Y0134068D01*
X0142297Y0134158D01*
X0142166Y0134251D01*
X0142038Y0134347D01*
X0141912Y0134447D01*
X0141788Y0134550D01*
X0141667Y0134655D01*
X0141548Y0134764D01*
X0141432Y0134875D01*
X0141319Y0134990D01*
X0141209Y0135107D01*
X0141102Y0135227D01*
X0140998Y0135349D01*
X0140897Y0135474D01*
X0140799Y0135602D01*
X0140704Y0135732D01*
X0140612Y0135864D01*
X0140524Y0135998D01*
X0140439Y0136135D01*
X0140357Y0136273D01*
X0140279Y0136414D01*
X0140205Y0136556D01*
X0140134Y0136700D01*
X0140066Y0136846D01*
X0140003Y0136994D01*
X0139942Y0137143D01*
X0139886Y0137294D01*
X0139833Y0137446D01*
X0139784Y0137599D01*
X0139739Y0137753D01*
X0139698Y0137908D01*
X0139660Y0138065D01*
X0139627Y0138222D01*
X0139597Y0138380D01*
X0139571Y0138539D01*
X0139550Y0138698D01*
X0139532Y0138858D01*
X0139518Y0139018D01*
X0139508Y0139179D01*
X0139502Y0139339D01*
X0139500Y0139500D01*
X0117500Y0139500D02*
X0117502Y0139661D01*
X0117508Y0139821D01*
X0117518Y0139982D01*
X0117532Y0140142D01*
X0117550Y0140302D01*
X0117571Y0140461D01*
X0117597Y0140620D01*
X0117627Y0140778D01*
X0117660Y0140935D01*
X0117698Y0141092D01*
X0117739Y0141247D01*
X0117784Y0141401D01*
X0117833Y0141554D01*
X0117886Y0141706D01*
X0117942Y0141857D01*
X0118003Y0142006D01*
X0118066Y0142154D01*
X0118134Y0142300D01*
X0118205Y0142444D01*
X0118279Y0142586D01*
X0118357Y0142727D01*
X0118439Y0142865D01*
X0118524Y0143002D01*
X0118612Y0143136D01*
X0118704Y0143268D01*
X0118799Y0143398D01*
X0118897Y0143526D01*
X0118998Y0143651D01*
X0119102Y0143773D01*
X0119209Y0143893D01*
X0119319Y0144010D01*
X0119432Y0144125D01*
X0119548Y0144236D01*
X0119667Y0144345D01*
X0119788Y0144450D01*
X0119912Y0144553D01*
X0120038Y0144653D01*
X0120166Y0144749D01*
X0120297Y0144842D01*
X0120431Y0144932D01*
X0120566Y0145019D01*
X0120704Y0145102D01*
X0120843Y0145182D01*
X0120985Y0145258D01*
X0121128Y0145331D01*
X0121273Y0145400D01*
X0121420Y0145466D01*
X0121568Y0145528D01*
X0121718Y0145586D01*
X0121869Y0145641D01*
X0122022Y0145692D01*
X0122176Y0145739D01*
X0122331Y0145782D01*
X0122487Y0145821D01*
X0122643Y0145857D01*
X0122801Y0145888D01*
X0122959Y0145916D01*
X0123118Y0145940D01*
X0123278Y0145960D01*
X0123438Y0145976D01*
X0123598Y0145988D01*
X0123759Y0145996D01*
X0123920Y0146000D01*
X0124080Y0146000D01*
X0124241Y0145996D01*
X0124402Y0145988D01*
X0124562Y0145976D01*
X0124722Y0145960D01*
X0124882Y0145940D01*
X0125041Y0145916D01*
X0125199Y0145888D01*
X0125357Y0145857D01*
X0125513Y0145821D01*
X0125669Y0145782D01*
X0125824Y0145739D01*
X0125978Y0145692D01*
X0126131Y0145641D01*
X0126282Y0145586D01*
X0126432Y0145528D01*
X0126580Y0145466D01*
X0126727Y0145400D01*
X0126872Y0145331D01*
X0127015Y0145258D01*
X0127157Y0145182D01*
X0127296Y0145102D01*
X0127434Y0145019D01*
X0127569Y0144932D01*
X0127703Y0144842D01*
X0127834Y0144749D01*
X0127962Y0144653D01*
X0128088Y0144553D01*
X0128212Y0144450D01*
X0128333Y0144345D01*
X0128452Y0144236D01*
X0128568Y0144125D01*
X0128681Y0144010D01*
X0128791Y0143893D01*
X0128898Y0143773D01*
X0129002Y0143651D01*
X0129103Y0143526D01*
X0129201Y0143398D01*
X0129296Y0143268D01*
X0129388Y0143136D01*
X0129476Y0143002D01*
X0129561Y0142865D01*
X0129643Y0142727D01*
X0129721Y0142586D01*
X0129795Y0142444D01*
X0129866Y0142300D01*
X0129934Y0142154D01*
X0129997Y0142006D01*
X0130058Y0141857D01*
X0130114Y0141706D01*
X0130167Y0141554D01*
X0130216Y0141401D01*
X0130261Y0141247D01*
X0130302Y0141092D01*
X0130340Y0140935D01*
X0130373Y0140778D01*
X0130403Y0140620D01*
X0130429Y0140461D01*
X0130450Y0140302D01*
X0130468Y0140142D01*
X0130482Y0139982D01*
X0130492Y0139821D01*
X0130498Y0139661D01*
X0130500Y0139500D01*
X0130498Y0139339D01*
X0130492Y0139179D01*
X0130482Y0139018D01*
X0130468Y0138858D01*
X0130450Y0138698D01*
X0130429Y0138539D01*
X0130403Y0138380D01*
X0130373Y0138222D01*
X0130340Y0138065D01*
X0130302Y0137908D01*
X0130261Y0137753D01*
X0130216Y0137599D01*
X0130167Y0137446D01*
X0130114Y0137294D01*
X0130058Y0137143D01*
X0129997Y0136994D01*
X0129934Y0136846D01*
X0129866Y0136700D01*
X0129795Y0136556D01*
X0129721Y0136414D01*
X0129643Y0136273D01*
X0129561Y0136135D01*
X0129476Y0135998D01*
X0129388Y0135864D01*
X0129296Y0135732D01*
X0129201Y0135602D01*
X0129103Y0135474D01*
X0129002Y0135349D01*
X0128898Y0135227D01*
X0128791Y0135107D01*
X0128681Y0134990D01*
X0128568Y0134875D01*
X0128452Y0134764D01*
X0128333Y0134655D01*
X0128212Y0134550D01*
X0128088Y0134447D01*
X0127962Y0134347D01*
X0127834Y0134251D01*
X0127703Y0134158D01*
X0127569Y0134068D01*
X0127434Y0133981D01*
X0127296Y0133898D01*
X0127157Y0133818D01*
X0127015Y0133742D01*
X0126872Y0133669D01*
X0126727Y0133600D01*
X0126580Y0133534D01*
X0126432Y0133472D01*
X0126282Y0133414D01*
X0126131Y0133359D01*
X0125978Y0133308D01*
X0125824Y0133261D01*
X0125669Y0133218D01*
X0125513Y0133179D01*
X0125357Y0133143D01*
X0125199Y0133112D01*
X0125041Y0133084D01*
X0124882Y0133060D01*
X0124722Y0133040D01*
X0124562Y0133024D01*
X0124402Y0133012D01*
X0124241Y0133004D01*
X0124080Y0133000D01*
X0123920Y0133000D01*
X0123759Y0133004D01*
X0123598Y0133012D01*
X0123438Y0133024D01*
X0123278Y0133040D01*
X0123118Y0133060D01*
X0122959Y0133084D01*
X0122801Y0133112D01*
X0122643Y0133143D01*
X0122487Y0133179D01*
X0122331Y0133218D01*
X0122176Y0133261D01*
X0122022Y0133308D01*
X0121869Y0133359D01*
X0121718Y0133414D01*
X0121568Y0133472D01*
X0121420Y0133534D01*
X0121273Y0133600D01*
X0121128Y0133669D01*
X0120985Y0133742D01*
X0120843Y0133818D01*
X0120704Y0133898D01*
X0120566Y0133981D01*
X0120431Y0134068D01*
X0120297Y0134158D01*
X0120166Y0134251D01*
X0120038Y0134347D01*
X0119912Y0134447D01*
X0119788Y0134550D01*
X0119667Y0134655D01*
X0119548Y0134764D01*
X0119432Y0134875D01*
X0119319Y0134990D01*
X0119209Y0135107D01*
X0119102Y0135227D01*
X0118998Y0135349D01*
X0118897Y0135474D01*
X0118799Y0135602D01*
X0118704Y0135732D01*
X0118612Y0135864D01*
X0118524Y0135998D01*
X0118439Y0136135D01*
X0118357Y0136273D01*
X0118279Y0136414D01*
X0118205Y0136556D01*
X0118134Y0136700D01*
X0118066Y0136846D01*
X0118003Y0136994D01*
X0117942Y0137143D01*
X0117886Y0137294D01*
X0117833Y0137446D01*
X0117784Y0137599D01*
X0117739Y0137753D01*
X0117698Y0137908D01*
X0117660Y0138065D01*
X0117627Y0138222D01*
X0117597Y0138380D01*
X0117571Y0138539D01*
X0117550Y0138698D01*
X0117532Y0138858D01*
X0117518Y0139018D01*
X0117508Y0139179D01*
X0117502Y0139339D01*
X0117500Y0139500D01*
X0037500Y0139500D02*
X0037502Y0139661D01*
X0037508Y0139821D01*
X0037518Y0139982D01*
X0037532Y0140142D01*
X0037550Y0140302D01*
X0037571Y0140461D01*
X0037597Y0140620D01*
X0037627Y0140778D01*
X0037660Y0140935D01*
X0037698Y0141092D01*
X0037739Y0141247D01*
X0037784Y0141401D01*
X0037833Y0141554D01*
X0037886Y0141706D01*
X0037942Y0141857D01*
X0038003Y0142006D01*
X0038066Y0142154D01*
X0038134Y0142300D01*
X0038205Y0142444D01*
X0038279Y0142586D01*
X0038357Y0142727D01*
X0038439Y0142865D01*
X0038524Y0143002D01*
X0038612Y0143136D01*
X0038704Y0143268D01*
X0038799Y0143398D01*
X0038897Y0143526D01*
X0038998Y0143651D01*
X0039102Y0143773D01*
X0039209Y0143893D01*
X0039319Y0144010D01*
X0039432Y0144125D01*
X0039548Y0144236D01*
X0039667Y0144345D01*
X0039788Y0144450D01*
X0039912Y0144553D01*
X0040038Y0144653D01*
X0040166Y0144749D01*
X0040297Y0144842D01*
X0040431Y0144932D01*
X0040566Y0145019D01*
X0040704Y0145102D01*
X0040843Y0145182D01*
X0040985Y0145258D01*
X0041128Y0145331D01*
X0041273Y0145400D01*
X0041420Y0145466D01*
X0041568Y0145528D01*
X0041718Y0145586D01*
X0041869Y0145641D01*
X0042022Y0145692D01*
X0042176Y0145739D01*
X0042331Y0145782D01*
X0042487Y0145821D01*
X0042643Y0145857D01*
X0042801Y0145888D01*
X0042959Y0145916D01*
X0043118Y0145940D01*
X0043278Y0145960D01*
X0043438Y0145976D01*
X0043598Y0145988D01*
X0043759Y0145996D01*
X0043920Y0146000D01*
X0044080Y0146000D01*
X0044241Y0145996D01*
X0044402Y0145988D01*
X0044562Y0145976D01*
X0044722Y0145960D01*
X0044882Y0145940D01*
X0045041Y0145916D01*
X0045199Y0145888D01*
X0045357Y0145857D01*
X0045513Y0145821D01*
X0045669Y0145782D01*
X0045824Y0145739D01*
X0045978Y0145692D01*
X0046131Y0145641D01*
X0046282Y0145586D01*
X0046432Y0145528D01*
X0046580Y0145466D01*
X0046727Y0145400D01*
X0046872Y0145331D01*
X0047015Y0145258D01*
X0047157Y0145182D01*
X0047296Y0145102D01*
X0047434Y0145019D01*
X0047569Y0144932D01*
X0047703Y0144842D01*
X0047834Y0144749D01*
X0047962Y0144653D01*
X0048088Y0144553D01*
X0048212Y0144450D01*
X0048333Y0144345D01*
X0048452Y0144236D01*
X0048568Y0144125D01*
X0048681Y0144010D01*
X0048791Y0143893D01*
X0048898Y0143773D01*
X0049002Y0143651D01*
X0049103Y0143526D01*
X0049201Y0143398D01*
X0049296Y0143268D01*
X0049388Y0143136D01*
X0049476Y0143002D01*
X0049561Y0142865D01*
X0049643Y0142727D01*
X0049721Y0142586D01*
X0049795Y0142444D01*
X0049866Y0142300D01*
X0049934Y0142154D01*
X0049997Y0142006D01*
X0050058Y0141857D01*
X0050114Y0141706D01*
X0050167Y0141554D01*
X0050216Y0141401D01*
X0050261Y0141247D01*
X0050302Y0141092D01*
X0050340Y0140935D01*
X0050373Y0140778D01*
X0050403Y0140620D01*
X0050429Y0140461D01*
X0050450Y0140302D01*
X0050468Y0140142D01*
X0050482Y0139982D01*
X0050492Y0139821D01*
X0050498Y0139661D01*
X0050500Y0139500D01*
X0050498Y0139339D01*
X0050492Y0139179D01*
X0050482Y0139018D01*
X0050468Y0138858D01*
X0050450Y0138698D01*
X0050429Y0138539D01*
X0050403Y0138380D01*
X0050373Y0138222D01*
X0050340Y0138065D01*
X0050302Y0137908D01*
X0050261Y0137753D01*
X0050216Y0137599D01*
X0050167Y0137446D01*
X0050114Y0137294D01*
X0050058Y0137143D01*
X0049997Y0136994D01*
X0049934Y0136846D01*
X0049866Y0136700D01*
X0049795Y0136556D01*
X0049721Y0136414D01*
X0049643Y0136273D01*
X0049561Y0136135D01*
X0049476Y0135998D01*
X0049388Y0135864D01*
X0049296Y0135732D01*
X0049201Y0135602D01*
X0049103Y0135474D01*
X0049002Y0135349D01*
X0048898Y0135227D01*
X0048791Y0135107D01*
X0048681Y0134990D01*
X0048568Y0134875D01*
X0048452Y0134764D01*
X0048333Y0134655D01*
X0048212Y0134550D01*
X0048088Y0134447D01*
X0047962Y0134347D01*
X0047834Y0134251D01*
X0047703Y0134158D01*
X0047569Y0134068D01*
X0047434Y0133981D01*
X0047296Y0133898D01*
X0047157Y0133818D01*
X0047015Y0133742D01*
X0046872Y0133669D01*
X0046727Y0133600D01*
X0046580Y0133534D01*
X0046432Y0133472D01*
X0046282Y0133414D01*
X0046131Y0133359D01*
X0045978Y0133308D01*
X0045824Y0133261D01*
X0045669Y0133218D01*
X0045513Y0133179D01*
X0045357Y0133143D01*
X0045199Y0133112D01*
X0045041Y0133084D01*
X0044882Y0133060D01*
X0044722Y0133040D01*
X0044562Y0133024D01*
X0044402Y0133012D01*
X0044241Y0133004D01*
X0044080Y0133000D01*
X0043920Y0133000D01*
X0043759Y0133004D01*
X0043598Y0133012D01*
X0043438Y0133024D01*
X0043278Y0133040D01*
X0043118Y0133060D01*
X0042959Y0133084D01*
X0042801Y0133112D01*
X0042643Y0133143D01*
X0042487Y0133179D01*
X0042331Y0133218D01*
X0042176Y0133261D01*
X0042022Y0133308D01*
X0041869Y0133359D01*
X0041718Y0133414D01*
X0041568Y0133472D01*
X0041420Y0133534D01*
X0041273Y0133600D01*
X0041128Y0133669D01*
X0040985Y0133742D01*
X0040843Y0133818D01*
X0040704Y0133898D01*
X0040566Y0133981D01*
X0040431Y0134068D01*
X0040297Y0134158D01*
X0040166Y0134251D01*
X0040038Y0134347D01*
X0039912Y0134447D01*
X0039788Y0134550D01*
X0039667Y0134655D01*
X0039548Y0134764D01*
X0039432Y0134875D01*
X0039319Y0134990D01*
X0039209Y0135107D01*
X0039102Y0135227D01*
X0038998Y0135349D01*
X0038897Y0135474D01*
X0038799Y0135602D01*
X0038704Y0135732D01*
X0038612Y0135864D01*
X0038524Y0135998D01*
X0038439Y0136135D01*
X0038357Y0136273D01*
X0038279Y0136414D01*
X0038205Y0136556D01*
X0038134Y0136700D01*
X0038066Y0136846D01*
X0038003Y0136994D01*
X0037942Y0137143D01*
X0037886Y0137294D01*
X0037833Y0137446D01*
X0037784Y0137599D01*
X0037739Y0137753D01*
X0037698Y0137908D01*
X0037660Y0138065D01*
X0037627Y0138222D01*
X0037597Y0138380D01*
X0037571Y0138539D01*
X0037550Y0138698D01*
X0037532Y0138858D01*
X0037518Y0139018D01*
X0037508Y0139179D01*
X0037502Y0139339D01*
X0037500Y0139500D01*
X0037500Y0241500D02*
X0037502Y0241661D01*
X0037508Y0241821D01*
X0037518Y0241982D01*
X0037532Y0242142D01*
X0037550Y0242302D01*
X0037571Y0242461D01*
X0037597Y0242620D01*
X0037627Y0242778D01*
X0037660Y0242935D01*
X0037698Y0243092D01*
X0037739Y0243247D01*
X0037784Y0243401D01*
X0037833Y0243554D01*
X0037886Y0243706D01*
X0037942Y0243857D01*
X0038003Y0244006D01*
X0038066Y0244154D01*
X0038134Y0244300D01*
X0038205Y0244444D01*
X0038279Y0244586D01*
X0038357Y0244727D01*
X0038439Y0244865D01*
X0038524Y0245002D01*
X0038612Y0245136D01*
X0038704Y0245268D01*
X0038799Y0245398D01*
X0038897Y0245526D01*
X0038998Y0245651D01*
X0039102Y0245773D01*
X0039209Y0245893D01*
X0039319Y0246010D01*
X0039432Y0246125D01*
X0039548Y0246236D01*
X0039667Y0246345D01*
X0039788Y0246450D01*
X0039912Y0246553D01*
X0040038Y0246653D01*
X0040166Y0246749D01*
X0040297Y0246842D01*
X0040431Y0246932D01*
X0040566Y0247019D01*
X0040704Y0247102D01*
X0040843Y0247182D01*
X0040985Y0247258D01*
X0041128Y0247331D01*
X0041273Y0247400D01*
X0041420Y0247466D01*
X0041568Y0247528D01*
X0041718Y0247586D01*
X0041869Y0247641D01*
X0042022Y0247692D01*
X0042176Y0247739D01*
X0042331Y0247782D01*
X0042487Y0247821D01*
X0042643Y0247857D01*
X0042801Y0247888D01*
X0042959Y0247916D01*
X0043118Y0247940D01*
X0043278Y0247960D01*
X0043438Y0247976D01*
X0043598Y0247988D01*
X0043759Y0247996D01*
X0043920Y0248000D01*
X0044080Y0248000D01*
X0044241Y0247996D01*
X0044402Y0247988D01*
X0044562Y0247976D01*
X0044722Y0247960D01*
X0044882Y0247940D01*
X0045041Y0247916D01*
X0045199Y0247888D01*
X0045357Y0247857D01*
X0045513Y0247821D01*
X0045669Y0247782D01*
X0045824Y0247739D01*
X0045978Y0247692D01*
X0046131Y0247641D01*
X0046282Y0247586D01*
X0046432Y0247528D01*
X0046580Y0247466D01*
X0046727Y0247400D01*
X0046872Y0247331D01*
X0047015Y0247258D01*
X0047157Y0247182D01*
X0047296Y0247102D01*
X0047434Y0247019D01*
X0047569Y0246932D01*
X0047703Y0246842D01*
X0047834Y0246749D01*
X0047962Y0246653D01*
X0048088Y0246553D01*
X0048212Y0246450D01*
X0048333Y0246345D01*
X0048452Y0246236D01*
X0048568Y0246125D01*
X0048681Y0246010D01*
X0048791Y0245893D01*
X0048898Y0245773D01*
X0049002Y0245651D01*
X0049103Y0245526D01*
X0049201Y0245398D01*
X0049296Y0245268D01*
X0049388Y0245136D01*
X0049476Y0245002D01*
X0049561Y0244865D01*
X0049643Y0244727D01*
X0049721Y0244586D01*
X0049795Y0244444D01*
X0049866Y0244300D01*
X0049934Y0244154D01*
X0049997Y0244006D01*
X0050058Y0243857D01*
X0050114Y0243706D01*
X0050167Y0243554D01*
X0050216Y0243401D01*
X0050261Y0243247D01*
X0050302Y0243092D01*
X0050340Y0242935D01*
X0050373Y0242778D01*
X0050403Y0242620D01*
X0050429Y0242461D01*
X0050450Y0242302D01*
X0050468Y0242142D01*
X0050482Y0241982D01*
X0050492Y0241821D01*
X0050498Y0241661D01*
X0050500Y0241500D01*
X0050498Y0241339D01*
X0050492Y0241179D01*
X0050482Y0241018D01*
X0050468Y0240858D01*
X0050450Y0240698D01*
X0050429Y0240539D01*
X0050403Y0240380D01*
X0050373Y0240222D01*
X0050340Y0240065D01*
X0050302Y0239908D01*
X0050261Y0239753D01*
X0050216Y0239599D01*
X0050167Y0239446D01*
X0050114Y0239294D01*
X0050058Y0239143D01*
X0049997Y0238994D01*
X0049934Y0238846D01*
X0049866Y0238700D01*
X0049795Y0238556D01*
X0049721Y0238414D01*
X0049643Y0238273D01*
X0049561Y0238135D01*
X0049476Y0237998D01*
X0049388Y0237864D01*
X0049296Y0237732D01*
X0049201Y0237602D01*
X0049103Y0237474D01*
X0049002Y0237349D01*
X0048898Y0237227D01*
X0048791Y0237107D01*
X0048681Y0236990D01*
X0048568Y0236875D01*
X0048452Y0236764D01*
X0048333Y0236655D01*
X0048212Y0236550D01*
X0048088Y0236447D01*
X0047962Y0236347D01*
X0047834Y0236251D01*
X0047703Y0236158D01*
X0047569Y0236068D01*
X0047434Y0235981D01*
X0047296Y0235898D01*
X0047157Y0235818D01*
X0047015Y0235742D01*
X0046872Y0235669D01*
X0046727Y0235600D01*
X0046580Y0235534D01*
X0046432Y0235472D01*
X0046282Y0235414D01*
X0046131Y0235359D01*
X0045978Y0235308D01*
X0045824Y0235261D01*
X0045669Y0235218D01*
X0045513Y0235179D01*
X0045357Y0235143D01*
X0045199Y0235112D01*
X0045041Y0235084D01*
X0044882Y0235060D01*
X0044722Y0235040D01*
X0044562Y0235024D01*
X0044402Y0235012D01*
X0044241Y0235004D01*
X0044080Y0235000D01*
X0043920Y0235000D01*
X0043759Y0235004D01*
X0043598Y0235012D01*
X0043438Y0235024D01*
X0043278Y0235040D01*
X0043118Y0235060D01*
X0042959Y0235084D01*
X0042801Y0235112D01*
X0042643Y0235143D01*
X0042487Y0235179D01*
X0042331Y0235218D01*
X0042176Y0235261D01*
X0042022Y0235308D01*
X0041869Y0235359D01*
X0041718Y0235414D01*
X0041568Y0235472D01*
X0041420Y0235534D01*
X0041273Y0235600D01*
X0041128Y0235669D01*
X0040985Y0235742D01*
X0040843Y0235818D01*
X0040704Y0235898D01*
X0040566Y0235981D01*
X0040431Y0236068D01*
X0040297Y0236158D01*
X0040166Y0236251D01*
X0040038Y0236347D01*
X0039912Y0236447D01*
X0039788Y0236550D01*
X0039667Y0236655D01*
X0039548Y0236764D01*
X0039432Y0236875D01*
X0039319Y0236990D01*
X0039209Y0237107D01*
X0039102Y0237227D01*
X0038998Y0237349D01*
X0038897Y0237474D01*
X0038799Y0237602D01*
X0038704Y0237732D01*
X0038612Y0237864D01*
X0038524Y0237998D01*
X0038439Y0238135D01*
X0038357Y0238273D01*
X0038279Y0238414D01*
X0038205Y0238556D01*
X0038134Y0238700D01*
X0038066Y0238846D01*
X0038003Y0238994D01*
X0037942Y0239143D01*
X0037886Y0239294D01*
X0037833Y0239446D01*
X0037784Y0239599D01*
X0037739Y0239753D01*
X0037698Y0239908D01*
X0037660Y0240065D01*
X0037627Y0240222D01*
X0037597Y0240380D01*
X0037571Y0240539D01*
X0037550Y0240698D01*
X0037532Y0240858D01*
X0037518Y0241018D01*
X0037508Y0241179D01*
X0037502Y0241339D01*
X0037500Y0241500D01*
X0117500Y0241500D02*
X0117502Y0241661D01*
X0117508Y0241821D01*
X0117518Y0241982D01*
X0117532Y0242142D01*
X0117550Y0242302D01*
X0117571Y0242461D01*
X0117597Y0242620D01*
X0117627Y0242778D01*
X0117660Y0242935D01*
X0117698Y0243092D01*
X0117739Y0243247D01*
X0117784Y0243401D01*
X0117833Y0243554D01*
X0117886Y0243706D01*
X0117942Y0243857D01*
X0118003Y0244006D01*
X0118066Y0244154D01*
X0118134Y0244300D01*
X0118205Y0244444D01*
X0118279Y0244586D01*
X0118357Y0244727D01*
X0118439Y0244865D01*
X0118524Y0245002D01*
X0118612Y0245136D01*
X0118704Y0245268D01*
X0118799Y0245398D01*
X0118897Y0245526D01*
X0118998Y0245651D01*
X0119102Y0245773D01*
X0119209Y0245893D01*
X0119319Y0246010D01*
X0119432Y0246125D01*
X0119548Y0246236D01*
X0119667Y0246345D01*
X0119788Y0246450D01*
X0119912Y0246553D01*
X0120038Y0246653D01*
X0120166Y0246749D01*
X0120297Y0246842D01*
X0120431Y0246932D01*
X0120566Y0247019D01*
X0120704Y0247102D01*
X0120843Y0247182D01*
X0120985Y0247258D01*
X0121128Y0247331D01*
X0121273Y0247400D01*
X0121420Y0247466D01*
X0121568Y0247528D01*
X0121718Y0247586D01*
X0121869Y0247641D01*
X0122022Y0247692D01*
X0122176Y0247739D01*
X0122331Y0247782D01*
X0122487Y0247821D01*
X0122643Y0247857D01*
X0122801Y0247888D01*
X0122959Y0247916D01*
X0123118Y0247940D01*
X0123278Y0247960D01*
X0123438Y0247976D01*
X0123598Y0247988D01*
X0123759Y0247996D01*
X0123920Y0248000D01*
X0124080Y0248000D01*
X0124241Y0247996D01*
X0124402Y0247988D01*
X0124562Y0247976D01*
X0124722Y0247960D01*
X0124882Y0247940D01*
X0125041Y0247916D01*
X0125199Y0247888D01*
X0125357Y0247857D01*
X0125513Y0247821D01*
X0125669Y0247782D01*
X0125824Y0247739D01*
X0125978Y0247692D01*
X0126131Y0247641D01*
X0126282Y0247586D01*
X0126432Y0247528D01*
X0126580Y0247466D01*
X0126727Y0247400D01*
X0126872Y0247331D01*
X0127015Y0247258D01*
X0127157Y0247182D01*
X0127296Y0247102D01*
X0127434Y0247019D01*
X0127569Y0246932D01*
X0127703Y0246842D01*
X0127834Y0246749D01*
X0127962Y0246653D01*
X0128088Y0246553D01*
X0128212Y0246450D01*
X0128333Y0246345D01*
X0128452Y0246236D01*
X0128568Y0246125D01*
X0128681Y0246010D01*
X0128791Y0245893D01*
X0128898Y0245773D01*
X0129002Y0245651D01*
X0129103Y0245526D01*
X0129201Y0245398D01*
X0129296Y0245268D01*
X0129388Y0245136D01*
X0129476Y0245002D01*
X0129561Y0244865D01*
X0129643Y0244727D01*
X0129721Y0244586D01*
X0129795Y0244444D01*
X0129866Y0244300D01*
X0129934Y0244154D01*
X0129997Y0244006D01*
X0130058Y0243857D01*
X0130114Y0243706D01*
X0130167Y0243554D01*
X0130216Y0243401D01*
X0130261Y0243247D01*
X0130302Y0243092D01*
X0130340Y0242935D01*
X0130373Y0242778D01*
X0130403Y0242620D01*
X0130429Y0242461D01*
X0130450Y0242302D01*
X0130468Y0242142D01*
X0130482Y0241982D01*
X0130492Y0241821D01*
X0130498Y0241661D01*
X0130500Y0241500D01*
X0130498Y0241339D01*
X0130492Y0241179D01*
X0130482Y0241018D01*
X0130468Y0240858D01*
X0130450Y0240698D01*
X0130429Y0240539D01*
X0130403Y0240380D01*
X0130373Y0240222D01*
X0130340Y0240065D01*
X0130302Y0239908D01*
X0130261Y0239753D01*
X0130216Y0239599D01*
X0130167Y0239446D01*
X0130114Y0239294D01*
X0130058Y0239143D01*
X0129997Y0238994D01*
X0129934Y0238846D01*
X0129866Y0238700D01*
X0129795Y0238556D01*
X0129721Y0238414D01*
X0129643Y0238273D01*
X0129561Y0238135D01*
X0129476Y0237998D01*
X0129388Y0237864D01*
X0129296Y0237732D01*
X0129201Y0237602D01*
X0129103Y0237474D01*
X0129002Y0237349D01*
X0128898Y0237227D01*
X0128791Y0237107D01*
X0128681Y0236990D01*
X0128568Y0236875D01*
X0128452Y0236764D01*
X0128333Y0236655D01*
X0128212Y0236550D01*
X0128088Y0236447D01*
X0127962Y0236347D01*
X0127834Y0236251D01*
X0127703Y0236158D01*
X0127569Y0236068D01*
X0127434Y0235981D01*
X0127296Y0235898D01*
X0127157Y0235818D01*
X0127015Y0235742D01*
X0126872Y0235669D01*
X0126727Y0235600D01*
X0126580Y0235534D01*
X0126432Y0235472D01*
X0126282Y0235414D01*
X0126131Y0235359D01*
X0125978Y0235308D01*
X0125824Y0235261D01*
X0125669Y0235218D01*
X0125513Y0235179D01*
X0125357Y0235143D01*
X0125199Y0235112D01*
X0125041Y0235084D01*
X0124882Y0235060D01*
X0124722Y0235040D01*
X0124562Y0235024D01*
X0124402Y0235012D01*
X0124241Y0235004D01*
X0124080Y0235000D01*
X0123920Y0235000D01*
X0123759Y0235004D01*
X0123598Y0235012D01*
X0123438Y0235024D01*
X0123278Y0235040D01*
X0123118Y0235060D01*
X0122959Y0235084D01*
X0122801Y0235112D01*
X0122643Y0235143D01*
X0122487Y0235179D01*
X0122331Y0235218D01*
X0122176Y0235261D01*
X0122022Y0235308D01*
X0121869Y0235359D01*
X0121718Y0235414D01*
X0121568Y0235472D01*
X0121420Y0235534D01*
X0121273Y0235600D01*
X0121128Y0235669D01*
X0120985Y0235742D01*
X0120843Y0235818D01*
X0120704Y0235898D01*
X0120566Y0235981D01*
X0120431Y0236068D01*
X0120297Y0236158D01*
X0120166Y0236251D01*
X0120038Y0236347D01*
X0119912Y0236447D01*
X0119788Y0236550D01*
X0119667Y0236655D01*
X0119548Y0236764D01*
X0119432Y0236875D01*
X0119319Y0236990D01*
X0119209Y0237107D01*
X0119102Y0237227D01*
X0118998Y0237349D01*
X0118897Y0237474D01*
X0118799Y0237602D01*
X0118704Y0237732D01*
X0118612Y0237864D01*
X0118524Y0237998D01*
X0118439Y0238135D01*
X0118357Y0238273D01*
X0118279Y0238414D01*
X0118205Y0238556D01*
X0118134Y0238700D01*
X0118066Y0238846D01*
X0118003Y0238994D01*
X0117942Y0239143D01*
X0117886Y0239294D01*
X0117833Y0239446D01*
X0117784Y0239599D01*
X0117739Y0239753D01*
X0117698Y0239908D01*
X0117660Y0240065D01*
X0117627Y0240222D01*
X0117597Y0240380D01*
X0117571Y0240539D01*
X0117550Y0240698D01*
X0117532Y0240858D01*
X0117518Y0241018D01*
X0117508Y0241179D01*
X0117502Y0241339D01*
X0117500Y0241500D01*
X0139500Y0241500D02*
X0139502Y0241661D01*
X0139508Y0241821D01*
X0139518Y0241982D01*
X0139532Y0242142D01*
X0139550Y0242302D01*
X0139571Y0242461D01*
X0139597Y0242620D01*
X0139627Y0242778D01*
X0139660Y0242935D01*
X0139698Y0243092D01*
X0139739Y0243247D01*
X0139784Y0243401D01*
X0139833Y0243554D01*
X0139886Y0243706D01*
X0139942Y0243857D01*
X0140003Y0244006D01*
X0140066Y0244154D01*
X0140134Y0244300D01*
X0140205Y0244444D01*
X0140279Y0244586D01*
X0140357Y0244727D01*
X0140439Y0244865D01*
X0140524Y0245002D01*
X0140612Y0245136D01*
X0140704Y0245268D01*
X0140799Y0245398D01*
X0140897Y0245526D01*
X0140998Y0245651D01*
X0141102Y0245773D01*
X0141209Y0245893D01*
X0141319Y0246010D01*
X0141432Y0246125D01*
X0141548Y0246236D01*
X0141667Y0246345D01*
X0141788Y0246450D01*
X0141912Y0246553D01*
X0142038Y0246653D01*
X0142166Y0246749D01*
X0142297Y0246842D01*
X0142431Y0246932D01*
X0142566Y0247019D01*
X0142704Y0247102D01*
X0142843Y0247182D01*
X0142985Y0247258D01*
X0143128Y0247331D01*
X0143273Y0247400D01*
X0143420Y0247466D01*
X0143568Y0247528D01*
X0143718Y0247586D01*
X0143869Y0247641D01*
X0144022Y0247692D01*
X0144176Y0247739D01*
X0144331Y0247782D01*
X0144487Y0247821D01*
X0144643Y0247857D01*
X0144801Y0247888D01*
X0144959Y0247916D01*
X0145118Y0247940D01*
X0145278Y0247960D01*
X0145438Y0247976D01*
X0145598Y0247988D01*
X0145759Y0247996D01*
X0145920Y0248000D01*
X0146080Y0248000D01*
X0146241Y0247996D01*
X0146402Y0247988D01*
X0146562Y0247976D01*
X0146722Y0247960D01*
X0146882Y0247940D01*
X0147041Y0247916D01*
X0147199Y0247888D01*
X0147357Y0247857D01*
X0147513Y0247821D01*
X0147669Y0247782D01*
X0147824Y0247739D01*
X0147978Y0247692D01*
X0148131Y0247641D01*
X0148282Y0247586D01*
X0148432Y0247528D01*
X0148580Y0247466D01*
X0148727Y0247400D01*
X0148872Y0247331D01*
X0149015Y0247258D01*
X0149157Y0247182D01*
X0149296Y0247102D01*
X0149434Y0247019D01*
X0149569Y0246932D01*
X0149703Y0246842D01*
X0149834Y0246749D01*
X0149962Y0246653D01*
X0150088Y0246553D01*
X0150212Y0246450D01*
X0150333Y0246345D01*
X0150452Y0246236D01*
X0150568Y0246125D01*
X0150681Y0246010D01*
X0150791Y0245893D01*
X0150898Y0245773D01*
X0151002Y0245651D01*
X0151103Y0245526D01*
X0151201Y0245398D01*
X0151296Y0245268D01*
X0151388Y0245136D01*
X0151476Y0245002D01*
X0151561Y0244865D01*
X0151643Y0244727D01*
X0151721Y0244586D01*
X0151795Y0244444D01*
X0151866Y0244300D01*
X0151934Y0244154D01*
X0151997Y0244006D01*
X0152058Y0243857D01*
X0152114Y0243706D01*
X0152167Y0243554D01*
X0152216Y0243401D01*
X0152261Y0243247D01*
X0152302Y0243092D01*
X0152340Y0242935D01*
X0152373Y0242778D01*
X0152403Y0242620D01*
X0152429Y0242461D01*
X0152450Y0242302D01*
X0152468Y0242142D01*
X0152482Y0241982D01*
X0152492Y0241821D01*
X0152498Y0241661D01*
X0152500Y0241500D01*
X0152498Y0241339D01*
X0152492Y0241179D01*
X0152482Y0241018D01*
X0152468Y0240858D01*
X0152450Y0240698D01*
X0152429Y0240539D01*
X0152403Y0240380D01*
X0152373Y0240222D01*
X0152340Y0240065D01*
X0152302Y0239908D01*
X0152261Y0239753D01*
X0152216Y0239599D01*
X0152167Y0239446D01*
X0152114Y0239294D01*
X0152058Y0239143D01*
X0151997Y0238994D01*
X0151934Y0238846D01*
X0151866Y0238700D01*
X0151795Y0238556D01*
X0151721Y0238414D01*
X0151643Y0238273D01*
X0151561Y0238135D01*
X0151476Y0237998D01*
X0151388Y0237864D01*
X0151296Y0237732D01*
X0151201Y0237602D01*
X0151103Y0237474D01*
X0151002Y0237349D01*
X0150898Y0237227D01*
X0150791Y0237107D01*
X0150681Y0236990D01*
X0150568Y0236875D01*
X0150452Y0236764D01*
X0150333Y0236655D01*
X0150212Y0236550D01*
X0150088Y0236447D01*
X0149962Y0236347D01*
X0149834Y0236251D01*
X0149703Y0236158D01*
X0149569Y0236068D01*
X0149434Y0235981D01*
X0149296Y0235898D01*
X0149157Y0235818D01*
X0149015Y0235742D01*
X0148872Y0235669D01*
X0148727Y0235600D01*
X0148580Y0235534D01*
X0148432Y0235472D01*
X0148282Y0235414D01*
X0148131Y0235359D01*
X0147978Y0235308D01*
X0147824Y0235261D01*
X0147669Y0235218D01*
X0147513Y0235179D01*
X0147357Y0235143D01*
X0147199Y0235112D01*
X0147041Y0235084D01*
X0146882Y0235060D01*
X0146722Y0235040D01*
X0146562Y0235024D01*
X0146402Y0235012D01*
X0146241Y0235004D01*
X0146080Y0235000D01*
X0145920Y0235000D01*
X0145759Y0235004D01*
X0145598Y0235012D01*
X0145438Y0235024D01*
X0145278Y0235040D01*
X0145118Y0235060D01*
X0144959Y0235084D01*
X0144801Y0235112D01*
X0144643Y0235143D01*
X0144487Y0235179D01*
X0144331Y0235218D01*
X0144176Y0235261D01*
X0144022Y0235308D01*
X0143869Y0235359D01*
X0143718Y0235414D01*
X0143568Y0235472D01*
X0143420Y0235534D01*
X0143273Y0235600D01*
X0143128Y0235669D01*
X0142985Y0235742D01*
X0142843Y0235818D01*
X0142704Y0235898D01*
X0142566Y0235981D01*
X0142431Y0236068D01*
X0142297Y0236158D01*
X0142166Y0236251D01*
X0142038Y0236347D01*
X0141912Y0236447D01*
X0141788Y0236550D01*
X0141667Y0236655D01*
X0141548Y0236764D01*
X0141432Y0236875D01*
X0141319Y0236990D01*
X0141209Y0237107D01*
X0141102Y0237227D01*
X0140998Y0237349D01*
X0140897Y0237474D01*
X0140799Y0237602D01*
X0140704Y0237732D01*
X0140612Y0237864D01*
X0140524Y0237998D01*
X0140439Y0238135D01*
X0140357Y0238273D01*
X0140279Y0238414D01*
X0140205Y0238556D01*
X0140134Y0238700D01*
X0140066Y0238846D01*
X0140003Y0238994D01*
X0139942Y0239143D01*
X0139886Y0239294D01*
X0139833Y0239446D01*
X0139784Y0239599D01*
X0139739Y0239753D01*
X0139698Y0239908D01*
X0139660Y0240065D01*
X0139627Y0240222D01*
X0139597Y0240380D01*
X0139571Y0240539D01*
X0139550Y0240698D01*
X0139532Y0240858D01*
X0139518Y0241018D01*
X0139508Y0241179D01*
X0139502Y0241339D01*
X0139500Y0241500D01*
X0219500Y0241500D02*
X0219502Y0241661D01*
X0219508Y0241821D01*
X0219518Y0241982D01*
X0219532Y0242142D01*
X0219550Y0242302D01*
X0219571Y0242461D01*
X0219597Y0242620D01*
X0219627Y0242778D01*
X0219660Y0242935D01*
X0219698Y0243092D01*
X0219739Y0243247D01*
X0219784Y0243401D01*
X0219833Y0243554D01*
X0219886Y0243706D01*
X0219942Y0243857D01*
X0220003Y0244006D01*
X0220066Y0244154D01*
X0220134Y0244300D01*
X0220205Y0244444D01*
X0220279Y0244586D01*
X0220357Y0244727D01*
X0220439Y0244865D01*
X0220524Y0245002D01*
X0220612Y0245136D01*
X0220704Y0245268D01*
X0220799Y0245398D01*
X0220897Y0245526D01*
X0220998Y0245651D01*
X0221102Y0245773D01*
X0221209Y0245893D01*
X0221319Y0246010D01*
X0221432Y0246125D01*
X0221548Y0246236D01*
X0221667Y0246345D01*
X0221788Y0246450D01*
X0221912Y0246553D01*
X0222038Y0246653D01*
X0222166Y0246749D01*
X0222297Y0246842D01*
X0222431Y0246932D01*
X0222566Y0247019D01*
X0222704Y0247102D01*
X0222843Y0247182D01*
X0222985Y0247258D01*
X0223128Y0247331D01*
X0223273Y0247400D01*
X0223420Y0247466D01*
X0223568Y0247528D01*
X0223718Y0247586D01*
X0223869Y0247641D01*
X0224022Y0247692D01*
X0224176Y0247739D01*
X0224331Y0247782D01*
X0224487Y0247821D01*
X0224643Y0247857D01*
X0224801Y0247888D01*
X0224959Y0247916D01*
X0225118Y0247940D01*
X0225278Y0247960D01*
X0225438Y0247976D01*
X0225598Y0247988D01*
X0225759Y0247996D01*
X0225920Y0248000D01*
X0226080Y0248000D01*
X0226241Y0247996D01*
X0226402Y0247988D01*
X0226562Y0247976D01*
X0226722Y0247960D01*
X0226882Y0247940D01*
X0227041Y0247916D01*
X0227199Y0247888D01*
X0227357Y0247857D01*
X0227513Y0247821D01*
X0227669Y0247782D01*
X0227824Y0247739D01*
X0227978Y0247692D01*
X0228131Y0247641D01*
X0228282Y0247586D01*
X0228432Y0247528D01*
X0228580Y0247466D01*
X0228727Y0247400D01*
X0228872Y0247331D01*
X0229015Y0247258D01*
X0229157Y0247182D01*
X0229296Y0247102D01*
X0229434Y0247019D01*
X0229569Y0246932D01*
X0229703Y0246842D01*
X0229834Y0246749D01*
X0229962Y0246653D01*
X0230088Y0246553D01*
X0230212Y0246450D01*
X0230333Y0246345D01*
X0230452Y0246236D01*
X0230568Y0246125D01*
X0230681Y0246010D01*
X0230791Y0245893D01*
X0230898Y0245773D01*
X0231002Y0245651D01*
X0231103Y0245526D01*
X0231201Y0245398D01*
X0231296Y0245268D01*
X0231388Y0245136D01*
X0231476Y0245002D01*
X0231561Y0244865D01*
X0231643Y0244727D01*
X0231721Y0244586D01*
X0231795Y0244444D01*
X0231866Y0244300D01*
X0231934Y0244154D01*
X0231997Y0244006D01*
X0232058Y0243857D01*
X0232114Y0243706D01*
X0232167Y0243554D01*
X0232216Y0243401D01*
X0232261Y0243247D01*
X0232302Y0243092D01*
X0232340Y0242935D01*
X0232373Y0242778D01*
X0232403Y0242620D01*
X0232429Y0242461D01*
X0232450Y0242302D01*
X0232468Y0242142D01*
X0232482Y0241982D01*
X0232492Y0241821D01*
X0232498Y0241661D01*
X0232500Y0241500D01*
X0232498Y0241339D01*
X0232492Y0241179D01*
X0232482Y0241018D01*
X0232468Y0240858D01*
X0232450Y0240698D01*
X0232429Y0240539D01*
X0232403Y0240380D01*
X0232373Y0240222D01*
X0232340Y0240065D01*
X0232302Y0239908D01*
X0232261Y0239753D01*
X0232216Y0239599D01*
X0232167Y0239446D01*
X0232114Y0239294D01*
X0232058Y0239143D01*
X0231997Y0238994D01*
X0231934Y0238846D01*
X0231866Y0238700D01*
X0231795Y0238556D01*
X0231721Y0238414D01*
X0231643Y0238273D01*
X0231561Y0238135D01*
X0231476Y0237998D01*
X0231388Y0237864D01*
X0231296Y0237732D01*
X0231201Y0237602D01*
X0231103Y0237474D01*
X0231002Y0237349D01*
X0230898Y0237227D01*
X0230791Y0237107D01*
X0230681Y0236990D01*
X0230568Y0236875D01*
X0230452Y0236764D01*
X0230333Y0236655D01*
X0230212Y0236550D01*
X0230088Y0236447D01*
X0229962Y0236347D01*
X0229834Y0236251D01*
X0229703Y0236158D01*
X0229569Y0236068D01*
X0229434Y0235981D01*
X0229296Y0235898D01*
X0229157Y0235818D01*
X0229015Y0235742D01*
X0228872Y0235669D01*
X0228727Y0235600D01*
X0228580Y0235534D01*
X0228432Y0235472D01*
X0228282Y0235414D01*
X0228131Y0235359D01*
X0227978Y0235308D01*
X0227824Y0235261D01*
X0227669Y0235218D01*
X0227513Y0235179D01*
X0227357Y0235143D01*
X0227199Y0235112D01*
X0227041Y0235084D01*
X0226882Y0235060D01*
X0226722Y0235040D01*
X0226562Y0235024D01*
X0226402Y0235012D01*
X0226241Y0235004D01*
X0226080Y0235000D01*
X0225920Y0235000D01*
X0225759Y0235004D01*
X0225598Y0235012D01*
X0225438Y0235024D01*
X0225278Y0235040D01*
X0225118Y0235060D01*
X0224959Y0235084D01*
X0224801Y0235112D01*
X0224643Y0235143D01*
X0224487Y0235179D01*
X0224331Y0235218D01*
X0224176Y0235261D01*
X0224022Y0235308D01*
X0223869Y0235359D01*
X0223718Y0235414D01*
X0223568Y0235472D01*
X0223420Y0235534D01*
X0223273Y0235600D01*
X0223128Y0235669D01*
X0222985Y0235742D01*
X0222843Y0235818D01*
X0222704Y0235898D01*
X0222566Y0235981D01*
X0222431Y0236068D01*
X0222297Y0236158D01*
X0222166Y0236251D01*
X0222038Y0236347D01*
X0221912Y0236447D01*
X0221788Y0236550D01*
X0221667Y0236655D01*
X0221548Y0236764D01*
X0221432Y0236875D01*
X0221319Y0236990D01*
X0221209Y0237107D01*
X0221102Y0237227D01*
X0220998Y0237349D01*
X0220897Y0237474D01*
X0220799Y0237602D01*
X0220704Y0237732D01*
X0220612Y0237864D01*
X0220524Y0237998D01*
X0220439Y0238135D01*
X0220357Y0238273D01*
X0220279Y0238414D01*
X0220205Y0238556D01*
X0220134Y0238700D01*
X0220066Y0238846D01*
X0220003Y0238994D01*
X0219942Y0239143D01*
X0219886Y0239294D01*
X0219833Y0239446D01*
X0219784Y0239599D01*
X0219739Y0239753D01*
X0219698Y0239908D01*
X0219660Y0240065D01*
X0219627Y0240222D01*
X0219597Y0240380D01*
X0219571Y0240539D01*
X0219550Y0240698D01*
X0219532Y0240858D01*
X0219518Y0241018D01*
X0219508Y0241179D01*
X0219502Y0241339D01*
X0219500Y0241500D01*
X0241500Y0241500D02*
X0241502Y0241661D01*
X0241508Y0241821D01*
X0241518Y0241982D01*
X0241532Y0242142D01*
X0241550Y0242302D01*
X0241571Y0242461D01*
X0241597Y0242620D01*
X0241627Y0242778D01*
X0241660Y0242935D01*
X0241698Y0243092D01*
X0241739Y0243247D01*
X0241784Y0243401D01*
X0241833Y0243554D01*
X0241886Y0243706D01*
X0241942Y0243857D01*
X0242003Y0244006D01*
X0242066Y0244154D01*
X0242134Y0244300D01*
X0242205Y0244444D01*
X0242279Y0244586D01*
X0242357Y0244727D01*
X0242439Y0244865D01*
X0242524Y0245002D01*
X0242612Y0245136D01*
X0242704Y0245268D01*
X0242799Y0245398D01*
X0242897Y0245526D01*
X0242998Y0245651D01*
X0243102Y0245773D01*
X0243209Y0245893D01*
X0243319Y0246010D01*
X0243432Y0246125D01*
X0243548Y0246236D01*
X0243667Y0246345D01*
X0243788Y0246450D01*
X0243912Y0246553D01*
X0244038Y0246653D01*
X0244166Y0246749D01*
X0244297Y0246842D01*
X0244431Y0246932D01*
X0244566Y0247019D01*
X0244704Y0247102D01*
X0244843Y0247182D01*
X0244985Y0247258D01*
X0245128Y0247331D01*
X0245273Y0247400D01*
X0245420Y0247466D01*
X0245568Y0247528D01*
X0245718Y0247586D01*
X0245869Y0247641D01*
X0246022Y0247692D01*
X0246176Y0247739D01*
X0246331Y0247782D01*
X0246487Y0247821D01*
X0246643Y0247857D01*
X0246801Y0247888D01*
X0246959Y0247916D01*
X0247118Y0247940D01*
X0247278Y0247960D01*
X0247438Y0247976D01*
X0247598Y0247988D01*
X0247759Y0247996D01*
X0247920Y0248000D01*
X0248080Y0248000D01*
X0248241Y0247996D01*
X0248402Y0247988D01*
X0248562Y0247976D01*
X0248722Y0247960D01*
X0248882Y0247940D01*
X0249041Y0247916D01*
X0249199Y0247888D01*
X0249357Y0247857D01*
X0249513Y0247821D01*
X0249669Y0247782D01*
X0249824Y0247739D01*
X0249978Y0247692D01*
X0250131Y0247641D01*
X0250282Y0247586D01*
X0250432Y0247528D01*
X0250580Y0247466D01*
X0250727Y0247400D01*
X0250872Y0247331D01*
X0251015Y0247258D01*
X0251157Y0247182D01*
X0251296Y0247102D01*
X0251434Y0247019D01*
X0251569Y0246932D01*
X0251703Y0246842D01*
X0251834Y0246749D01*
X0251962Y0246653D01*
X0252088Y0246553D01*
X0252212Y0246450D01*
X0252333Y0246345D01*
X0252452Y0246236D01*
X0252568Y0246125D01*
X0252681Y0246010D01*
X0252791Y0245893D01*
X0252898Y0245773D01*
X0253002Y0245651D01*
X0253103Y0245526D01*
X0253201Y0245398D01*
X0253296Y0245268D01*
X0253388Y0245136D01*
X0253476Y0245002D01*
X0253561Y0244865D01*
X0253643Y0244727D01*
X0253721Y0244586D01*
X0253795Y0244444D01*
X0253866Y0244300D01*
X0253934Y0244154D01*
X0253997Y0244006D01*
X0254058Y0243857D01*
X0254114Y0243706D01*
X0254167Y0243554D01*
X0254216Y0243401D01*
X0254261Y0243247D01*
X0254302Y0243092D01*
X0254340Y0242935D01*
X0254373Y0242778D01*
X0254403Y0242620D01*
X0254429Y0242461D01*
X0254450Y0242302D01*
X0254468Y0242142D01*
X0254482Y0241982D01*
X0254492Y0241821D01*
X0254498Y0241661D01*
X0254500Y0241500D01*
X0254498Y0241339D01*
X0254492Y0241179D01*
X0254482Y0241018D01*
X0254468Y0240858D01*
X0254450Y0240698D01*
X0254429Y0240539D01*
X0254403Y0240380D01*
X0254373Y0240222D01*
X0254340Y0240065D01*
X0254302Y0239908D01*
X0254261Y0239753D01*
X0254216Y0239599D01*
X0254167Y0239446D01*
X0254114Y0239294D01*
X0254058Y0239143D01*
X0253997Y0238994D01*
X0253934Y0238846D01*
X0253866Y0238700D01*
X0253795Y0238556D01*
X0253721Y0238414D01*
X0253643Y0238273D01*
X0253561Y0238135D01*
X0253476Y0237998D01*
X0253388Y0237864D01*
X0253296Y0237732D01*
X0253201Y0237602D01*
X0253103Y0237474D01*
X0253002Y0237349D01*
X0252898Y0237227D01*
X0252791Y0237107D01*
X0252681Y0236990D01*
X0252568Y0236875D01*
X0252452Y0236764D01*
X0252333Y0236655D01*
X0252212Y0236550D01*
X0252088Y0236447D01*
X0251962Y0236347D01*
X0251834Y0236251D01*
X0251703Y0236158D01*
X0251569Y0236068D01*
X0251434Y0235981D01*
X0251296Y0235898D01*
X0251157Y0235818D01*
X0251015Y0235742D01*
X0250872Y0235669D01*
X0250727Y0235600D01*
X0250580Y0235534D01*
X0250432Y0235472D01*
X0250282Y0235414D01*
X0250131Y0235359D01*
X0249978Y0235308D01*
X0249824Y0235261D01*
X0249669Y0235218D01*
X0249513Y0235179D01*
X0249357Y0235143D01*
X0249199Y0235112D01*
X0249041Y0235084D01*
X0248882Y0235060D01*
X0248722Y0235040D01*
X0248562Y0235024D01*
X0248402Y0235012D01*
X0248241Y0235004D01*
X0248080Y0235000D01*
X0247920Y0235000D01*
X0247759Y0235004D01*
X0247598Y0235012D01*
X0247438Y0235024D01*
X0247278Y0235040D01*
X0247118Y0235060D01*
X0246959Y0235084D01*
X0246801Y0235112D01*
X0246643Y0235143D01*
X0246487Y0235179D01*
X0246331Y0235218D01*
X0246176Y0235261D01*
X0246022Y0235308D01*
X0245869Y0235359D01*
X0245718Y0235414D01*
X0245568Y0235472D01*
X0245420Y0235534D01*
X0245273Y0235600D01*
X0245128Y0235669D01*
X0244985Y0235742D01*
X0244843Y0235818D01*
X0244704Y0235898D01*
X0244566Y0235981D01*
X0244431Y0236068D01*
X0244297Y0236158D01*
X0244166Y0236251D01*
X0244038Y0236347D01*
X0243912Y0236447D01*
X0243788Y0236550D01*
X0243667Y0236655D01*
X0243548Y0236764D01*
X0243432Y0236875D01*
X0243319Y0236990D01*
X0243209Y0237107D01*
X0243102Y0237227D01*
X0242998Y0237349D01*
X0242897Y0237474D01*
X0242799Y0237602D01*
X0242704Y0237732D01*
X0242612Y0237864D01*
X0242524Y0237998D01*
X0242439Y0238135D01*
X0242357Y0238273D01*
X0242279Y0238414D01*
X0242205Y0238556D01*
X0242134Y0238700D01*
X0242066Y0238846D01*
X0242003Y0238994D01*
X0241942Y0239143D01*
X0241886Y0239294D01*
X0241833Y0239446D01*
X0241784Y0239599D01*
X0241739Y0239753D01*
X0241698Y0239908D01*
X0241660Y0240065D01*
X0241627Y0240222D01*
X0241597Y0240380D01*
X0241571Y0240539D01*
X0241550Y0240698D01*
X0241532Y0240858D01*
X0241518Y0241018D01*
X0241508Y0241179D01*
X0241502Y0241339D01*
X0241500Y0241500D01*
X0321500Y0241500D02*
X0321502Y0241661D01*
X0321508Y0241821D01*
X0321518Y0241982D01*
X0321532Y0242142D01*
X0321550Y0242302D01*
X0321571Y0242461D01*
X0321597Y0242620D01*
X0321627Y0242778D01*
X0321660Y0242935D01*
X0321698Y0243092D01*
X0321739Y0243247D01*
X0321784Y0243401D01*
X0321833Y0243554D01*
X0321886Y0243706D01*
X0321942Y0243857D01*
X0322003Y0244006D01*
X0322066Y0244154D01*
X0322134Y0244300D01*
X0322205Y0244444D01*
X0322279Y0244586D01*
X0322357Y0244727D01*
X0322439Y0244865D01*
X0322524Y0245002D01*
X0322612Y0245136D01*
X0322704Y0245268D01*
X0322799Y0245398D01*
X0322897Y0245526D01*
X0322998Y0245651D01*
X0323102Y0245773D01*
X0323209Y0245893D01*
X0323319Y0246010D01*
X0323432Y0246125D01*
X0323548Y0246236D01*
X0323667Y0246345D01*
X0323788Y0246450D01*
X0323912Y0246553D01*
X0324038Y0246653D01*
X0324166Y0246749D01*
X0324297Y0246842D01*
X0324431Y0246932D01*
X0324566Y0247019D01*
X0324704Y0247102D01*
X0324843Y0247182D01*
X0324985Y0247258D01*
X0325128Y0247331D01*
X0325273Y0247400D01*
X0325420Y0247466D01*
X0325568Y0247528D01*
X0325718Y0247586D01*
X0325869Y0247641D01*
X0326022Y0247692D01*
X0326176Y0247739D01*
X0326331Y0247782D01*
X0326487Y0247821D01*
X0326643Y0247857D01*
X0326801Y0247888D01*
X0326959Y0247916D01*
X0327118Y0247940D01*
X0327278Y0247960D01*
X0327438Y0247976D01*
X0327598Y0247988D01*
X0327759Y0247996D01*
X0327920Y0248000D01*
X0328080Y0248000D01*
X0328241Y0247996D01*
X0328402Y0247988D01*
X0328562Y0247976D01*
X0328722Y0247960D01*
X0328882Y0247940D01*
X0329041Y0247916D01*
X0329199Y0247888D01*
X0329357Y0247857D01*
X0329513Y0247821D01*
X0329669Y0247782D01*
X0329824Y0247739D01*
X0329978Y0247692D01*
X0330131Y0247641D01*
X0330282Y0247586D01*
X0330432Y0247528D01*
X0330580Y0247466D01*
X0330727Y0247400D01*
X0330872Y0247331D01*
X0331015Y0247258D01*
X0331157Y0247182D01*
X0331296Y0247102D01*
X0331434Y0247019D01*
X0331569Y0246932D01*
X0331703Y0246842D01*
X0331834Y0246749D01*
X0331962Y0246653D01*
X0332088Y0246553D01*
X0332212Y0246450D01*
X0332333Y0246345D01*
X0332452Y0246236D01*
X0332568Y0246125D01*
X0332681Y0246010D01*
X0332791Y0245893D01*
X0332898Y0245773D01*
X0333002Y0245651D01*
X0333103Y0245526D01*
X0333201Y0245398D01*
X0333296Y0245268D01*
X0333388Y0245136D01*
X0333476Y0245002D01*
X0333561Y0244865D01*
X0333643Y0244727D01*
X0333721Y0244586D01*
X0333795Y0244444D01*
X0333866Y0244300D01*
X0333934Y0244154D01*
X0333997Y0244006D01*
X0334058Y0243857D01*
X0334114Y0243706D01*
X0334167Y0243554D01*
X0334216Y0243401D01*
X0334261Y0243247D01*
X0334302Y0243092D01*
X0334340Y0242935D01*
X0334373Y0242778D01*
X0334403Y0242620D01*
X0334429Y0242461D01*
X0334450Y0242302D01*
X0334468Y0242142D01*
X0334482Y0241982D01*
X0334492Y0241821D01*
X0334498Y0241661D01*
X0334500Y0241500D01*
X0334498Y0241339D01*
X0334492Y0241179D01*
X0334482Y0241018D01*
X0334468Y0240858D01*
X0334450Y0240698D01*
X0334429Y0240539D01*
X0334403Y0240380D01*
X0334373Y0240222D01*
X0334340Y0240065D01*
X0334302Y0239908D01*
X0334261Y0239753D01*
X0334216Y0239599D01*
X0334167Y0239446D01*
X0334114Y0239294D01*
X0334058Y0239143D01*
X0333997Y0238994D01*
X0333934Y0238846D01*
X0333866Y0238700D01*
X0333795Y0238556D01*
X0333721Y0238414D01*
X0333643Y0238273D01*
X0333561Y0238135D01*
X0333476Y0237998D01*
X0333388Y0237864D01*
X0333296Y0237732D01*
X0333201Y0237602D01*
X0333103Y0237474D01*
X0333002Y0237349D01*
X0332898Y0237227D01*
X0332791Y0237107D01*
X0332681Y0236990D01*
X0332568Y0236875D01*
X0332452Y0236764D01*
X0332333Y0236655D01*
X0332212Y0236550D01*
X0332088Y0236447D01*
X0331962Y0236347D01*
X0331834Y0236251D01*
X0331703Y0236158D01*
X0331569Y0236068D01*
X0331434Y0235981D01*
X0331296Y0235898D01*
X0331157Y0235818D01*
X0331015Y0235742D01*
X0330872Y0235669D01*
X0330727Y0235600D01*
X0330580Y0235534D01*
X0330432Y0235472D01*
X0330282Y0235414D01*
X0330131Y0235359D01*
X0329978Y0235308D01*
X0329824Y0235261D01*
X0329669Y0235218D01*
X0329513Y0235179D01*
X0329357Y0235143D01*
X0329199Y0235112D01*
X0329041Y0235084D01*
X0328882Y0235060D01*
X0328722Y0235040D01*
X0328562Y0235024D01*
X0328402Y0235012D01*
X0328241Y0235004D01*
X0328080Y0235000D01*
X0327920Y0235000D01*
X0327759Y0235004D01*
X0327598Y0235012D01*
X0327438Y0235024D01*
X0327278Y0235040D01*
X0327118Y0235060D01*
X0326959Y0235084D01*
X0326801Y0235112D01*
X0326643Y0235143D01*
X0326487Y0235179D01*
X0326331Y0235218D01*
X0326176Y0235261D01*
X0326022Y0235308D01*
X0325869Y0235359D01*
X0325718Y0235414D01*
X0325568Y0235472D01*
X0325420Y0235534D01*
X0325273Y0235600D01*
X0325128Y0235669D01*
X0324985Y0235742D01*
X0324843Y0235818D01*
X0324704Y0235898D01*
X0324566Y0235981D01*
X0324431Y0236068D01*
X0324297Y0236158D01*
X0324166Y0236251D01*
X0324038Y0236347D01*
X0323912Y0236447D01*
X0323788Y0236550D01*
X0323667Y0236655D01*
X0323548Y0236764D01*
X0323432Y0236875D01*
X0323319Y0236990D01*
X0323209Y0237107D01*
X0323102Y0237227D01*
X0322998Y0237349D01*
X0322897Y0237474D01*
X0322799Y0237602D01*
X0322704Y0237732D01*
X0322612Y0237864D01*
X0322524Y0237998D01*
X0322439Y0238135D01*
X0322357Y0238273D01*
X0322279Y0238414D01*
X0322205Y0238556D01*
X0322134Y0238700D01*
X0322066Y0238846D01*
X0322003Y0238994D01*
X0321942Y0239143D01*
X0321886Y0239294D01*
X0321833Y0239446D01*
X0321784Y0239599D01*
X0321739Y0239753D01*
X0321698Y0239908D01*
X0321660Y0240065D01*
X0321627Y0240222D01*
X0321597Y0240380D01*
X0321571Y0240539D01*
X0321550Y0240698D01*
X0321532Y0240858D01*
X0321518Y0241018D01*
X0321508Y0241179D01*
X0321502Y0241339D01*
X0321500Y0241500D01*
X0321500Y0343500D02*
X0321502Y0343661D01*
X0321508Y0343821D01*
X0321518Y0343982D01*
X0321532Y0344142D01*
X0321550Y0344302D01*
X0321571Y0344461D01*
X0321597Y0344620D01*
X0321627Y0344778D01*
X0321660Y0344935D01*
X0321698Y0345092D01*
X0321739Y0345247D01*
X0321784Y0345401D01*
X0321833Y0345554D01*
X0321886Y0345706D01*
X0321942Y0345857D01*
X0322003Y0346006D01*
X0322066Y0346154D01*
X0322134Y0346300D01*
X0322205Y0346444D01*
X0322279Y0346586D01*
X0322357Y0346727D01*
X0322439Y0346865D01*
X0322524Y0347002D01*
X0322612Y0347136D01*
X0322704Y0347268D01*
X0322799Y0347398D01*
X0322897Y0347526D01*
X0322998Y0347651D01*
X0323102Y0347773D01*
X0323209Y0347893D01*
X0323319Y0348010D01*
X0323432Y0348125D01*
X0323548Y0348236D01*
X0323667Y0348345D01*
X0323788Y0348450D01*
X0323912Y0348553D01*
X0324038Y0348653D01*
X0324166Y0348749D01*
X0324297Y0348842D01*
X0324431Y0348932D01*
X0324566Y0349019D01*
X0324704Y0349102D01*
X0324843Y0349182D01*
X0324985Y0349258D01*
X0325128Y0349331D01*
X0325273Y0349400D01*
X0325420Y0349466D01*
X0325568Y0349528D01*
X0325718Y0349586D01*
X0325869Y0349641D01*
X0326022Y0349692D01*
X0326176Y0349739D01*
X0326331Y0349782D01*
X0326487Y0349821D01*
X0326643Y0349857D01*
X0326801Y0349888D01*
X0326959Y0349916D01*
X0327118Y0349940D01*
X0327278Y0349960D01*
X0327438Y0349976D01*
X0327598Y0349988D01*
X0327759Y0349996D01*
X0327920Y0350000D01*
X0328080Y0350000D01*
X0328241Y0349996D01*
X0328402Y0349988D01*
X0328562Y0349976D01*
X0328722Y0349960D01*
X0328882Y0349940D01*
X0329041Y0349916D01*
X0329199Y0349888D01*
X0329357Y0349857D01*
X0329513Y0349821D01*
X0329669Y0349782D01*
X0329824Y0349739D01*
X0329978Y0349692D01*
X0330131Y0349641D01*
X0330282Y0349586D01*
X0330432Y0349528D01*
X0330580Y0349466D01*
X0330727Y0349400D01*
X0330872Y0349331D01*
X0331015Y0349258D01*
X0331157Y0349182D01*
X0331296Y0349102D01*
X0331434Y0349019D01*
X0331569Y0348932D01*
X0331703Y0348842D01*
X0331834Y0348749D01*
X0331962Y0348653D01*
X0332088Y0348553D01*
X0332212Y0348450D01*
X0332333Y0348345D01*
X0332452Y0348236D01*
X0332568Y0348125D01*
X0332681Y0348010D01*
X0332791Y0347893D01*
X0332898Y0347773D01*
X0333002Y0347651D01*
X0333103Y0347526D01*
X0333201Y0347398D01*
X0333296Y0347268D01*
X0333388Y0347136D01*
X0333476Y0347002D01*
X0333561Y0346865D01*
X0333643Y0346727D01*
X0333721Y0346586D01*
X0333795Y0346444D01*
X0333866Y0346300D01*
X0333934Y0346154D01*
X0333997Y0346006D01*
X0334058Y0345857D01*
X0334114Y0345706D01*
X0334167Y0345554D01*
X0334216Y0345401D01*
X0334261Y0345247D01*
X0334302Y0345092D01*
X0334340Y0344935D01*
X0334373Y0344778D01*
X0334403Y0344620D01*
X0334429Y0344461D01*
X0334450Y0344302D01*
X0334468Y0344142D01*
X0334482Y0343982D01*
X0334492Y0343821D01*
X0334498Y0343661D01*
X0334500Y0343500D01*
X0334498Y0343339D01*
X0334492Y0343179D01*
X0334482Y0343018D01*
X0334468Y0342858D01*
X0334450Y0342698D01*
X0334429Y0342539D01*
X0334403Y0342380D01*
X0334373Y0342222D01*
X0334340Y0342065D01*
X0334302Y0341908D01*
X0334261Y0341753D01*
X0334216Y0341599D01*
X0334167Y0341446D01*
X0334114Y0341294D01*
X0334058Y0341143D01*
X0333997Y0340994D01*
X0333934Y0340846D01*
X0333866Y0340700D01*
X0333795Y0340556D01*
X0333721Y0340414D01*
X0333643Y0340273D01*
X0333561Y0340135D01*
X0333476Y0339998D01*
X0333388Y0339864D01*
X0333296Y0339732D01*
X0333201Y0339602D01*
X0333103Y0339474D01*
X0333002Y0339349D01*
X0332898Y0339227D01*
X0332791Y0339107D01*
X0332681Y0338990D01*
X0332568Y0338875D01*
X0332452Y0338764D01*
X0332333Y0338655D01*
X0332212Y0338550D01*
X0332088Y0338447D01*
X0331962Y0338347D01*
X0331834Y0338251D01*
X0331703Y0338158D01*
X0331569Y0338068D01*
X0331434Y0337981D01*
X0331296Y0337898D01*
X0331157Y0337818D01*
X0331015Y0337742D01*
X0330872Y0337669D01*
X0330727Y0337600D01*
X0330580Y0337534D01*
X0330432Y0337472D01*
X0330282Y0337414D01*
X0330131Y0337359D01*
X0329978Y0337308D01*
X0329824Y0337261D01*
X0329669Y0337218D01*
X0329513Y0337179D01*
X0329357Y0337143D01*
X0329199Y0337112D01*
X0329041Y0337084D01*
X0328882Y0337060D01*
X0328722Y0337040D01*
X0328562Y0337024D01*
X0328402Y0337012D01*
X0328241Y0337004D01*
X0328080Y0337000D01*
X0327920Y0337000D01*
X0327759Y0337004D01*
X0327598Y0337012D01*
X0327438Y0337024D01*
X0327278Y0337040D01*
X0327118Y0337060D01*
X0326959Y0337084D01*
X0326801Y0337112D01*
X0326643Y0337143D01*
X0326487Y0337179D01*
X0326331Y0337218D01*
X0326176Y0337261D01*
X0326022Y0337308D01*
X0325869Y0337359D01*
X0325718Y0337414D01*
X0325568Y0337472D01*
X0325420Y0337534D01*
X0325273Y0337600D01*
X0325128Y0337669D01*
X0324985Y0337742D01*
X0324843Y0337818D01*
X0324704Y0337898D01*
X0324566Y0337981D01*
X0324431Y0338068D01*
X0324297Y0338158D01*
X0324166Y0338251D01*
X0324038Y0338347D01*
X0323912Y0338447D01*
X0323788Y0338550D01*
X0323667Y0338655D01*
X0323548Y0338764D01*
X0323432Y0338875D01*
X0323319Y0338990D01*
X0323209Y0339107D01*
X0323102Y0339227D01*
X0322998Y0339349D01*
X0322897Y0339474D01*
X0322799Y0339602D01*
X0322704Y0339732D01*
X0322612Y0339864D01*
X0322524Y0339998D01*
X0322439Y0340135D01*
X0322357Y0340273D01*
X0322279Y0340414D01*
X0322205Y0340556D01*
X0322134Y0340700D01*
X0322066Y0340846D01*
X0322003Y0340994D01*
X0321942Y0341143D01*
X0321886Y0341294D01*
X0321833Y0341446D01*
X0321784Y0341599D01*
X0321739Y0341753D01*
X0321698Y0341908D01*
X0321660Y0342065D01*
X0321627Y0342222D01*
X0321597Y0342380D01*
X0321571Y0342539D01*
X0321550Y0342698D01*
X0321532Y0342858D01*
X0321518Y0343018D01*
X0321508Y0343179D01*
X0321502Y0343339D01*
X0321500Y0343500D01*
X0241500Y0343500D02*
X0241502Y0343661D01*
X0241508Y0343821D01*
X0241518Y0343982D01*
X0241532Y0344142D01*
X0241550Y0344302D01*
X0241571Y0344461D01*
X0241597Y0344620D01*
X0241627Y0344778D01*
X0241660Y0344935D01*
X0241698Y0345092D01*
X0241739Y0345247D01*
X0241784Y0345401D01*
X0241833Y0345554D01*
X0241886Y0345706D01*
X0241942Y0345857D01*
X0242003Y0346006D01*
X0242066Y0346154D01*
X0242134Y0346300D01*
X0242205Y0346444D01*
X0242279Y0346586D01*
X0242357Y0346727D01*
X0242439Y0346865D01*
X0242524Y0347002D01*
X0242612Y0347136D01*
X0242704Y0347268D01*
X0242799Y0347398D01*
X0242897Y0347526D01*
X0242998Y0347651D01*
X0243102Y0347773D01*
X0243209Y0347893D01*
X0243319Y0348010D01*
X0243432Y0348125D01*
X0243548Y0348236D01*
X0243667Y0348345D01*
X0243788Y0348450D01*
X0243912Y0348553D01*
X0244038Y0348653D01*
X0244166Y0348749D01*
X0244297Y0348842D01*
X0244431Y0348932D01*
X0244566Y0349019D01*
X0244704Y0349102D01*
X0244843Y0349182D01*
X0244985Y0349258D01*
X0245128Y0349331D01*
X0245273Y0349400D01*
X0245420Y0349466D01*
X0245568Y0349528D01*
X0245718Y0349586D01*
X0245869Y0349641D01*
X0246022Y0349692D01*
X0246176Y0349739D01*
X0246331Y0349782D01*
X0246487Y0349821D01*
X0246643Y0349857D01*
X0246801Y0349888D01*
X0246959Y0349916D01*
X0247118Y0349940D01*
X0247278Y0349960D01*
X0247438Y0349976D01*
X0247598Y0349988D01*
X0247759Y0349996D01*
X0247920Y0350000D01*
X0248080Y0350000D01*
X0248241Y0349996D01*
X0248402Y0349988D01*
X0248562Y0349976D01*
X0248722Y0349960D01*
X0248882Y0349940D01*
X0249041Y0349916D01*
X0249199Y0349888D01*
X0249357Y0349857D01*
X0249513Y0349821D01*
X0249669Y0349782D01*
X0249824Y0349739D01*
X0249978Y0349692D01*
X0250131Y0349641D01*
X0250282Y0349586D01*
X0250432Y0349528D01*
X0250580Y0349466D01*
X0250727Y0349400D01*
X0250872Y0349331D01*
X0251015Y0349258D01*
X0251157Y0349182D01*
X0251296Y0349102D01*
X0251434Y0349019D01*
X0251569Y0348932D01*
X0251703Y0348842D01*
X0251834Y0348749D01*
X0251962Y0348653D01*
X0252088Y0348553D01*
X0252212Y0348450D01*
X0252333Y0348345D01*
X0252452Y0348236D01*
X0252568Y0348125D01*
X0252681Y0348010D01*
X0252791Y0347893D01*
X0252898Y0347773D01*
X0253002Y0347651D01*
X0253103Y0347526D01*
X0253201Y0347398D01*
X0253296Y0347268D01*
X0253388Y0347136D01*
X0253476Y0347002D01*
X0253561Y0346865D01*
X0253643Y0346727D01*
X0253721Y0346586D01*
X0253795Y0346444D01*
X0253866Y0346300D01*
X0253934Y0346154D01*
X0253997Y0346006D01*
X0254058Y0345857D01*
X0254114Y0345706D01*
X0254167Y0345554D01*
X0254216Y0345401D01*
X0254261Y0345247D01*
X0254302Y0345092D01*
X0254340Y0344935D01*
X0254373Y0344778D01*
X0254403Y0344620D01*
X0254429Y0344461D01*
X0254450Y0344302D01*
X0254468Y0344142D01*
X0254482Y0343982D01*
X0254492Y0343821D01*
X0254498Y0343661D01*
X0254500Y0343500D01*
X0254498Y0343339D01*
X0254492Y0343179D01*
X0254482Y0343018D01*
X0254468Y0342858D01*
X0254450Y0342698D01*
X0254429Y0342539D01*
X0254403Y0342380D01*
X0254373Y0342222D01*
X0254340Y0342065D01*
X0254302Y0341908D01*
X0254261Y0341753D01*
X0254216Y0341599D01*
X0254167Y0341446D01*
X0254114Y0341294D01*
X0254058Y0341143D01*
X0253997Y0340994D01*
X0253934Y0340846D01*
X0253866Y0340700D01*
X0253795Y0340556D01*
X0253721Y0340414D01*
X0253643Y0340273D01*
X0253561Y0340135D01*
X0253476Y0339998D01*
X0253388Y0339864D01*
X0253296Y0339732D01*
X0253201Y0339602D01*
X0253103Y0339474D01*
X0253002Y0339349D01*
X0252898Y0339227D01*
X0252791Y0339107D01*
X0252681Y0338990D01*
X0252568Y0338875D01*
X0252452Y0338764D01*
X0252333Y0338655D01*
X0252212Y0338550D01*
X0252088Y0338447D01*
X0251962Y0338347D01*
X0251834Y0338251D01*
X0251703Y0338158D01*
X0251569Y0338068D01*
X0251434Y0337981D01*
X0251296Y0337898D01*
X0251157Y0337818D01*
X0251015Y0337742D01*
X0250872Y0337669D01*
X0250727Y0337600D01*
X0250580Y0337534D01*
X0250432Y0337472D01*
X0250282Y0337414D01*
X0250131Y0337359D01*
X0249978Y0337308D01*
X0249824Y0337261D01*
X0249669Y0337218D01*
X0249513Y0337179D01*
X0249357Y0337143D01*
X0249199Y0337112D01*
X0249041Y0337084D01*
X0248882Y0337060D01*
X0248722Y0337040D01*
X0248562Y0337024D01*
X0248402Y0337012D01*
X0248241Y0337004D01*
X0248080Y0337000D01*
X0247920Y0337000D01*
X0247759Y0337004D01*
X0247598Y0337012D01*
X0247438Y0337024D01*
X0247278Y0337040D01*
X0247118Y0337060D01*
X0246959Y0337084D01*
X0246801Y0337112D01*
X0246643Y0337143D01*
X0246487Y0337179D01*
X0246331Y0337218D01*
X0246176Y0337261D01*
X0246022Y0337308D01*
X0245869Y0337359D01*
X0245718Y0337414D01*
X0245568Y0337472D01*
X0245420Y0337534D01*
X0245273Y0337600D01*
X0245128Y0337669D01*
X0244985Y0337742D01*
X0244843Y0337818D01*
X0244704Y0337898D01*
X0244566Y0337981D01*
X0244431Y0338068D01*
X0244297Y0338158D01*
X0244166Y0338251D01*
X0244038Y0338347D01*
X0243912Y0338447D01*
X0243788Y0338550D01*
X0243667Y0338655D01*
X0243548Y0338764D01*
X0243432Y0338875D01*
X0243319Y0338990D01*
X0243209Y0339107D01*
X0243102Y0339227D01*
X0242998Y0339349D01*
X0242897Y0339474D01*
X0242799Y0339602D01*
X0242704Y0339732D01*
X0242612Y0339864D01*
X0242524Y0339998D01*
X0242439Y0340135D01*
X0242357Y0340273D01*
X0242279Y0340414D01*
X0242205Y0340556D01*
X0242134Y0340700D01*
X0242066Y0340846D01*
X0242003Y0340994D01*
X0241942Y0341143D01*
X0241886Y0341294D01*
X0241833Y0341446D01*
X0241784Y0341599D01*
X0241739Y0341753D01*
X0241698Y0341908D01*
X0241660Y0342065D01*
X0241627Y0342222D01*
X0241597Y0342380D01*
X0241571Y0342539D01*
X0241550Y0342698D01*
X0241532Y0342858D01*
X0241518Y0343018D01*
X0241508Y0343179D01*
X0241502Y0343339D01*
X0241500Y0343500D01*
X0219500Y0343500D02*
X0219502Y0343661D01*
X0219508Y0343821D01*
X0219518Y0343982D01*
X0219532Y0344142D01*
X0219550Y0344302D01*
X0219571Y0344461D01*
X0219597Y0344620D01*
X0219627Y0344778D01*
X0219660Y0344935D01*
X0219698Y0345092D01*
X0219739Y0345247D01*
X0219784Y0345401D01*
X0219833Y0345554D01*
X0219886Y0345706D01*
X0219942Y0345857D01*
X0220003Y0346006D01*
X0220066Y0346154D01*
X0220134Y0346300D01*
X0220205Y0346444D01*
X0220279Y0346586D01*
X0220357Y0346727D01*
X0220439Y0346865D01*
X0220524Y0347002D01*
X0220612Y0347136D01*
X0220704Y0347268D01*
X0220799Y0347398D01*
X0220897Y0347526D01*
X0220998Y0347651D01*
X0221102Y0347773D01*
X0221209Y0347893D01*
X0221319Y0348010D01*
X0221432Y0348125D01*
X0221548Y0348236D01*
X0221667Y0348345D01*
X0221788Y0348450D01*
X0221912Y0348553D01*
X0222038Y0348653D01*
X0222166Y0348749D01*
X0222297Y0348842D01*
X0222431Y0348932D01*
X0222566Y0349019D01*
X0222704Y0349102D01*
X0222843Y0349182D01*
X0222985Y0349258D01*
X0223128Y0349331D01*
X0223273Y0349400D01*
X0223420Y0349466D01*
X0223568Y0349528D01*
X0223718Y0349586D01*
X0223869Y0349641D01*
X0224022Y0349692D01*
X0224176Y0349739D01*
X0224331Y0349782D01*
X0224487Y0349821D01*
X0224643Y0349857D01*
X0224801Y0349888D01*
X0224959Y0349916D01*
X0225118Y0349940D01*
X0225278Y0349960D01*
X0225438Y0349976D01*
X0225598Y0349988D01*
X0225759Y0349996D01*
X0225920Y0350000D01*
X0226080Y0350000D01*
X0226241Y0349996D01*
X0226402Y0349988D01*
X0226562Y0349976D01*
X0226722Y0349960D01*
X0226882Y0349940D01*
X0227041Y0349916D01*
X0227199Y0349888D01*
X0227357Y0349857D01*
X0227513Y0349821D01*
X0227669Y0349782D01*
X0227824Y0349739D01*
X0227978Y0349692D01*
X0228131Y0349641D01*
X0228282Y0349586D01*
X0228432Y0349528D01*
X0228580Y0349466D01*
X0228727Y0349400D01*
X0228872Y0349331D01*
X0229015Y0349258D01*
X0229157Y0349182D01*
X0229296Y0349102D01*
X0229434Y0349019D01*
X0229569Y0348932D01*
X0229703Y0348842D01*
X0229834Y0348749D01*
X0229962Y0348653D01*
X0230088Y0348553D01*
X0230212Y0348450D01*
X0230333Y0348345D01*
X0230452Y0348236D01*
X0230568Y0348125D01*
X0230681Y0348010D01*
X0230791Y0347893D01*
X0230898Y0347773D01*
X0231002Y0347651D01*
X0231103Y0347526D01*
X0231201Y0347398D01*
X0231296Y0347268D01*
X0231388Y0347136D01*
X0231476Y0347002D01*
X0231561Y0346865D01*
X0231643Y0346727D01*
X0231721Y0346586D01*
X0231795Y0346444D01*
X0231866Y0346300D01*
X0231934Y0346154D01*
X0231997Y0346006D01*
X0232058Y0345857D01*
X0232114Y0345706D01*
X0232167Y0345554D01*
X0232216Y0345401D01*
X0232261Y0345247D01*
X0232302Y0345092D01*
X0232340Y0344935D01*
X0232373Y0344778D01*
X0232403Y0344620D01*
X0232429Y0344461D01*
X0232450Y0344302D01*
X0232468Y0344142D01*
X0232482Y0343982D01*
X0232492Y0343821D01*
X0232498Y0343661D01*
X0232500Y0343500D01*
X0232498Y0343339D01*
X0232492Y0343179D01*
X0232482Y0343018D01*
X0232468Y0342858D01*
X0232450Y0342698D01*
X0232429Y0342539D01*
X0232403Y0342380D01*
X0232373Y0342222D01*
X0232340Y0342065D01*
X0232302Y0341908D01*
X0232261Y0341753D01*
X0232216Y0341599D01*
X0232167Y0341446D01*
X0232114Y0341294D01*
X0232058Y0341143D01*
X0231997Y0340994D01*
X0231934Y0340846D01*
X0231866Y0340700D01*
X0231795Y0340556D01*
X0231721Y0340414D01*
X0231643Y0340273D01*
X0231561Y0340135D01*
X0231476Y0339998D01*
X0231388Y0339864D01*
X0231296Y0339732D01*
X0231201Y0339602D01*
X0231103Y0339474D01*
X0231002Y0339349D01*
X0230898Y0339227D01*
X0230791Y0339107D01*
X0230681Y0338990D01*
X0230568Y0338875D01*
X0230452Y0338764D01*
X0230333Y0338655D01*
X0230212Y0338550D01*
X0230088Y0338447D01*
X0229962Y0338347D01*
X0229834Y0338251D01*
X0229703Y0338158D01*
X0229569Y0338068D01*
X0229434Y0337981D01*
X0229296Y0337898D01*
X0229157Y0337818D01*
X0229015Y0337742D01*
X0228872Y0337669D01*
X0228727Y0337600D01*
X0228580Y0337534D01*
X0228432Y0337472D01*
X0228282Y0337414D01*
X0228131Y0337359D01*
X0227978Y0337308D01*
X0227824Y0337261D01*
X0227669Y0337218D01*
X0227513Y0337179D01*
X0227357Y0337143D01*
X0227199Y0337112D01*
X0227041Y0337084D01*
X0226882Y0337060D01*
X0226722Y0337040D01*
X0226562Y0337024D01*
X0226402Y0337012D01*
X0226241Y0337004D01*
X0226080Y0337000D01*
X0225920Y0337000D01*
X0225759Y0337004D01*
X0225598Y0337012D01*
X0225438Y0337024D01*
X0225278Y0337040D01*
X0225118Y0337060D01*
X0224959Y0337084D01*
X0224801Y0337112D01*
X0224643Y0337143D01*
X0224487Y0337179D01*
X0224331Y0337218D01*
X0224176Y0337261D01*
X0224022Y0337308D01*
X0223869Y0337359D01*
X0223718Y0337414D01*
X0223568Y0337472D01*
X0223420Y0337534D01*
X0223273Y0337600D01*
X0223128Y0337669D01*
X0222985Y0337742D01*
X0222843Y0337818D01*
X0222704Y0337898D01*
X0222566Y0337981D01*
X0222431Y0338068D01*
X0222297Y0338158D01*
X0222166Y0338251D01*
X0222038Y0338347D01*
X0221912Y0338447D01*
X0221788Y0338550D01*
X0221667Y0338655D01*
X0221548Y0338764D01*
X0221432Y0338875D01*
X0221319Y0338990D01*
X0221209Y0339107D01*
X0221102Y0339227D01*
X0220998Y0339349D01*
X0220897Y0339474D01*
X0220799Y0339602D01*
X0220704Y0339732D01*
X0220612Y0339864D01*
X0220524Y0339998D01*
X0220439Y0340135D01*
X0220357Y0340273D01*
X0220279Y0340414D01*
X0220205Y0340556D01*
X0220134Y0340700D01*
X0220066Y0340846D01*
X0220003Y0340994D01*
X0219942Y0341143D01*
X0219886Y0341294D01*
X0219833Y0341446D01*
X0219784Y0341599D01*
X0219739Y0341753D01*
X0219698Y0341908D01*
X0219660Y0342065D01*
X0219627Y0342222D01*
X0219597Y0342380D01*
X0219571Y0342539D01*
X0219550Y0342698D01*
X0219532Y0342858D01*
X0219518Y0343018D01*
X0219508Y0343179D01*
X0219502Y0343339D01*
X0219500Y0343500D01*
X0139500Y0343500D02*
X0139502Y0343661D01*
X0139508Y0343821D01*
X0139518Y0343982D01*
X0139532Y0344142D01*
X0139550Y0344302D01*
X0139571Y0344461D01*
X0139597Y0344620D01*
X0139627Y0344778D01*
X0139660Y0344935D01*
X0139698Y0345092D01*
X0139739Y0345247D01*
X0139784Y0345401D01*
X0139833Y0345554D01*
X0139886Y0345706D01*
X0139942Y0345857D01*
X0140003Y0346006D01*
X0140066Y0346154D01*
X0140134Y0346300D01*
X0140205Y0346444D01*
X0140279Y0346586D01*
X0140357Y0346727D01*
X0140439Y0346865D01*
X0140524Y0347002D01*
X0140612Y0347136D01*
X0140704Y0347268D01*
X0140799Y0347398D01*
X0140897Y0347526D01*
X0140998Y0347651D01*
X0141102Y0347773D01*
X0141209Y0347893D01*
X0141319Y0348010D01*
X0141432Y0348125D01*
X0141548Y0348236D01*
X0141667Y0348345D01*
X0141788Y0348450D01*
X0141912Y0348553D01*
X0142038Y0348653D01*
X0142166Y0348749D01*
X0142297Y0348842D01*
X0142431Y0348932D01*
X0142566Y0349019D01*
X0142704Y0349102D01*
X0142843Y0349182D01*
X0142985Y0349258D01*
X0143128Y0349331D01*
X0143273Y0349400D01*
X0143420Y0349466D01*
X0143568Y0349528D01*
X0143718Y0349586D01*
X0143869Y0349641D01*
X0144022Y0349692D01*
X0144176Y0349739D01*
X0144331Y0349782D01*
X0144487Y0349821D01*
X0144643Y0349857D01*
X0144801Y0349888D01*
X0144959Y0349916D01*
X0145118Y0349940D01*
X0145278Y0349960D01*
X0145438Y0349976D01*
X0145598Y0349988D01*
X0145759Y0349996D01*
X0145920Y0350000D01*
X0146080Y0350000D01*
X0146241Y0349996D01*
X0146402Y0349988D01*
X0146562Y0349976D01*
X0146722Y0349960D01*
X0146882Y0349940D01*
X0147041Y0349916D01*
X0147199Y0349888D01*
X0147357Y0349857D01*
X0147513Y0349821D01*
X0147669Y0349782D01*
X0147824Y0349739D01*
X0147978Y0349692D01*
X0148131Y0349641D01*
X0148282Y0349586D01*
X0148432Y0349528D01*
X0148580Y0349466D01*
X0148727Y0349400D01*
X0148872Y0349331D01*
X0149015Y0349258D01*
X0149157Y0349182D01*
X0149296Y0349102D01*
X0149434Y0349019D01*
X0149569Y0348932D01*
X0149703Y0348842D01*
X0149834Y0348749D01*
X0149962Y0348653D01*
X0150088Y0348553D01*
X0150212Y0348450D01*
X0150333Y0348345D01*
X0150452Y0348236D01*
X0150568Y0348125D01*
X0150681Y0348010D01*
X0150791Y0347893D01*
X0150898Y0347773D01*
X0151002Y0347651D01*
X0151103Y0347526D01*
X0151201Y0347398D01*
X0151296Y0347268D01*
X0151388Y0347136D01*
X0151476Y0347002D01*
X0151561Y0346865D01*
X0151643Y0346727D01*
X0151721Y0346586D01*
X0151795Y0346444D01*
X0151866Y0346300D01*
X0151934Y0346154D01*
X0151997Y0346006D01*
X0152058Y0345857D01*
X0152114Y0345706D01*
X0152167Y0345554D01*
X0152216Y0345401D01*
X0152261Y0345247D01*
X0152302Y0345092D01*
X0152340Y0344935D01*
X0152373Y0344778D01*
X0152403Y0344620D01*
X0152429Y0344461D01*
X0152450Y0344302D01*
X0152468Y0344142D01*
X0152482Y0343982D01*
X0152492Y0343821D01*
X0152498Y0343661D01*
X0152500Y0343500D01*
X0152498Y0343339D01*
X0152492Y0343179D01*
X0152482Y0343018D01*
X0152468Y0342858D01*
X0152450Y0342698D01*
X0152429Y0342539D01*
X0152403Y0342380D01*
X0152373Y0342222D01*
X0152340Y0342065D01*
X0152302Y0341908D01*
X0152261Y0341753D01*
X0152216Y0341599D01*
X0152167Y0341446D01*
X0152114Y0341294D01*
X0152058Y0341143D01*
X0151997Y0340994D01*
X0151934Y0340846D01*
X0151866Y0340700D01*
X0151795Y0340556D01*
X0151721Y0340414D01*
X0151643Y0340273D01*
X0151561Y0340135D01*
X0151476Y0339998D01*
X0151388Y0339864D01*
X0151296Y0339732D01*
X0151201Y0339602D01*
X0151103Y0339474D01*
X0151002Y0339349D01*
X0150898Y0339227D01*
X0150791Y0339107D01*
X0150681Y0338990D01*
X0150568Y0338875D01*
X0150452Y0338764D01*
X0150333Y0338655D01*
X0150212Y0338550D01*
X0150088Y0338447D01*
X0149962Y0338347D01*
X0149834Y0338251D01*
X0149703Y0338158D01*
X0149569Y0338068D01*
X0149434Y0337981D01*
X0149296Y0337898D01*
X0149157Y0337818D01*
X0149015Y0337742D01*
X0148872Y0337669D01*
X0148727Y0337600D01*
X0148580Y0337534D01*
X0148432Y0337472D01*
X0148282Y0337414D01*
X0148131Y0337359D01*
X0147978Y0337308D01*
X0147824Y0337261D01*
X0147669Y0337218D01*
X0147513Y0337179D01*
X0147357Y0337143D01*
X0147199Y0337112D01*
X0147041Y0337084D01*
X0146882Y0337060D01*
X0146722Y0337040D01*
X0146562Y0337024D01*
X0146402Y0337012D01*
X0146241Y0337004D01*
X0146080Y0337000D01*
X0145920Y0337000D01*
X0145759Y0337004D01*
X0145598Y0337012D01*
X0145438Y0337024D01*
X0145278Y0337040D01*
X0145118Y0337060D01*
X0144959Y0337084D01*
X0144801Y0337112D01*
X0144643Y0337143D01*
X0144487Y0337179D01*
X0144331Y0337218D01*
X0144176Y0337261D01*
X0144022Y0337308D01*
X0143869Y0337359D01*
X0143718Y0337414D01*
X0143568Y0337472D01*
X0143420Y0337534D01*
X0143273Y0337600D01*
X0143128Y0337669D01*
X0142985Y0337742D01*
X0142843Y0337818D01*
X0142704Y0337898D01*
X0142566Y0337981D01*
X0142431Y0338068D01*
X0142297Y0338158D01*
X0142166Y0338251D01*
X0142038Y0338347D01*
X0141912Y0338447D01*
X0141788Y0338550D01*
X0141667Y0338655D01*
X0141548Y0338764D01*
X0141432Y0338875D01*
X0141319Y0338990D01*
X0141209Y0339107D01*
X0141102Y0339227D01*
X0140998Y0339349D01*
X0140897Y0339474D01*
X0140799Y0339602D01*
X0140704Y0339732D01*
X0140612Y0339864D01*
X0140524Y0339998D01*
X0140439Y0340135D01*
X0140357Y0340273D01*
X0140279Y0340414D01*
X0140205Y0340556D01*
X0140134Y0340700D01*
X0140066Y0340846D01*
X0140003Y0340994D01*
X0139942Y0341143D01*
X0139886Y0341294D01*
X0139833Y0341446D01*
X0139784Y0341599D01*
X0139739Y0341753D01*
X0139698Y0341908D01*
X0139660Y0342065D01*
X0139627Y0342222D01*
X0139597Y0342380D01*
X0139571Y0342539D01*
X0139550Y0342698D01*
X0139532Y0342858D01*
X0139518Y0343018D01*
X0139508Y0343179D01*
X0139502Y0343339D01*
X0139500Y0343500D01*
X0117500Y0343500D02*
X0117502Y0343661D01*
X0117508Y0343821D01*
X0117518Y0343982D01*
X0117532Y0344142D01*
X0117550Y0344302D01*
X0117571Y0344461D01*
X0117597Y0344620D01*
X0117627Y0344778D01*
X0117660Y0344935D01*
X0117698Y0345092D01*
X0117739Y0345247D01*
X0117784Y0345401D01*
X0117833Y0345554D01*
X0117886Y0345706D01*
X0117942Y0345857D01*
X0118003Y0346006D01*
X0118066Y0346154D01*
X0118134Y0346300D01*
X0118205Y0346444D01*
X0118279Y0346586D01*
X0118357Y0346727D01*
X0118439Y0346865D01*
X0118524Y0347002D01*
X0118612Y0347136D01*
X0118704Y0347268D01*
X0118799Y0347398D01*
X0118897Y0347526D01*
X0118998Y0347651D01*
X0119102Y0347773D01*
X0119209Y0347893D01*
X0119319Y0348010D01*
X0119432Y0348125D01*
X0119548Y0348236D01*
X0119667Y0348345D01*
X0119788Y0348450D01*
X0119912Y0348553D01*
X0120038Y0348653D01*
X0120166Y0348749D01*
X0120297Y0348842D01*
X0120431Y0348932D01*
X0120566Y0349019D01*
X0120704Y0349102D01*
X0120843Y0349182D01*
X0120985Y0349258D01*
X0121128Y0349331D01*
X0121273Y0349400D01*
X0121420Y0349466D01*
X0121568Y0349528D01*
X0121718Y0349586D01*
X0121869Y0349641D01*
X0122022Y0349692D01*
X0122176Y0349739D01*
X0122331Y0349782D01*
X0122487Y0349821D01*
X0122643Y0349857D01*
X0122801Y0349888D01*
X0122959Y0349916D01*
X0123118Y0349940D01*
X0123278Y0349960D01*
X0123438Y0349976D01*
X0123598Y0349988D01*
X0123759Y0349996D01*
X0123920Y0350000D01*
X0124080Y0350000D01*
X0124241Y0349996D01*
X0124402Y0349988D01*
X0124562Y0349976D01*
X0124722Y0349960D01*
X0124882Y0349940D01*
X0125041Y0349916D01*
X0125199Y0349888D01*
X0125357Y0349857D01*
X0125513Y0349821D01*
X0125669Y0349782D01*
X0125824Y0349739D01*
X0125978Y0349692D01*
X0126131Y0349641D01*
X0126282Y0349586D01*
X0126432Y0349528D01*
X0126580Y0349466D01*
X0126727Y0349400D01*
X0126872Y0349331D01*
X0127015Y0349258D01*
X0127157Y0349182D01*
X0127296Y0349102D01*
X0127434Y0349019D01*
X0127569Y0348932D01*
X0127703Y0348842D01*
X0127834Y0348749D01*
X0127962Y0348653D01*
X0128088Y0348553D01*
X0128212Y0348450D01*
X0128333Y0348345D01*
X0128452Y0348236D01*
X0128568Y0348125D01*
X0128681Y0348010D01*
X0128791Y0347893D01*
X0128898Y0347773D01*
X0129002Y0347651D01*
X0129103Y0347526D01*
X0129201Y0347398D01*
X0129296Y0347268D01*
X0129388Y0347136D01*
X0129476Y0347002D01*
X0129561Y0346865D01*
X0129643Y0346727D01*
X0129721Y0346586D01*
X0129795Y0346444D01*
X0129866Y0346300D01*
X0129934Y0346154D01*
X0129997Y0346006D01*
X0130058Y0345857D01*
X0130114Y0345706D01*
X0130167Y0345554D01*
X0130216Y0345401D01*
X0130261Y0345247D01*
X0130302Y0345092D01*
X0130340Y0344935D01*
X0130373Y0344778D01*
X0130403Y0344620D01*
X0130429Y0344461D01*
X0130450Y0344302D01*
X0130468Y0344142D01*
X0130482Y0343982D01*
X0130492Y0343821D01*
X0130498Y0343661D01*
X0130500Y0343500D01*
X0130498Y0343339D01*
X0130492Y0343179D01*
X0130482Y0343018D01*
X0130468Y0342858D01*
X0130450Y0342698D01*
X0130429Y0342539D01*
X0130403Y0342380D01*
X0130373Y0342222D01*
X0130340Y0342065D01*
X0130302Y0341908D01*
X0130261Y0341753D01*
X0130216Y0341599D01*
X0130167Y0341446D01*
X0130114Y0341294D01*
X0130058Y0341143D01*
X0129997Y0340994D01*
X0129934Y0340846D01*
X0129866Y0340700D01*
X0129795Y0340556D01*
X0129721Y0340414D01*
X0129643Y0340273D01*
X0129561Y0340135D01*
X0129476Y0339998D01*
X0129388Y0339864D01*
X0129296Y0339732D01*
X0129201Y0339602D01*
X0129103Y0339474D01*
X0129002Y0339349D01*
X0128898Y0339227D01*
X0128791Y0339107D01*
X0128681Y0338990D01*
X0128568Y0338875D01*
X0128452Y0338764D01*
X0128333Y0338655D01*
X0128212Y0338550D01*
X0128088Y0338447D01*
X0127962Y0338347D01*
X0127834Y0338251D01*
X0127703Y0338158D01*
X0127569Y0338068D01*
X0127434Y0337981D01*
X0127296Y0337898D01*
X0127157Y0337818D01*
X0127015Y0337742D01*
X0126872Y0337669D01*
X0126727Y0337600D01*
X0126580Y0337534D01*
X0126432Y0337472D01*
X0126282Y0337414D01*
X0126131Y0337359D01*
X0125978Y0337308D01*
X0125824Y0337261D01*
X0125669Y0337218D01*
X0125513Y0337179D01*
X0125357Y0337143D01*
X0125199Y0337112D01*
X0125041Y0337084D01*
X0124882Y0337060D01*
X0124722Y0337040D01*
X0124562Y0337024D01*
X0124402Y0337012D01*
X0124241Y0337004D01*
X0124080Y0337000D01*
X0123920Y0337000D01*
X0123759Y0337004D01*
X0123598Y0337012D01*
X0123438Y0337024D01*
X0123278Y0337040D01*
X0123118Y0337060D01*
X0122959Y0337084D01*
X0122801Y0337112D01*
X0122643Y0337143D01*
X0122487Y0337179D01*
X0122331Y0337218D01*
X0122176Y0337261D01*
X0122022Y0337308D01*
X0121869Y0337359D01*
X0121718Y0337414D01*
X0121568Y0337472D01*
X0121420Y0337534D01*
X0121273Y0337600D01*
X0121128Y0337669D01*
X0120985Y0337742D01*
X0120843Y0337818D01*
X0120704Y0337898D01*
X0120566Y0337981D01*
X0120431Y0338068D01*
X0120297Y0338158D01*
X0120166Y0338251D01*
X0120038Y0338347D01*
X0119912Y0338447D01*
X0119788Y0338550D01*
X0119667Y0338655D01*
X0119548Y0338764D01*
X0119432Y0338875D01*
X0119319Y0338990D01*
X0119209Y0339107D01*
X0119102Y0339227D01*
X0118998Y0339349D01*
X0118897Y0339474D01*
X0118799Y0339602D01*
X0118704Y0339732D01*
X0118612Y0339864D01*
X0118524Y0339998D01*
X0118439Y0340135D01*
X0118357Y0340273D01*
X0118279Y0340414D01*
X0118205Y0340556D01*
X0118134Y0340700D01*
X0118066Y0340846D01*
X0118003Y0340994D01*
X0117942Y0341143D01*
X0117886Y0341294D01*
X0117833Y0341446D01*
X0117784Y0341599D01*
X0117739Y0341753D01*
X0117698Y0341908D01*
X0117660Y0342065D01*
X0117627Y0342222D01*
X0117597Y0342380D01*
X0117571Y0342539D01*
X0117550Y0342698D01*
X0117532Y0342858D01*
X0117518Y0343018D01*
X0117508Y0343179D01*
X0117502Y0343339D01*
X0117500Y0343500D01*
X0037500Y0343500D02*
X0037502Y0343661D01*
X0037508Y0343821D01*
X0037518Y0343982D01*
X0037532Y0344142D01*
X0037550Y0344302D01*
X0037571Y0344461D01*
X0037597Y0344620D01*
X0037627Y0344778D01*
X0037660Y0344935D01*
X0037698Y0345092D01*
X0037739Y0345247D01*
X0037784Y0345401D01*
X0037833Y0345554D01*
X0037886Y0345706D01*
X0037942Y0345857D01*
X0038003Y0346006D01*
X0038066Y0346154D01*
X0038134Y0346300D01*
X0038205Y0346444D01*
X0038279Y0346586D01*
X0038357Y0346727D01*
X0038439Y0346865D01*
X0038524Y0347002D01*
X0038612Y0347136D01*
X0038704Y0347268D01*
X0038799Y0347398D01*
X0038897Y0347526D01*
X0038998Y0347651D01*
X0039102Y0347773D01*
X0039209Y0347893D01*
X0039319Y0348010D01*
X0039432Y0348125D01*
X0039548Y0348236D01*
X0039667Y0348345D01*
X0039788Y0348450D01*
X0039912Y0348553D01*
X0040038Y0348653D01*
X0040166Y0348749D01*
X0040297Y0348842D01*
X0040431Y0348932D01*
X0040566Y0349019D01*
X0040704Y0349102D01*
X0040843Y0349182D01*
X0040985Y0349258D01*
X0041128Y0349331D01*
X0041273Y0349400D01*
X0041420Y0349466D01*
X0041568Y0349528D01*
X0041718Y0349586D01*
X0041869Y0349641D01*
X0042022Y0349692D01*
X0042176Y0349739D01*
X0042331Y0349782D01*
X0042487Y0349821D01*
X0042643Y0349857D01*
X0042801Y0349888D01*
X0042959Y0349916D01*
X0043118Y0349940D01*
X0043278Y0349960D01*
X0043438Y0349976D01*
X0043598Y0349988D01*
X0043759Y0349996D01*
X0043920Y0350000D01*
X0044080Y0350000D01*
X0044241Y0349996D01*
X0044402Y0349988D01*
X0044562Y0349976D01*
X0044722Y0349960D01*
X0044882Y0349940D01*
X0045041Y0349916D01*
X0045199Y0349888D01*
X0045357Y0349857D01*
X0045513Y0349821D01*
X0045669Y0349782D01*
X0045824Y0349739D01*
X0045978Y0349692D01*
X0046131Y0349641D01*
X0046282Y0349586D01*
X0046432Y0349528D01*
X0046580Y0349466D01*
X0046727Y0349400D01*
X0046872Y0349331D01*
X0047015Y0349258D01*
X0047157Y0349182D01*
X0047296Y0349102D01*
X0047434Y0349019D01*
X0047569Y0348932D01*
X0047703Y0348842D01*
X0047834Y0348749D01*
X0047962Y0348653D01*
X0048088Y0348553D01*
X0048212Y0348450D01*
X0048333Y0348345D01*
X0048452Y0348236D01*
X0048568Y0348125D01*
X0048681Y0348010D01*
X0048791Y0347893D01*
X0048898Y0347773D01*
X0049002Y0347651D01*
X0049103Y0347526D01*
X0049201Y0347398D01*
X0049296Y0347268D01*
X0049388Y0347136D01*
X0049476Y0347002D01*
X0049561Y0346865D01*
X0049643Y0346727D01*
X0049721Y0346586D01*
X0049795Y0346444D01*
X0049866Y0346300D01*
X0049934Y0346154D01*
X0049997Y0346006D01*
X0050058Y0345857D01*
X0050114Y0345706D01*
X0050167Y0345554D01*
X0050216Y0345401D01*
X0050261Y0345247D01*
X0050302Y0345092D01*
X0050340Y0344935D01*
X0050373Y0344778D01*
X0050403Y0344620D01*
X0050429Y0344461D01*
X0050450Y0344302D01*
X0050468Y0344142D01*
X0050482Y0343982D01*
X0050492Y0343821D01*
X0050498Y0343661D01*
X0050500Y0343500D01*
X0050498Y0343339D01*
X0050492Y0343179D01*
X0050482Y0343018D01*
X0050468Y0342858D01*
X0050450Y0342698D01*
X0050429Y0342539D01*
X0050403Y0342380D01*
X0050373Y0342222D01*
X0050340Y0342065D01*
X0050302Y0341908D01*
X0050261Y0341753D01*
X0050216Y0341599D01*
X0050167Y0341446D01*
X0050114Y0341294D01*
X0050058Y0341143D01*
X0049997Y0340994D01*
X0049934Y0340846D01*
X0049866Y0340700D01*
X0049795Y0340556D01*
X0049721Y0340414D01*
X0049643Y0340273D01*
X0049561Y0340135D01*
X0049476Y0339998D01*
X0049388Y0339864D01*
X0049296Y0339732D01*
X0049201Y0339602D01*
X0049103Y0339474D01*
X0049002Y0339349D01*
X0048898Y0339227D01*
X0048791Y0339107D01*
X0048681Y0338990D01*
X0048568Y0338875D01*
X0048452Y0338764D01*
X0048333Y0338655D01*
X0048212Y0338550D01*
X0048088Y0338447D01*
X0047962Y0338347D01*
X0047834Y0338251D01*
X0047703Y0338158D01*
X0047569Y0338068D01*
X0047434Y0337981D01*
X0047296Y0337898D01*
X0047157Y0337818D01*
X0047015Y0337742D01*
X0046872Y0337669D01*
X0046727Y0337600D01*
X0046580Y0337534D01*
X0046432Y0337472D01*
X0046282Y0337414D01*
X0046131Y0337359D01*
X0045978Y0337308D01*
X0045824Y0337261D01*
X0045669Y0337218D01*
X0045513Y0337179D01*
X0045357Y0337143D01*
X0045199Y0337112D01*
X0045041Y0337084D01*
X0044882Y0337060D01*
X0044722Y0337040D01*
X0044562Y0337024D01*
X0044402Y0337012D01*
X0044241Y0337004D01*
X0044080Y0337000D01*
X0043920Y0337000D01*
X0043759Y0337004D01*
X0043598Y0337012D01*
X0043438Y0337024D01*
X0043278Y0337040D01*
X0043118Y0337060D01*
X0042959Y0337084D01*
X0042801Y0337112D01*
X0042643Y0337143D01*
X0042487Y0337179D01*
X0042331Y0337218D01*
X0042176Y0337261D01*
X0042022Y0337308D01*
X0041869Y0337359D01*
X0041718Y0337414D01*
X0041568Y0337472D01*
X0041420Y0337534D01*
X0041273Y0337600D01*
X0041128Y0337669D01*
X0040985Y0337742D01*
X0040843Y0337818D01*
X0040704Y0337898D01*
X0040566Y0337981D01*
X0040431Y0338068D01*
X0040297Y0338158D01*
X0040166Y0338251D01*
X0040038Y0338347D01*
X0039912Y0338447D01*
X0039788Y0338550D01*
X0039667Y0338655D01*
X0039548Y0338764D01*
X0039432Y0338875D01*
X0039319Y0338990D01*
X0039209Y0339107D01*
X0039102Y0339227D01*
X0038998Y0339349D01*
X0038897Y0339474D01*
X0038799Y0339602D01*
X0038704Y0339732D01*
X0038612Y0339864D01*
X0038524Y0339998D01*
X0038439Y0340135D01*
X0038357Y0340273D01*
X0038279Y0340414D01*
X0038205Y0340556D01*
X0038134Y0340700D01*
X0038066Y0340846D01*
X0038003Y0340994D01*
X0037942Y0341143D01*
X0037886Y0341294D01*
X0037833Y0341446D01*
X0037784Y0341599D01*
X0037739Y0341753D01*
X0037698Y0341908D01*
X0037660Y0342065D01*
X0037627Y0342222D01*
X0037597Y0342380D01*
X0037571Y0342539D01*
X0037550Y0342698D01*
X0037532Y0342858D01*
X0037518Y0343018D01*
X0037508Y0343179D01*
X0037502Y0343339D01*
X0037500Y0343500D01*
M02*
