G75*
%MOIN*%
%OFA0B0*%
%FSLAX25Y25*%
%IPPOS*%
%LPD*%
%AMOC8*
5,1,8,0,0,1.08239X$1,22.5*
%
%ADD10C,0.13800*%
%ADD11C,0.03300*%
%ADD12R,0.04737X0.05131*%
%ADD13R,0.03300X0.05800*%
%ADD14R,0.08674X0.05524*%
%ADD15R,0.06115X0.03162*%
%ADD16C,0.08200*%
%ADD17R,0.05131X0.04737*%
%ADD18R,0.01981X0.04737*%
%ADD19R,0.09855X0.08674*%
D10*
X0044000Y0139500D03*
X0124000Y0139500D03*
X0146000Y0139500D03*
X0226000Y0139500D03*
X0248000Y0139500D03*
X0328000Y0139500D03*
X0328000Y0241500D03*
X0248000Y0241500D03*
X0226000Y0241500D03*
X0146000Y0241500D03*
X0124000Y0241500D03*
X0044000Y0241500D03*
X0044000Y0343500D03*
X0124000Y0343500D03*
X0146000Y0343500D03*
X0226000Y0343500D03*
X0248000Y0343500D03*
X0328000Y0343500D03*
D11*
X0241000Y0350500D03*
X0232500Y0257000D03*
X0241000Y0248500D03*
X0334500Y0257000D03*
X0334500Y0155000D03*
X0241000Y0146500D03*
X0232500Y0155000D03*
X0139000Y0146500D03*
X0130500Y0155000D03*
X0037000Y0146500D03*
X0130500Y0053000D03*
X0232500Y0053000D03*
X0334500Y0053000D03*
X0139000Y0248500D03*
X0130500Y0257000D03*
X0037000Y0248500D03*
X0037000Y0350500D03*
X0139000Y0350500D03*
D12*
X0171000Y0321846D03*
X0171000Y0315154D03*
X0201000Y0315154D03*
X0201000Y0321846D03*
X0273000Y0321846D03*
X0273000Y0315154D03*
X0303000Y0315154D03*
X0303000Y0321846D03*
X0303000Y0219846D03*
X0303000Y0213154D03*
X0273000Y0213154D03*
X0273000Y0219846D03*
X0201000Y0219846D03*
X0201000Y0213154D03*
X0171000Y0213154D03*
X0171000Y0219846D03*
X0099000Y0219846D03*
X0099000Y0213154D03*
X0069000Y0213154D03*
X0069000Y0219846D03*
X0069000Y0315154D03*
X0069000Y0321846D03*
X0099000Y0321846D03*
X0099000Y0315154D03*
X0099000Y0117846D03*
X0099000Y0111154D03*
X0069000Y0111154D03*
X0069000Y0117846D03*
X0171000Y0117846D03*
X0171000Y0111154D03*
X0201000Y0111154D03*
X0201000Y0117846D03*
X0273000Y0117846D03*
X0273000Y0111154D03*
X0303000Y0111154D03*
X0303000Y0117846D03*
D13*
X0291200Y0114500D03*
X0288000Y0114500D03*
X0284800Y0114500D03*
X0189200Y0114500D03*
X0186000Y0114500D03*
X0182800Y0114500D03*
X0087200Y0114500D03*
X0084000Y0114500D03*
X0080800Y0114500D03*
X0080800Y0216500D03*
X0084000Y0216500D03*
X0087200Y0216500D03*
X0182800Y0216500D03*
X0186000Y0216500D03*
X0189200Y0216500D03*
X0284800Y0216500D03*
X0288000Y0216500D03*
X0291200Y0216500D03*
X0291200Y0318500D03*
X0288000Y0318500D03*
X0284800Y0318500D03*
X0189200Y0318500D03*
X0186000Y0318500D03*
X0182800Y0318500D03*
X0087200Y0318500D03*
X0084000Y0318500D03*
X0080800Y0318500D03*
D14*
X0039531Y0314524D03*
X0039531Y0292476D03*
X0128469Y0292476D03*
X0141531Y0292476D03*
X0141531Y0314524D03*
X0128469Y0314524D03*
X0230469Y0314524D03*
X0243531Y0314524D03*
X0243531Y0292476D03*
X0230469Y0292476D03*
X0230469Y0212524D03*
X0243531Y0212524D03*
X0243531Y0190476D03*
X0230469Y0190476D03*
X0230469Y0110524D03*
X0243531Y0110524D03*
X0243531Y0088476D03*
X0230469Y0088476D03*
X0141531Y0088476D03*
X0128469Y0088476D03*
X0128469Y0110524D03*
X0141531Y0110524D03*
X0141531Y0190476D03*
X0128469Y0190476D03*
X0128469Y0212524D03*
X0141531Y0212524D03*
X0039531Y0212524D03*
X0039531Y0190476D03*
X0039531Y0110524D03*
X0039531Y0088476D03*
X0332469Y0088476D03*
X0332469Y0110524D03*
X0332469Y0190476D03*
X0332469Y0212524D03*
X0332469Y0292476D03*
X0332469Y0314524D03*
D15*
X0318000Y0309406D03*
X0318000Y0305469D03*
X0318000Y0301531D03*
X0318000Y0297594D03*
X0258000Y0297594D03*
X0258000Y0301531D03*
X0258000Y0305469D03*
X0258000Y0309406D03*
X0216000Y0309406D03*
X0216000Y0305469D03*
X0216000Y0301531D03*
X0216000Y0297594D03*
X0156000Y0297594D03*
X0156000Y0301531D03*
X0156000Y0305469D03*
X0156000Y0309406D03*
X0114000Y0309406D03*
X0114000Y0305469D03*
X0114000Y0301531D03*
X0114000Y0297594D03*
X0054000Y0297594D03*
X0054000Y0301531D03*
X0054000Y0305469D03*
X0054000Y0309406D03*
X0054000Y0207406D03*
X0054000Y0203469D03*
X0054000Y0199531D03*
X0054000Y0195594D03*
X0114000Y0195594D03*
X0114000Y0199531D03*
X0114000Y0203469D03*
X0114000Y0207406D03*
X0156000Y0207406D03*
X0156000Y0203469D03*
X0156000Y0199531D03*
X0156000Y0195594D03*
X0216000Y0195594D03*
X0216000Y0199531D03*
X0216000Y0203469D03*
X0216000Y0207406D03*
X0258000Y0207406D03*
X0258000Y0203469D03*
X0258000Y0199531D03*
X0258000Y0195594D03*
X0318000Y0195594D03*
X0318000Y0199531D03*
X0318000Y0203469D03*
X0318000Y0207406D03*
X0318000Y0105406D03*
X0318000Y0101469D03*
X0318000Y0097531D03*
X0318000Y0093594D03*
X0258000Y0093594D03*
X0258000Y0097531D03*
X0258000Y0101469D03*
X0258000Y0105406D03*
X0216000Y0105406D03*
X0216000Y0101469D03*
X0216000Y0097531D03*
X0216000Y0093594D03*
X0156000Y0093594D03*
X0156000Y0097531D03*
X0156000Y0101469D03*
X0156000Y0105406D03*
X0114000Y0105406D03*
X0114000Y0101469D03*
X0114000Y0097531D03*
X0114000Y0093594D03*
X0054000Y0093594D03*
X0054000Y0097531D03*
X0054000Y0101469D03*
X0054000Y0105406D03*
D16*
X0069000Y0054500D03*
X0079000Y0054500D03*
X0089000Y0054500D03*
X0099000Y0054500D03*
X0171000Y0054500D03*
X0181000Y0054500D03*
X0191000Y0054500D03*
X0201000Y0054500D03*
X0273000Y0054500D03*
X0283000Y0054500D03*
X0293000Y0054500D03*
X0303000Y0054500D03*
X0303000Y0156500D03*
X0293000Y0156500D03*
X0283000Y0156500D03*
X0273000Y0156500D03*
X0201000Y0156500D03*
X0191000Y0156500D03*
X0181000Y0156500D03*
X0171000Y0156500D03*
X0099000Y0156500D03*
X0089000Y0156500D03*
X0079000Y0156500D03*
X0069000Y0156500D03*
X0069000Y0258500D03*
X0079000Y0258500D03*
X0089000Y0258500D03*
X0099000Y0258500D03*
X0171000Y0258500D03*
X0181000Y0258500D03*
X0191000Y0258500D03*
X0201000Y0258500D03*
X0273000Y0258500D03*
X0283000Y0258500D03*
X0293000Y0258500D03*
X0303000Y0258500D03*
D17*
X0291346Y0278500D03*
X0291346Y0283500D03*
X0284654Y0283500D03*
X0284654Y0278500D03*
X0189346Y0278500D03*
X0189346Y0283500D03*
X0182654Y0283500D03*
X0182654Y0278500D03*
X0087346Y0278500D03*
X0087346Y0283500D03*
X0080654Y0283500D03*
X0080654Y0278500D03*
X0080654Y0181500D03*
X0080654Y0176500D03*
X0087346Y0176500D03*
X0087346Y0181500D03*
X0182654Y0181500D03*
X0182654Y0176500D03*
X0189346Y0176500D03*
X0189346Y0181500D03*
X0284654Y0181500D03*
X0284654Y0176500D03*
X0291346Y0176500D03*
X0291346Y0181500D03*
X0291346Y0079500D03*
X0291346Y0074500D03*
X0284654Y0074500D03*
X0284654Y0079500D03*
X0189346Y0079500D03*
X0182654Y0079500D03*
X0182654Y0074500D03*
X0189346Y0074500D03*
X0087346Y0074500D03*
X0087346Y0079500D03*
X0080654Y0079500D03*
X0080654Y0074500D03*
D18*
X0080063Y0093594D03*
X0082031Y0093594D03*
X0084000Y0093594D03*
X0085969Y0093594D03*
X0087937Y0093594D03*
X0182063Y0093594D03*
X0184031Y0093594D03*
X0186000Y0093594D03*
X0187969Y0093594D03*
X0189937Y0093594D03*
X0284063Y0093594D03*
X0286031Y0093594D03*
X0288000Y0093594D03*
X0289969Y0093594D03*
X0291937Y0093594D03*
X0291937Y0195594D03*
X0289969Y0195594D03*
X0288000Y0195594D03*
X0286031Y0195594D03*
X0284063Y0195594D03*
X0189937Y0195594D03*
X0187969Y0195594D03*
X0186000Y0195594D03*
X0184031Y0195594D03*
X0182063Y0195594D03*
X0087937Y0195594D03*
X0085969Y0195594D03*
X0084000Y0195594D03*
X0082031Y0195594D03*
X0080063Y0195594D03*
X0080063Y0297594D03*
X0082031Y0297594D03*
X0084000Y0297594D03*
X0085969Y0297594D03*
X0087937Y0297594D03*
X0182063Y0297594D03*
X0184031Y0297594D03*
X0186000Y0297594D03*
X0187969Y0297594D03*
X0189937Y0297594D03*
X0284063Y0297594D03*
X0286031Y0297594D03*
X0288000Y0297594D03*
X0289969Y0297594D03*
X0291937Y0297594D03*
D19*
X0288000Y0304484D03*
X0186000Y0304484D03*
X0084000Y0304484D03*
X0084000Y0202484D03*
X0186000Y0202484D03*
X0288000Y0202484D03*
X0288000Y0100484D03*
X0186000Y0100484D03*
X0084000Y0100484D03*
M02*
