G75*
%MOIN*%
%OFA0B0*%
%FSLAX25Y25*%
%IPPOS*%
%LPD*%
%AMOC8*
5,1,8,0,0,1.08239X$1,22.5*
%
%ADD10C,0.00800*%
%ADD11R,0.02500X0.05000*%
%ADD12C,0.07400*%
%ADD13C,0.01000*%
%ADD14C,0.02900*%
%ADD15C,0.00700*%
D10*
X0037996Y0052400D02*
X0040798Y0052400D01*
X0039397Y0052400D02*
X0039397Y0056604D01*
X0040798Y0055202D01*
X0042600Y0055903D02*
X0043300Y0056604D01*
X0044701Y0056604D01*
X0045402Y0055903D01*
X0045402Y0053101D01*
X0042600Y0055903D01*
X0042600Y0053101D01*
X0043300Y0052400D01*
X0044701Y0052400D01*
X0045402Y0053101D01*
X0047204Y0052400D02*
X0050006Y0056604D01*
X0047204Y0056604D02*
X0050006Y0052400D01*
X0139996Y0052400D02*
X0142798Y0052400D01*
X0141397Y0052400D02*
X0141397Y0056604D01*
X0142798Y0055202D01*
X0144600Y0055903D02*
X0147402Y0053101D01*
X0146701Y0052400D01*
X0145300Y0052400D01*
X0144600Y0053101D01*
X0144600Y0055903D01*
X0145300Y0056604D01*
X0146701Y0056604D01*
X0147402Y0055903D01*
X0147402Y0053101D01*
X0149204Y0052400D02*
X0152006Y0056604D01*
X0149204Y0056604D02*
X0152006Y0052400D01*
X0241996Y0052400D02*
X0244798Y0052400D01*
X0243397Y0052400D02*
X0243397Y0056604D01*
X0244798Y0055202D01*
X0246600Y0055903D02*
X0247300Y0056604D01*
X0248701Y0056604D01*
X0249402Y0055903D01*
X0249402Y0053101D01*
X0246600Y0055903D01*
X0246600Y0053101D01*
X0247300Y0052400D01*
X0248701Y0052400D01*
X0249402Y0053101D01*
X0251204Y0052400D02*
X0254006Y0056604D01*
X0251204Y0056604D02*
X0254006Y0052400D01*
X0254006Y0154400D02*
X0251204Y0158604D01*
X0249402Y0157903D02*
X0248701Y0158604D01*
X0247300Y0158604D01*
X0246600Y0157903D01*
X0249402Y0155101D01*
X0248701Y0154400D01*
X0247300Y0154400D01*
X0246600Y0155101D01*
X0246600Y0157903D01*
X0244798Y0157202D02*
X0243397Y0158604D01*
X0243397Y0154400D01*
X0244798Y0154400D02*
X0241996Y0154400D01*
X0249402Y0155101D02*
X0249402Y0157903D01*
X0251204Y0154400D02*
X0254006Y0158604D01*
X0152006Y0158604D02*
X0149204Y0154400D01*
X0147402Y0155101D02*
X0144600Y0157903D01*
X0144600Y0155101D01*
X0145300Y0154400D01*
X0146701Y0154400D01*
X0147402Y0155101D01*
X0147402Y0157903D01*
X0146701Y0158604D01*
X0145300Y0158604D01*
X0144600Y0157903D01*
X0142798Y0157202D02*
X0141397Y0158604D01*
X0141397Y0154400D01*
X0142798Y0154400D02*
X0139996Y0154400D01*
X0149204Y0158604D02*
X0152006Y0154400D01*
X0050006Y0154400D02*
X0047204Y0158604D01*
X0045402Y0157903D02*
X0045402Y0155101D01*
X0042600Y0157903D01*
X0042600Y0155101D01*
X0043300Y0154400D01*
X0044701Y0154400D01*
X0045402Y0155101D01*
X0047204Y0154400D02*
X0050006Y0158604D01*
X0045402Y0157903D02*
X0044701Y0158604D01*
X0043300Y0158604D01*
X0042600Y0157903D01*
X0040798Y0157202D02*
X0039397Y0158604D01*
X0039397Y0154400D01*
X0040798Y0154400D02*
X0037996Y0154400D01*
X0037996Y0256400D02*
X0040798Y0256400D01*
X0039397Y0256400D02*
X0039397Y0260604D01*
X0040798Y0259202D01*
X0042600Y0259903D02*
X0045402Y0257101D01*
X0044701Y0256400D01*
X0043300Y0256400D01*
X0042600Y0257101D01*
X0042600Y0259903D01*
X0043300Y0260604D01*
X0044701Y0260604D01*
X0045402Y0259903D01*
X0045402Y0257101D01*
X0047204Y0256400D02*
X0050006Y0260604D01*
X0047204Y0260604D02*
X0050006Y0256400D01*
X0139996Y0256400D02*
X0142798Y0256400D01*
X0141397Y0256400D02*
X0141397Y0260604D01*
X0142798Y0259202D01*
X0144600Y0259903D02*
X0147402Y0257101D01*
X0146701Y0256400D01*
X0145300Y0256400D01*
X0144600Y0257101D01*
X0144600Y0259903D01*
X0145300Y0260604D01*
X0146701Y0260604D01*
X0147402Y0259903D01*
X0147402Y0257101D01*
X0149204Y0256400D02*
X0152006Y0260604D01*
X0149204Y0260604D02*
X0152006Y0256400D01*
X0241996Y0256400D02*
X0244798Y0256400D01*
X0243397Y0256400D02*
X0243397Y0260604D01*
X0244798Y0259202D01*
X0246600Y0259903D02*
X0246600Y0257101D01*
X0247300Y0256400D01*
X0248701Y0256400D01*
X0249402Y0257101D01*
X0246600Y0259903D01*
X0247300Y0260604D01*
X0248701Y0260604D01*
X0249402Y0259903D01*
X0249402Y0257101D01*
X0251204Y0256400D02*
X0254006Y0260604D01*
X0251204Y0260604D02*
X0254006Y0256400D01*
D11*
X0286228Y0283500D03*
X0289772Y0283500D03*
X0187772Y0283500D03*
X0184228Y0283500D03*
X0085772Y0283500D03*
X0082228Y0283500D03*
X0082228Y0181500D03*
X0085772Y0181500D03*
X0184228Y0181500D03*
X0187772Y0181500D03*
X0286228Y0181500D03*
X0289772Y0181500D03*
X0289772Y0079500D03*
X0286228Y0079500D03*
X0187772Y0079500D03*
X0184228Y0079500D03*
X0085772Y0079500D03*
X0082228Y0079500D03*
D12*
X0079000Y0054500D03*
X0089000Y0054500D03*
X0099000Y0054500D03*
X0069000Y0054500D03*
X0171000Y0054500D03*
X0181000Y0054500D03*
X0191000Y0054500D03*
X0201000Y0054500D03*
X0273000Y0054500D03*
X0283000Y0054500D03*
X0293000Y0054500D03*
X0303000Y0054500D03*
X0303000Y0156500D03*
X0293000Y0156500D03*
X0283000Y0156500D03*
X0273000Y0156500D03*
X0201000Y0156500D03*
X0191000Y0156500D03*
X0181000Y0156500D03*
X0171000Y0156500D03*
X0099000Y0156500D03*
X0089000Y0156500D03*
X0079000Y0156500D03*
X0069000Y0156500D03*
X0069000Y0258500D03*
X0079000Y0258500D03*
X0089000Y0258500D03*
X0099000Y0258500D03*
X0171000Y0258500D03*
X0181000Y0258500D03*
X0191000Y0258500D03*
X0201000Y0258500D03*
X0273000Y0258500D03*
X0283000Y0258500D03*
X0293000Y0258500D03*
X0303000Y0258500D03*
D13*
X0299046Y0262183D02*
X0296954Y0262183D01*
X0297578Y0261559D02*
X0296059Y0263078D01*
X0295050Y0263496D01*
X0295050Y0264349D01*
X0280050Y0279349D01*
X0280050Y0286095D01*
X0280405Y0286450D01*
X0283546Y0286450D01*
X0283478Y0286197D01*
X0283478Y0283625D01*
X0286103Y0283625D01*
X0286103Y0283375D01*
X0283478Y0283375D01*
X0283478Y0280803D01*
X0283581Y0280421D01*
X0283778Y0280079D01*
X0284057Y0279800D01*
X0284399Y0279602D01*
X0284781Y0279500D01*
X0286103Y0279500D01*
X0286103Y0283375D01*
X0286353Y0283375D01*
X0286353Y0279500D01*
X0287617Y0279500D01*
X0287817Y0279300D01*
X0291726Y0279300D01*
X0292722Y0280296D01*
X0292722Y0281450D01*
X0295595Y0281450D01*
X0296216Y0280830D01*
X0297373Y0280350D01*
X0298627Y0280350D01*
X0299784Y0280830D01*
X0300670Y0281716D01*
X0301150Y0282873D01*
X0301150Y0284127D01*
X0300670Y0285284D01*
X0299784Y0286170D01*
X0299109Y0286450D01*
X0305595Y0286450D01*
X0306216Y0285830D01*
X0307373Y0285350D01*
X0308627Y0285350D01*
X0309784Y0285830D01*
X0310670Y0286716D01*
X0311150Y0287873D01*
X0311150Y0289127D01*
X0310670Y0290284D01*
X0309784Y0291170D01*
X0308627Y0291650D01*
X0307373Y0291650D01*
X0306216Y0291170D01*
X0305595Y0290550D01*
X0280405Y0290550D01*
X0279784Y0291170D01*
X0279109Y0291450D01*
X0300871Y0291450D01*
X0301216Y0291105D01*
X0302373Y0290626D01*
X0303627Y0290626D01*
X0304784Y0291105D01*
X0305670Y0291991D01*
X0306150Y0293149D01*
X0306150Y0294402D01*
X0305670Y0295560D01*
X0304784Y0296446D01*
X0303627Y0296926D01*
X0302373Y0296926D01*
X0301216Y0296446D01*
X0300330Y0295560D01*
X0300325Y0295550D01*
X0265405Y0295550D01*
X0264784Y0296170D01*
X0263627Y0296650D01*
X0262373Y0296650D01*
X0261216Y0296170D01*
X0260330Y0295284D01*
X0259850Y0294127D01*
X0259850Y0292873D01*
X0260330Y0291716D01*
X0261216Y0290830D01*
X0262373Y0290350D01*
X0263627Y0290350D01*
X0264784Y0290830D01*
X0265405Y0291450D01*
X0266891Y0291450D01*
X0266216Y0291170D01*
X0265330Y0290284D01*
X0264850Y0289127D01*
X0264850Y0287873D01*
X0265330Y0286716D01*
X0266216Y0285830D01*
X0267373Y0285350D01*
X0268627Y0285350D01*
X0269784Y0285830D01*
X0270405Y0286450D01*
X0275595Y0286450D01*
X0275950Y0286095D01*
X0275950Y0277651D01*
X0277151Y0276450D01*
X0290353Y0263248D01*
X0289941Y0263078D01*
X0288422Y0261559D01*
X0288000Y0260540D01*
X0287578Y0261559D01*
X0286059Y0263078D01*
X0284074Y0263900D01*
X0281926Y0263900D01*
X0279941Y0263078D01*
X0278422Y0261559D01*
X0277891Y0260276D01*
X0277819Y0260496D01*
X0277447Y0261225D01*
X0276966Y0261888D01*
X0276388Y0262466D01*
X0275725Y0262947D01*
X0274996Y0263319D01*
X0274218Y0263572D01*
X0273500Y0263686D01*
X0273500Y0259000D01*
X0272500Y0259000D01*
X0272500Y0263686D01*
X0271782Y0263572D01*
X0271004Y0263319D01*
X0270275Y0262947D01*
X0269612Y0262466D01*
X0269034Y0261888D01*
X0268553Y0261225D01*
X0268181Y0260496D01*
X0267928Y0259718D01*
X0267814Y0259000D01*
X0272500Y0259000D01*
X0272500Y0258000D01*
X0267814Y0258000D01*
X0267928Y0257282D01*
X0268181Y0256504D01*
X0268553Y0255775D01*
X0268679Y0255600D01*
X0255987Y0255600D01*
X0256236Y0256841D01*
X0255129Y0258502D01*
X0256236Y0260162D01*
X0255895Y0261868D01*
X0254447Y0262833D01*
X0252741Y0262492D01*
X0252605Y0262288D01*
X0252468Y0262492D01*
X0250762Y0262833D01*
X0249970Y0262305D01*
X0249571Y0262704D01*
X0248170Y0262704D01*
X0247992Y0262704D01*
X0247832Y0262704D01*
X0247832Y0262704D01*
X0246430Y0262704D01*
X0246430Y0262704D01*
X0246416Y0262690D01*
X0245349Y0261622D01*
X0245131Y0261839D01*
X0244267Y0262704D01*
X0242527Y0262704D01*
X0241903Y0262080D01*
X0241297Y0261473D01*
X0241297Y0258500D01*
X0241126Y0258500D01*
X0240100Y0257474D01*
X0240100Y0338383D01*
X0240688Y0337365D01*
X0240688Y0337365D01*
X0243227Y0335234D01*
X0243227Y0335234D01*
X0246343Y0334100D01*
X0249657Y0334100D01*
X0252772Y0335234D01*
X0252773Y0335234D01*
X0255312Y0337365D01*
X0256969Y0340235D01*
X0256969Y0340235D01*
X0257545Y0343500D01*
X0256969Y0346765D01*
X0255312Y0349635D01*
X0255312Y0349635D01*
X0253209Y0351400D01*
X0322791Y0351400D01*
X0320688Y0349635D01*
X0319031Y0346765D01*
X0318455Y0343500D01*
X0318455Y0343500D01*
X0319031Y0340235D01*
X0320688Y0337365D01*
X0320688Y0337365D01*
X0323227Y0335234D01*
X0323227Y0335234D01*
X0326343Y0334100D01*
X0329657Y0334100D01*
X0332772Y0335234D01*
X0332773Y0335234D01*
X0335312Y0337365D01*
X0335900Y0338383D01*
X0335900Y0255600D01*
X0307644Y0255600D01*
X0308400Y0257426D01*
X0308400Y0259574D01*
X0307578Y0261559D01*
X0306059Y0263078D01*
X0304074Y0263900D01*
X0301926Y0263900D01*
X0299941Y0263078D01*
X0298422Y0261559D01*
X0298000Y0260540D01*
X0297578Y0261559D01*
X0297733Y0261184D02*
X0298267Y0261184D01*
X0300191Y0263181D02*
X0295809Y0263181D01*
X0295050Y0264180D02*
X0335900Y0264180D01*
X0335900Y0265178D02*
X0294221Y0265178D01*
X0293222Y0266177D02*
X0335900Y0266177D01*
X0335900Y0267175D02*
X0292224Y0267175D01*
X0291225Y0268174D02*
X0335900Y0268174D01*
X0335900Y0269172D02*
X0290227Y0269172D01*
X0289228Y0270171D02*
X0335900Y0270171D01*
X0335900Y0271170D02*
X0288230Y0271170D01*
X0287231Y0272168D02*
X0335900Y0272168D01*
X0335900Y0273167D02*
X0286233Y0273167D01*
X0285234Y0274165D02*
X0335900Y0274165D01*
X0335900Y0275164D02*
X0284236Y0275164D01*
X0283237Y0276162D02*
X0335900Y0276162D01*
X0335900Y0277161D02*
X0282239Y0277161D01*
X0281240Y0278159D02*
X0335900Y0278159D01*
X0335900Y0279158D02*
X0280242Y0279158D01*
X0280050Y0280156D02*
X0283734Y0280156D01*
X0283478Y0281155D02*
X0280050Y0281155D01*
X0280050Y0282153D02*
X0283478Y0282153D01*
X0283478Y0283152D02*
X0280050Y0283152D01*
X0280050Y0284150D02*
X0283478Y0284150D01*
X0283478Y0285149D02*
X0280050Y0285149D01*
X0280102Y0286147D02*
X0283478Y0286147D01*
X0286103Y0283152D02*
X0286353Y0283152D01*
X0286353Y0282153D02*
X0286103Y0282153D01*
X0286103Y0281155D02*
X0286353Y0281155D01*
X0286353Y0280156D02*
X0286103Y0280156D01*
X0279436Y0274165D02*
X0240100Y0274165D01*
X0240100Y0273167D02*
X0280434Y0273167D01*
X0281433Y0272168D02*
X0240100Y0272168D01*
X0240100Y0271170D02*
X0282431Y0271170D01*
X0283430Y0270171D02*
X0240100Y0270171D01*
X0240100Y0269172D02*
X0284428Y0269172D01*
X0285427Y0268174D02*
X0240100Y0268174D01*
X0240100Y0267175D02*
X0286425Y0267175D01*
X0287424Y0266177D02*
X0240100Y0266177D01*
X0240100Y0265178D02*
X0288422Y0265178D01*
X0289421Y0264180D02*
X0240100Y0264180D01*
X0240100Y0263181D02*
X0270734Y0263181D01*
X0269329Y0262183D02*
X0255423Y0262183D01*
X0256031Y0261184D02*
X0268532Y0261184D01*
X0268080Y0260186D02*
X0256231Y0260186D01*
X0255586Y0259187D02*
X0267844Y0259187D01*
X0267958Y0257190D02*
X0256003Y0257190D01*
X0256106Y0256192D02*
X0268340Y0256192D01*
X0272500Y0258189D02*
X0255337Y0258189D01*
X0248170Y0262704D02*
X0248170Y0262704D01*
X0245910Y0262183D02*
X0244787Y0262183D01*
X0242006Y0262183D02*
X0240100Y0262183D01*
X0240100Y0261184D02*
X0241297Y0261184D01*
X0241297Y0260186D02*
X0240100Y0260186D01*
X0240100Y0259187D02*
X0241297Y0259187D01*
X0240815Y0258189D02*
X0240100Y0258189D01*
X0233900Y0258189D02*
X0206400Y0258189D01*
X0206400Y0257426D02*
X0206400Y0259574D01*
X0205578Y0261559D01*
X0204059Y0263078D01*
X0202074Y0263900D01*
X0199926Y0263900D01*
X0197941Y0263078D01*
X0196422Y0261559D01*
X0196000Y0260540D01*
X0195578Y0261559D01*
X0194059Y0263078D01*
X0193050Y0263496D01*
X0193050Y0264349D01*
X0178050Y0279349D01*
X0178050Y0286095D01*
X0178405Y0286450D01*
X0181546Y0286450D01*
X0181478Y0286197D01*
X0181478Y0283625D01*
X0184103Y0283625D01*
X0184103Y0283375D01*
X0181478Y0283375D01*
X0181478Y0280803D01*
X0181581Y0280421D01*
X0181778Y0280079D01*
X0182057Y0279800D01*
X0182399Y0279602D01*
X0182781Y0279500D01*
X0184103Y0279500D01*
X0184103Y0283375D01*
X0184353Y0283375D01*
X0184353Y0279500D01*
X0185617Y0279500D01*
X0185817Y0279300D01*
X0189726Y0279300D01*
X0190722Y0280296D01*
X0190722Y0281450D01*
X0193595Y0281450D01*
X0194216Y0280830D01*
X0195373Y0280350D01*
X0196627Y0280350D01*
X0197784Y0280830D01*
X0198670Y0281716D01*
X0199150Y0282873D01*
X0199150Y0284127D01*
X0198670Y0285284D01*
X0197784Y0286170D01*
X0197109Y0286450D01*
X0203595Y0286450D01*
X0204216Y0285830D01*
X0205373Y0285350D01*
X0206627Y0285350D01*
X0207784Y0285830D01*
X0208670Y0286716D01*
X0209150Y0287873D01*
X0209150Y0289127D01*
X0208670Y0290284D01*
X0207784Y0291170D01*
X0206627Y0291650D01*
X0205373Y0291650D01*
X0204216Y0291170D01*
X0203595Y0290550D01*
X0178405Y0290550D01*
X0177784Y0291170D01*
X0177109Y0291450D01*
X0198871Y0291450D01*
X0199216Y0291105D01*
X0200373Y0290626D01*
X0201627Y0290626D01*
X0202784Y0291105D01*
X0203670Y0291991D01*
X0204150Y0293149D01*
X0204150Y0294402D01*
X0203670Y0295560D01*
X0202784Y0296446D01*
X0201627Y0296926D01*
X0200373Y0296926D01*
X0199216Y0296446D01*
X0198330Y0295560D01*
X0198325Y0295550D01*
X0163405Y0295550D01*
X0162784Y0296170D01*
X0161627Y0296650D01*
X0160373Y0296650D01*
X0159216Y0296170D01*
X0158330Y0295284D01*
X0157850Y0294127D01*
X0157850Y0292873D01*
X0158330Y0291716D01*
X0159216Y0290830D01*
X0160373Y0290350D01*
X0161627Y0290350D01*
X0162784Y0290830D01*
X0163405Y0291450D01*
X0164891Y0291450D01*
X0164216Y0291170D01*
X0163330Y0290284D01*
X0162850Y0289127D01*
X0162850Y0287873D01*
X0163330Y0286716D01*
X0164216Y0285830D01*
X0165373Y0285350D01*
X0166627Y0285350D01*
X0167784Y0285830D01*
X0168405Y0286450D01*
X0173595Y0286450D01*
X0173950Y0286095D01*
X0173950Y0277651D01*
X0175151Y0276450D01*
X0188353Y0263248D01*
X0187941Y0263078D01*
X0186422Y0261559D01*
X0186000Y0260540D01*
X0185578Y0261559D01*
X0184059Y0263078D01*
X0182074Y0263900D01*
X0179926Y0263900D01*
X0177941Y0263078D01*
X0176422Y0261559D01*
X0175891Y0260276D01*
X0175819Y0260496D01*
X0175447Y0261225D01*
X0174966Y0261888D01*
X0174388Y0262466D01*
X0173725Y0262947D01*
X0172996Y0263319D01*
X0172218Y0263572D01*
X0171500Y0263686D01*
X0171500Y0259000D01*
X0170500Y0259000D01*
X0170500Y0263686D01*
X0169782Y0263572D01*
X0169004Y0263319D01*
X0168275Y0262947D01*
X0167612Y0262466D01*
X0167034Y0261888D01*
X0166553Y0261225D01*
X0166181Y0260496D01*
X0165928Y0259718D01*
X0165814Y0259000D01*
X0170500Y0259000D01*
X0170500Y0258000D01*
X0165814Y0258000D01*
X0165928Y0257282D01*
X0166181Y0256504D01*
X0166553Y0255775D01*
X0166679Y0255600D01*
X0153987Y0255600D01*
X0154236Y0256841D01*
X0153129Y0258502D01*
X0154236Y0260162D01*
X0153895Y0261868D01*
X0152447Y0262833D01*
X0150741Y0262492D01*
X0150605Y0262288D01*
X0150468Y0262492D01*
X0148762Y0262833D01*
X0147970Y0262305D01*
X0147571Y0262704D01*
X0146170Y0262704D01*
X0145832Y0262704D01*
X0145832Y0262704D01*
X0144430Y0262704D01*
X0144430Y0262704D01*
X0144416Y0262690D01*
X0143349Y0261622D01*
X0143131Y0261839D01*
X0142267Y0262704D01*
X0140527Y0262704D01*
X0139903Y0262080D01*
X0139297Y0261473D01*
X0139297Y0258500D01*
X0139126Y0258500D01*
X0138100Y0257474D01*
X0138100Y0338383D01*
X0138688Y0337365D01*
X0138688Y0337365D01*
X0141227Y0335234D01*
X0141227Y0335234D01*
X0144343Y0334100D01*
X0147657Y0334100D01*
X0150772Y0335234D01*
X0150773Y0335234D01*
X0153312Y0337365D01*
X0154969Y0340235D01*
X0154969Y0340235D01*
X0155545Y0343500D01*
X0154969Y0346765D01*
X0153312Y0349635D01*
X0153312Y0349635D01*
X0151209Y0351400D01*
X0220791Y0351400D01*
X0218688Y0349635D01*
X0217031Y0346765D01*
X0216455Y0343500D01*
X0216455Y0343500D01*
X0217031Y0340235D01*
X0218688Y0337365D01*
X0218688Y0337365D01*
X0221227Y0335234D01*
X0221227Y0335234D01*
X0224343Y0334100D01*
X0227657Y0334100D01*
X0230772Y0335234D01*
X0230773Y0335234D01*
X0233312Y0337365D01*
X0233900Y0338383D01*
X0233900Y0255600D01*
X0205644Y0255600D01*
X0206400Y0257426D01*
X0206302Y0257190D02*
X0233900Y0257190D01*
X0233900Y0256192D02*
X0205889Y0256192D01*
X0206400Y0259187D02*
X0233900Y0259187D01*
X0233900Y0260186D02*
X0206147Y0260186D01*
X0205733Y0261184D02*
X0233900Y0261184D01*
X0233900Y0262183D02*
X0204954Y0262183D01*
X0203809Y0263181D02*
X0233900Y0263181D01*
X0233900Y0264180D02*
X0193050Y0264180D01*
X0193809Y0263181D02*
X0198191Y0263181D01*
X0197046Y0262183D02*
X0194954Y0262183D01*
X0195733Y0261184D02*
X0196267Y0261184D01*
X0192221Y0265178D02*
X0233900Y0265178D01*
X0233900Y0266177D02*
X0191222Y0266177D01*
X0190224Y0267175D02*
X0233900Y0267175D01*
X0233900Y0268174D02*
X0189225Y0268174D01*
X0188227Y0269172D02*
X0233900Y0269172D01*
X0233900Y0270171D02*
X0187228Y0270171D01*
X0186230Y0271170D02*
X0233900Y0271170D01*
X0233900Y0272168D02*
X0185231Y0272168D01*
X0184233Y0273167D02*
X0233900Y0273167D01*
X0233900Y0274165D02*
X0183234Y0274165D01*
X0182236Y0275164D02*
X0233900Y0275164D01*
X0233900Y0276162D02*
X0181237Y0276162D01*
X0180239Y0277161D02*
X0233900Y0277161D01*
X0233900Y0278159D02*
X0179240Y0278159D01*
X0178242Y0279158D02*
X0233900Y0279158D01*
X0233900Y0280156D02*
X0190582Y0280156D01*
X0190722Y0281155D02*
X0193891Y0281155D01*
X0198109Y0281155D02*
X0233900Y0281155D01*
X0233900Y0282153D02*
X0198852Y0282153D01*
X0199150Y0283152D02*
X0233900Y0283152D01*
X0233900Y0284150D02*
X0199140Y0284150D01*
X0198727Y0285149D02*
X0233900Y0285149D01*
X0233900Y0286147D02*
X0208102Y0286147D01*
X0208849Y0287146D02*
X0233900Y0287146D01*
X0233900Y0288144D02*
X0209150Y0288144D01*
X0209143Y0289143D02*
X0233900Y0289143D01*
X0233900Y0290141D02*
X0208730Y0290141D01*
X0207815Y0291140D02*
X0233900Y0291140D01*
X0233900Y0292138D02*
X0203731Y0292138D01*
X0204145Y0293137D02*
X0233900Y0293137D01*
X0233900Y0294135D02*
X0204150Y0294135D01*
X0203847Y0295134D02*
X0233900Y0295134D01*
X0233900Y0296132D02*
X0203098Y0296132D01*
X0198902Y0296132D02*
X0162822Y0296132D01*
X0159178Y0296132D02*
X0138100Y0296132D01*
X0138100Y0295134D02*
X0158267Y0295134D01*
X0157854Y0294135D02*
X0138100Y0294135D01*
X0138100Y0293137D02*
X0157850Y0293137D01*
X0158155Y0292138D02*
X0138100Y0292138D01*
X0138100Y0291140D02*
X0158905Y0291140D01*
X0163095Y0291140D02*
X0164185Y0291140D01*
X0163270Y0290141D02*
X0138100Y0290141D01*
X0138100Y0289143D02*
X0162857Y0289143D01*
X0162850Y0288144D02*
X0138100Y0288144D01*
X0138100Y0287146D02*
X0163151Y0287146D01*
X0163898Y0286147D02*
X0138100Y0286147D01*
X0138100Y0285149D02*
X0173950Y0285149D01*
X0173950Y0284150D02*
X0138100Y0284150D01*
X0138100Y0283152D02*
X0173950Y0283152D01*
X0173950Y0282153D02*
X0138100Y0282153D01*
X0138100Y0281155D02*
X0173950Y0281155D01*
X0173950Y0280156D02*
X0138100Y0280156D01*
X0138100Y0279158D02*
X0173950Y0279158D01*
X0173950Y0278159D02*
X0138100Y0278159D01*
X0138100Y0277161D02*
X0174440Y0277161D01*
X0175439Y0276162D02*
X0138100Y0276162D01*
X0138100Y0275164D02*
X0176437Y0275164D01*
X0177436Y0274165D02*
X0138100Y0274165D01*
X0138100Y0273167D02*
X0178434Y0273167D01*
X0179433Y0272168D02*
X0138100Y0272168D01*
X0138100Y0271170D02*
X0180431Y0271170D01*
X0181430Y0270171D02*
X0138100Y0270171D01*
X0138100Y0269172D02*
X0182428Y0269172D01*
X0183427Y0268174D02*
X0138100Y0268174D01*
X0138100Y0267175D02*
X0184425Y0267175D01*
X0185424Y0266177D02*
X0138100Y0266177D01*
X0138100Y0265178D02*
X0186422Y0265178D01*
X0187421Y0264180D02*
X0138100Y0264180D01*
X0138100Y0263181D02*
X0168734Y0263181D01*
X0167329Y0262183D02*
X0153423Y0262183D01*
X0154031Y0261184D02*
X0166532Y0261184D01*
X0166080Y0260186D02*
X0154231Y0260186D01*
X0153586Y0259187D02*
X0165844Y0259187D01*
X0165958Y0257190D02*
X0154003Y0257190D01*
X0154106Y0256192D02*
X0166340Y0256192D01*
X0170500Y0258189D02*
X0153337Y0258189D01*
X0146170Y0262704D02*
X0146170Y0262704D01*
X0143910Y0262183D02*
X0142787Y0262183D01*
X0140006Y0262183D02*
X0138100Y0262183D01*
X0138100Y0261184D02*
X0139297Y0261184D01*
X0139297Y0260186D02*
X0138100Y0260186D01*
X0138100Y0259187D02*
X0139297Y0259187D01*
X0138815Y0258189D02*
X0138100Y0258189D01*
X0131900Y0258189D02*
X0104400Y0258189D01*
X0104400Y0257426D02*
X0104400Y0259574D01*
X0103578Y0261559D01*
X0102059Y0263078D01*
X0100074Y0263900D01*
X0097926Y0263900D01*
X0095941Y0263078D01*
X0094422Y0261559D01*
X0094000Y0260540D01*
X0093578Y0261559D01*
X0092059Y0263078D01*
X0091050Y0263496D01*
X0091050Y0264349D01*
X0076050Y0279349D01*
X0076050Y0286095D01*
X0076405Y0286450D01*
X0079546Y0286450D01*
X0079478Y0286197D01*
X0079478Y0283625D01*
X0082103Y0283625D01*
X0082103Y0283375D01*
X0079478Y0283375D01*
X0079478Y0280803D01*
X0079581Y0280421D01*
X0079778Y0280079D01*
X0080057Y0279800D01*
X0080399Y0279602D01*
X0080781Y0279500D01*
X0082103Y0279500D01*
X0082103Y0283375D01*
X0082353Y0283375D01*
X0082353Y0279500D01*
X0083617Y0279500D01*
X0083817Y0279300D01*
X0087726Y0279300D01*
X0088722Y0280296D01*
X0088722Y0281450D01*
X0091595Y0281450D01*
X0092216Y0280830D01*
X0093373Y0280350D01*
X0094627Y0280350D01*
X0095784Y0280830D01*
X0096670Y0281716D01*
X0097150Y0282873D01*
X0097150Y0284127D01*
X0096670Y0285284D01*
X0095784Y0286170D01*
X0095109Y0286450D01*
X0101595Y0286450D01*
X0102216Y0285830D01*
X0103373Y0285350D01*
X0104627Y0285350D01*
X0105784Y0285830D01*
X0106670Y0286716D01*
X0107150Y0287873D01*
X0107150Y0289127D01*
X0106670Y0290284D01*
X0105784Y0291170D01*
X0104627Y0291650D01*
X0103373Y0291650D01*
X0102216Y0291170D01*
X0101595Y0290550D01*
X0076405Y0290550D01*
X0075784Y0291170D01*
X0075109Y0291450D01*
X0096871Y0291450D01*
X0097216Y0291105D01*
X0098373Y0290626D01*
X0099627Y0290626D01*
X0100784Y0291105D01*
X0101670Y0291991D01*
X0102150Y0293149D01*
X0102150Y0294402D01*
X0101670Y0295560D01*
X0100784Y0296446D01*
X0099627Y0296926D01*
X0098373Y0296926D01*
X0097216Y0296446D01*
X0096330Y0295560D01*
X0096325Y0295550D01*
X0061405Y0295550D01*
X0060784Y0296170D01*
X0059627Y0296650D01*
X0058373Y0296650D01*
X0057216Y0296170D01*
X0056330Y0295284D01*
X0055850Y0294127D01*
X0055850Y0292873D01*
X0056330Y0291716D01*
X0057216Y0290830D01*
X0058373Y0290350D01*
X0059627Y0290350D01*
X0060784Y0290830D01*
X0061405Y0291450D01*
X0062891Y0291450D01*
X0062216Y0291170D01*
X0061330Y0290284D01*
X0060850Y0289127D01*
X0060850Y0287873D01*
X0061330Y0286716D01*
X0062216Y0285830D01*
X0063373Y0285350D01*
X0064627Y0285350D01*
X0065784Y0285830D01*
X0066405Y0286450D01*
X0071595Y0286450D01*
X0071950Y0286095D01*
X0071950Y0277651D01*
X0073151Y0276450D01*
X0086353Y0263248D01*
X0085941Y0263078D01*
X0084422Y0261559D01*
X0084000Y0260540D01*
X0083578Y0261559D01*
X0082059Y0263078D01*
X0080074Y0263900D01*
X0077926Y0263900D01*
X0075941Y0263078D01*
X0074422Y0261559D01*
X0073891Y0260276D01*
X0073819Y0260496D01*
X0073447Y0261225D01*
X0072966Y0261888D01*
X0072388Y0262466D01*
X0071725Y0262947D01*
X0070996Y0263319D01*
X0070218Y0263572D01*
X0069500Y0263686D01*
X0069500Y0259000D01*
X0068500Y0259000D01*
X0068500Y0263686D01*
X0067782Y0263572D01*
X0067004Y0263319D01*
X0066275Y0262947D01*
X0065612Y0262466D01*
X0065034Y0261888D01*
X0064553Y0261225D01*
X0064181Y0260496D01*
X0063928Y0259718D01*
X0063814Y0259000D01*
X0068500Y0259000D01*
X0068500Y0258000D01*
X0063814Y0258000D01*
X0063928Y0257282D01*
X0064181Y0256504D01*
X0064553Y0255775D01*
X0064679Y0255600D01*
X0051987Y0255600D01*
X0052236Y0256841D01*
X0051129Y0258502D01*
X0052236Y0260162D01*
X0051895Y0261868D01*
X0050447Y0262833D01*
X0048741Y0262492D01*
X0048605Y0262288D01*
X0048468Y0262492D01*
X0046762Y0262833D01*
X0045970Y0262305D01*
X0045571Y0262704D01*
X0044170Y0262704D01*
X0043992Y0262704D01*
X0043832Y0262704D01*
X0043832Y0262704D01*
X0042430Y0262704D01*
X0042430Y0262704D01*
X0042416Y0262690D01*
X0041349Y0261622D01*
X0041131Y0261839D01*
X0040267Y0262704D01*
X0038527Y0262704D01*
X0037903Y0262080D01*
X0037297Y0261473D01*
X0037297Y0258500D01*
X0037126Y0258500D01*
X0036100Y0257474D01*
X0036100Y0338383D01*
X0036688Y0337365D01*
X0036688Y0337365D01*
X0039227Y0335234D01*
X0039227Y0335234D01*
X0042343Y0334100D01*
X0045657Y0334100D01*
X0048772Y0335234D01*
X0048773Y0335234D01*
X0051312Y0337365D01*
X0052969Y0340235D01*
X0052969Y0340235D01*
X0053545Y0343500D01*
X0052969Y0346765D01*
X0051312Y0349635D01*
X0051312Y0349635D01*
X0049209Y0351400D01*
X0118791Y0351400D01*
X0116688Y0349635D01*
X0115031Y0346765D01*
X0114455Y0343500D01*
X0114455Y0343500D01*
X0115031Y0340235D01*
X0116688Y0337365D01*
X0116688Y0337365D01*
X0119227Y0335234D01*
X0119227Y0335234D01*
X0122343Y0334100D01*
X0125657Y0334100D01*
X0128772Y0335234D01*
X0128773Y0335234D01*
X0131312Y0337365D01*
X0131900Y0338383D01*
X0131900Y0255600D01*
X0103644Y0255600D01*
X0104400Y0257426D01*
X0104302Y0257190D02*
X0131900Y0257190D01*
X0131900Y0256192D02*
X0103889Y0256192D01*
X0104400Y0259187D02*
X0131900Y0259187D01*
X0131900Y0260186D02*
X0104147Y0260186D01*
X0103733Y0261184D02*
X0131900Y0261184D01*
X0131900Y0262183D02*
X0102954Y0262183D01*
X0101809Y0263181D02*
X0131900Y0263181D01*
X0131900Y0264180D02*
X0091050Y0264180D01*
X0091809Y0263181D02*
X0096191Y0263181D01*
X0095046Y0262183D02*
X0092954Y0262183D01*
X0093733Y0261184D02*
X0094267Y0261184D01*
X0090221Y0265178D02*
X0131900Y0265178D01*
X0131900Y0266177D02*
X0089222Y0266177D01*
X0088224Y0267175D02*
X0131900Y0267175D01*
X0131900Y0268174D02*
X0087225Y0268174D01*
X0086227Y0269172D02*
X0131900Y0269172D01*
X0131900Y0270171D02*
X0085228Y0270171D01*
X0084230Y0271170D02*
X0131900Y0271170D01*
X0131900Y0272168D02*
X0083231Y0272168D01*
X0082233Y0273167D02*
X0131900Y0273167D01*
X0131900Y0274165D02*
X0081234Y0274165D01*
X0080236Y0275164D02*
X0131900Y0275164D01*
X0131900Y0276162D02*
X0079237Y0276162D01*
X0078239Y0277161D02*
X0131900Y0277161D01*
X0131900Y0278159D02*
X0077240Y0278159D01*
X0076242Y0279158D02*
X0131900Y0279158D01*
X0131900Y0280156D02*
X0088582Y0280156D01*
X0088722Y0281155D02*
X0091891Y0281155D01*
X0096109Y0281155D02*
X0131900Y0281155D01*
X0131900Y0282153D02*
X0096852Y0282153D01*
X0097150Y0283152D02*
X0131900Y0283152D01*
X0131900Y0284150D02*
X0097140Y0284150D01*
X0096727Y0285149D02*
X0131900Y0285149D01*
X0131900Y0286147D02*
X0106102Y0286147D01*
X0106849Y0287146D02*
X0131900Y0287146D01*
X0131900Y0288144D02*
X0107150Y0288144D01*
X0107143Y0289143D02*
X0131900Y0289143D01*
X0131900Y0290141D02*
X0106730Y0290141D01*
X0105815Y0291140D02*
X0131900Y0291140D01*
X0131900Y0292138D02*
X0101731Y0292138D01*
X0102145Y0293137D02*
X0131900Y0293137D01*
X0131900Y0294135D02*
X0102150Y0294135D01*
X0101847Y0295134D02*
X0131900Y0295134D01*
X0131900Y0296132D02*
X0101098Y0296132D01*
X0096902Y0296132D02*
X0060822Y0296132D01*
X0057178Y0296132D02*
X0036100Y0296132D01*
X0036100Y0295134D02*
X0056267Y0295134D01*
X0055854Y0294135D02*
X0036100Y0294135D01*
X0036100Y0293137D02*
X0055850Y0293137D01*
X0056155Y0292138D02*
X0036100Y0292138D01*
X0036100Y0291140D02*
X0056905Y0291140D01*
X0061095Y0291140D02*
X0062185Y0291140D01*
X0061270Y0290141D02*
X0036100Y0290141D01*
X0036100Y0289143D02*
X0060857Y0289143D01*
X0060850Y0288144D02*
X0036100Y0288144D01*
X0036100Y0287146D02*
X0061151Y0287146D01*
X0061898Y0286147D02*
X0036100Y0286147D01*
X0036100Y0285149D02*
X0071950Y0285149D01*
X0071950Y0284150D02*
X0036100Y0284150D01*
X0036100Y0283152D02*
X0071950Y0283152D01*
X0071950Y0282153D02*
X0036100Y0282153D01*
X0036100Y0281155D02*
X0071950Y0281155D01*
X0071950Y0280156D02*
X0036100Y0280156D01*
X0036100Y0279158D02*
X0071950Y0279158D01*
X0071950Y0278159D02*
X0036100Y0278159D01*
X0036100Y0277161D02*
X0072440Y0277161D01*
X0073439Y0276162D02*
X0036100Y0276162D01*
X0036100Y0275164D02*
X0074437Y0275164D01*
X0075436Y0274165D02*
X0036100Y0274165D01*
X0036100Y0273167D02*
X0076434Y0273167D01*
X0077433Y0272168D02*
X0036100Y0272168D01*
X0036100Y0271170D02*
X0078431Y0271170D01*
X0079430Y0270171D02*
X0036100Y0270171D01*
X0036100Y0269172D02*
X0080428Y0269172D01*
X0081427Y0268174D02*
X0036100Y0268174D01*
X0036100Y0267175D02*
X0082425Y0267175D01*
X0083424Y0266177D02*
X0036100Y0266177D01*
X0036100Y0265178D02*
X0084422Y0265178D01*
X0085421Y0264180D02*
X0036100Y0264180D01*
X0036100Y0263181D02*
X0066734Y0263181D01*
X0065329Y0262183D02*
X0051423Y0262183D01*
X0052031Y0261184D02*
X0064532Y0261184D01*
X0064080Y0260186D02*
X0052231Y0260186D01*
X0051586Y0259187D02*
X0063844Y0259187D01*
X0063958Y0257190D02*
X0052003Y0257190D01*
X0052106Y0256192D02*
X0064340Y0256192D01*
X0068500Y0258189D02*
X0051337Y0258189D01*
X0044170Y0262704D02*
X0044170Y0262704D01*
X0041910Y0262183D02*
X0040787Y0262183D01*
X0038006Y0262183D02*
X0036100Y0262183D01*
X0036100Y0261184D02*
X0037297Y0261184D01*
X0037297Y0260186D02*
X0036100Y0260186D01*
X0036100Y0259187D02*
X0037297Y0259187D01*
X0036815Y0258189D02*
X0036100Y0258189D01*
X0049209Y0249400D02*
X0118791Y0249400D01*
X0116688Y0247635D01*
X0115031Y0244765D01*
X0114455Y0241500D01*
X0114455Y0241500D01*
X0115031Y0238235D01*
X0116688Y0235365D01*
X0116688Y0235365D01*
X0119227Y0233234D01*
X0119227Y0233234D01*
X0122343Y0232100D01*
X0125657Y0232100D01*
X0128772Y0233234D01*
X0128773Y0233234D01*
X0131312Y0235365D01*
X0131900Y0236383D01*
X0131900Y0153600D01*
X0103644Y0153600D01*
X0104400Y0155426D01*
X0104400Y0157574D01*
X0103578Y0159559D01*
X0102059Y0161078D01*
X0100074Y0161900D01*
X0097926Y0161900D01*
X0095941Y0161078D01*
X0094422Y0159559D01*
X0094000Y0158540D01*
X0093578Y0159559D01*
X0092059Y0161078D01*
X0091050Y0161496D01*
X0091050Y0162349D01*
X0076050Y0177349D01*
X0076050Y0184095D01*
X0076405Y0184450D01*
X0079546Y0184450D01*
X0079478Y0184197D01*
X0079478Y0181625D01*
X0082103Y0181625D01*
X0082103Y0181375D01*
X0079478Y0181375D01*
X0079478Y0178803D01*
X0079581Y0178421D01*
X0079778Y0178079D01*
X0080057Y0177800D01*
X0080399Y0177602D01*
X0080781Y0177500D01*
X0082103Y0177500D01*
X0082103Y0181375D01*
X0082353Y0181375D01*
X0082353Y0177500D01*
X0083617Y0177500D01*
X0083817Y0177300D01*
X0087726Y0177300D01*
X0088722Y0178296D01*
X0088722Y0179450D01*
X0091595Y0179450D01*
X0092216Y0178830D01*
X0093373Y0178350D01*
X0094627Y0178350D01*
X0095784Y0178830D01*
X0096670Y0179716D01*
X0097150Y0180873D01*
X0097150Y0182127D01*
X0096670Y0183284D01*
X0095784Y0184170D01*
X0095109Y0184450D01*
X0101595Y0184450D01*
X0102216Y0183830D01*
X0103373Y0183350D01*
X0104627Y0183350D01*
X0105784Y0183830D01*
X0106670Y0184716D01*
X0107150Y0185873D01*
X0107150Y0187127D01*
X0106670Y0188284D01*
X0105784Y0189170D01*
X0104627Y0189650D01*
X0103373Y0189650D01*
X0102216Y0189170D01*
X0101595Y0188550D01*
X0076405Y0188550D01*
X0075784Y0189170D01*
X0075109Y0189450D01*
X0096871Y0189450D01*
X0097216Y0189105D01*
X0098373Y0188626D01*
X0099627Y0188626D01*
X0100784Y0189105D01*
X0101670Y0189991D01*
X0102150Y0191149D01*
X0102150Y0192402D01*
X0101670Y0193560D01*
X0100784Y0194446D01*
X0099627Y0194926D01*
X0098373Y0194926D01*
X0097216Y0194446D01*
X0096330Y0193560D01*
X0096325Y0193550D01*
X0061405Y0193550D01*
X0060784Y0194170D01*
X0059627Y0194650D01*
X0058373Y0194650D01*
X0057216Y0194170D01*
X0056330Y0193284D01*
X0055850Y0192127D01*
X0055850Y0190873D01*
X0056330Y0189716D01*
X0057216Y0188830D01*
X0058373Y0188350D01*
X0059627Y0188350D01*
X0060784Y0188830D01*
X0061405Y0189450D01*
X0062891Y0189450D01*
X0062216Y0189170D01*
X0061330Y0188284D01*
X0060850Y0187127D01*
X0060850Y0185873D01*
X0061330Y0184716D01*
X0062216Y0183830D01*
X0063373Y0183350D01*
X0064627Y0183350D01*
X0065784Y0183830D01*
X0066405Y0184450D01*
X0071595Y0184450D01*
X0071950Y0184095D01*
X0071950Y0175651D01*
X0073151Y0174450D01*
X0086353Y0161248D01*
X0085941Y0161078D01*
X0084422Y0159559D01*
X0084000Y0158540D01*
X0083578Y0159559D01*
X0082059Y0161078D01*
X0080074Y0161900D01*
X0077926Y0161900D01*
X0075941Y0161078D01*
X0074422Y0159559D01*
X0073891Y0158276D01*
X0073819Y0158496D01*
X0073447Y0159225D01*
X0072966Y0159888D01*
X0072388Y0160466D01*
X0071725Y0160947D01*
X0070996Y0161319D01*
X0070218Y0161572D01*
X0069500Y0161686D01*
X0069500Y0157000D01*
X0068500Y0157000D01*
X0068500Y0161686D01*
X0067782Y0161572D01*
X0067004Y0161319D01*
X0066275Y0160947D01*
X0065612Y0160466D01*
X0065034Y0159888D01*
X0064553Y0159225D01*
X0064181Y0158496D01*
X0063928Y0157718D01*
X0063814Y0157000D01*
X0068500Y0157000D01*
X0068500Y0156000D01*
X0063814Y0156000D01*
X0063928Y0155282D01*
X0064181Y0154504D01*
X0064553Y0153775D01*
X0064679Y0153600D01*
X0051987Y0153600D01*
X0052236Y0154841D01*
X0051129Y0156502D01*
X0052236Y0158162D01*
X0051895Y0159868D01*
X0050447Y0160833D01*
X0048741Y0160492D01*
X0048605Y0160288D01*
X0048468Y0160492D01*
X0046762Y0160833D01*
X0045970Y0160305D01*
X0045571Y0160704D01*
X0044170Y0160704D01*
X0043832Y0160704D01*
X0043832Y0160704D01*
X0042430Y0160704D01*
X0042430Y0160704D01*
X0042416Y0160690D01*
X0041349Y0159622D01*
X0041131Y0159839D01*
X0040267Y0160704D01*
X0038527Y0160704D01*
X0037903Y0160080D01*
X0037297Y0159473D01*
X0037297Y0156500D01*
X0037126Y0156500D01*
X0036100Y0155474D01*
X0036100Y0236383D01*
X0036688Y0235365D01*
X0036688Y0235365D01*
X0039227Y0233234D01*
X0039227Y0233234D01*
X0042343Y0232100D01*
X0045657Y0232100D01*
X0048773Y0233234D01*
X0051312Y0235365D01*
X0052969Y0238235D01*
X0053545Y0241500D01*
X0052969Y0244765D01*
X0051312Y0247635D01*
X0051312Y0247635D01*
X0049209Y0249400D01*
X0049445Y0249202D02*
X0118555Y0249202D01*
X0117365Y0248204D02*
X0050635Y0248204D01*
X0051560Y0247205D02*
X0116440Y0247205D01*
X0116688Y0247635D02*
X0116688Y0247635D01*
X0115863Y0246207D02*
X0052137Y0246207D01*
X0052713Y0245208D02*
X0115287Y0245208D01*
X0115031Y0244765D02*
X0115031Y0244765D01*
X0114933Y0244210D02*
X0053067Y0244210D01*
X0052969Y0244765D02*
X0052969Y0244765D01*
X0053243Y0243211D02*
X0114757Y0243211D01*
X0114581Y0242213D02*
X0053419Y0242213D01*
X0053545Y0241500D02*
X0053545Y0241500D01*
X0053495Y0241214D02*
X0114505Y0241214D01*
X0114681Y0240216D02*
X0053319Y0240216D01*
X0053142Y0239217D02*
X0114858Y0239217D01*
X0115031Y0238235D02*
X0115031Y0238235D01*
X0115040Y0238219D02*
X0052960Y0238219D01*
X0052383Y0237220D02*
X0115617Y0237220D01*
X0116193Y0236222D02*
X0051807Y0236222D01*
X0051312Y0235365D02*
X0051312Y0235365D01*
X0051143Y0235223D02*
X0116857Y0235223D01*
X0118047Y0234225D02*
X0049953Y0234225D01*
X0048773Y0233234D02*
X0048773Y0233234D01*
X0048751Y0233226D02*
X0119249Y0233226D01*
X0121992Y0232228D02*
X0046008Y0232228D01*
X0041992Y0232228D02*
X0036100Y0232228D01*
X0036100Y0233226D02*
X0039249Y0233226D01*
X0038047Y0234225D02*
X0036100Y0234225D01*
X0036100Y0235223D02*
X0036857Y0235223D01*
X0036193Y0236222D02*
X0036100Y0236222D01*
X0036100Y0231229D02*
X0131900Y0231229D01*
X0131900Y0230231D02*
X0036100Y0230231D01*
X0036100Y0229232D02*
X0131900Y0229232D01*
X0131900Y0228234D02*
X0036100Y0228234D01*
X0036100Y0227235D02*
X0131900Y0227235D01*
X0131900Y0226237D02*
X0036100Y0226237D01*
X0036100Y0225238D02*
X0131900Y0225238D01*
X0131900Y0224239D02*
X0036100Y0224239D01*
X0036100Y0223241D02*
X0131900Y0223241D01*
X0131900Y0222242D02*
X0036100Y0222242D01*
X0036100Y0221244D02*
X0131900Y0221244D01*
X0131900Y0220245D02*
X0036100Y0220245D01*
X0036100Y0219247D02*
X0131900Y0219247D01*
X0131900Y0218248D02*
X0036100Y0218248D01*
X0036100Y0217250D02*
X0131900Y0217250D01*
X0131900Y0216251D02*
X0036100Y0216251D01*
X0036100Y0215253D02*
X0131900Y0215253D01*
X0131900Y0214254D02*
X0036100Y0214254D01*
X0036100Y0213256D02*
X0131900Y0213256D01*
X0131900Y0212257D02*
X0036100Y0212257D01*
X0036100Y0211259D02*
X0131900Y0211259D01*
X0131900Y0210260D02*
X0036100Y0210260D01*
X0036100Y0209262D02*
X0131900Y0209262D01*
X0131900Y0208263D02*
X0036100Y0208263D01*
X0036100Y0207265D02*
X0131900Y0207265D01*
X0131900Y0206266D02*
X0036100Y0206266D01*
X0036100Y0205268D02*
X0131900Y0205268D01*
X0131900Y0204269D02*
X0036100Y0204269D01*
X0036100Y0203271D02*
X0131900Y0203271D01*
X0131900Y0202272D02*
X0036100Y0202272D01*
X0036100Y0201274D02*
X0131900Y0201274D01*
X0131900Y0200275D02*
X0036100Y0200275D01*
X0036100Y0199277D02*
X0131900Y0199277D01*
X0131900Y0198278D02*
X0036100Y0198278D01*
X0036100Y0197280D02*
X0131900Y0197280D01*
X0131900Y0196281D02*
X0036100Y0196281D01*
X0036100Y0195283D02*
X0131900Y0195283D01*
X0131900Y0194284D02*
X0100946Y0194284D01*
X0101784Y0193286D02*
X0131900Y0193286D01*
X0131900Y0192287D02*
X0102150Y0192287D01*
X0102150Y0191289D02*
X0131900Y0191289D01*
X0131900Y0190290D02*
X0101794Y0190290D01*
X0102508Y0189292D02*
X0100971Y0189292D01*
X0097029Y0189292D02*
X0075492Y0189292D01*
X0076254Y0184299D02*
X0079506Y0184299D01*
X0079478Y0183301D02*
X0076050Y0183301D01*
X0076050Y0182302D02*
X0079478Y0182302D01*
X0079478Y0181303D02*
X0076050Y0181303D01*
X0076050Y0180305D02*
X0079478Y0180305D01*
X0079478Y0179306D02*
X0076050Y0179306D01*
X0076050Y0178308D02*
X0079646Y0178308D01*
X0082103Y0178308D02*
X0082353Y0178308D01*
X0082353Y0179306D02*
X0082103Y0179306D01*
X0082103Y0180305D02*
X0082353Y0180305D01*
X0082353Y0181303D02*
X0082103Y0181303D01*
X0083808Y0177309D02*
X0076090Y0177309D01*
X0077088Y0176311D02*
X0131900Y0176311D01*
X0131900Y0177309D02*
X0087735Y0177309D01*
X0088722Y0178308D02*
X0131900Y0178308D01*
X0131900Y0179306D02*
X0096261Y0179306D01*
X0096915Y0180305D02*
X0131900Y0180305D01*
X0131900Y0181303D02*
X0097150Y0181303D01*
X0097077Y0182302D02*
X0131900Y0182302D01*
X0131900Y0183301D02*
X0096654Y0183301D01*
X0095474Y0184299D02*
X0101746Y0184299D01*
X0106254Y0184299D02*
X0131900Y0184299D01*
X0131900Y0185298D02*
X0106911Y0185298D01*
X0107150Y0186296D02*
X0131900Y0186296D01*
X0131900Y0187295D02*
X0107080Y0187295D01*
X0106662Y0188293D02*
X0131900Y0188293D01*
X0131900Y0189292D02*
X0105492Y0189292D01*
X0097054Y0194284D02*
X0060510Y0194284D01*
X0057490Y0194284D02*
X0036100Y0194284D01*
X0036100Y0193286D02*
X0056331Y0193286D01*
X0055917Y0192287D02*
X0036100Y0192287D01*
X0036100Y0191289D02*
X0055850Y0191289D01*
X0056092Y0190290D02*
X0036100Y0190290D01*
X0036100Y0189292D02*
X0056754Y0189292D01*
X0061246Y0189292D02*
X0062508Y0189292D01*
X0061338Y0188293D02*
X0036100Y0188293D01*
X0036100Y0187295D02*
X0060920Y0187295D01*
X0060850Y0186296D02*
X0036100Y0186296D01*
X0036100Y0185298D02*
X0061089Y0185298D01*
X0061746Y0184299D02*
X0036100Y0184299D01*
X0036100Y0183301D02*
X0071950Y0183301D01*
X0071950Y0182302D02*
X0036100Y0182302D01*
X0036100Y0181303D02*
X0071950Y0181303D01*
X0071950Y0180305D02*
X0036100Y0180305D01*
X0036100Y0179306D02*
X0071950Y0179306D01*
X0071950Y0178308D02*
X0036100Y0178308D01*
X0036100Y0177309D02*
X0071950Y0177309D01*
X0071950Y0176311D02*
X0036100Y0176311D01*
X0036100Y0175312D02*
X0072288Y0175312D01*
X0073287Y0174314D02*
X0036100Y0174314D01*
X0036100Y0173315D02*
X0074285Y0173315D01*
X0075284Y0172317D02*
X0036100Y0172317D01*
X0036100Y0171318D02*
X0076282Y0171318D01*
X0077281Y0170320D02*
X0036100Y0170320D01*
X0036100Y0169321D02*
X0078279Y0169321D01*
X0079278Y0168323D02*
X0036100Y0168323D01*
X0036100Y0167324D02*
X0080277Y0167324D01*
X0081275Y0166326D02*
X0036100Y0166326D01*
X0036100Y0165327D02*
X0082274Y0165327D01*
X0083272Y0164329D02*
X0036100Y0164329D01*
X0036100Y0163330D02*
X0084271Y0163330D01*
X0085269Y0162332D02*
X0036100Y0162332D01*
X0036100Y0161333D02*
X0067048Y0161333D01*
X0068500Y0161333D02*
X0069500Y0161333D01*
X0069500Y0160335D02*
X0068500Y0160335D01*
X0068500Y0159336D02*
X0069500Y0159336D01*
X0069500Y0158338D02*
X0068500Y0158338D01*
X0068500Y0157339D02*
X0069500Y0157339D01*
X0068500Y0156341D02*
X0051236Y0156341D01*
X0051687Y0157339D02*
X0063868Y0157339D01*
X0064130Y0158338D02*
X0052201Y0158338D01*
X0052001Y0159336D02*
X0064633Y0159336D01*
X0065481Y0160335D02*
X0051195Y0160335D01*
X0048636Y0160335D02*
X0048573Y0160335D01*
X0046014Y0160335D02*
X0045940Y0160335D01*
X0044170Y0160704D02*
X0044170Y0160704D01*
X0042062Y0160335D02*
X0040636Y0160335D01*
X0038158Y0160335D02*
X0036100Y0160335D01*
X0036100Y0159336D02*
X0037297Y0159336D01*
X0037297Y0158338D02*
X0036100Y0158338D01*
X0036100Y0157339D02*
X0037297Y0157339D01*
X0036967Y0156341D02*
X0036100Y0156341D01*
X0049209Y0147400D02*
X0118791Y0147400D01*
X0116688Y0145635D01*
X0115031Y0142765D01*
X0114455Y0139500D01*
X0114455Y0139500D01*
X0115031Y0136235D01*
X0116688Y0133365D01*
X0116688Y0133365D01*
X0119227Y0131234D01*
X0119227Y0131234D01*
X0122343Y0130100D01*
X0125657Y0130100D01*
X0128772Y0131234D01*
X0131312Y0133365D01*
X0131900Y0134383D01*
X0131900Y0051600D01*
X0103644Y0051600D01*
X0104400Y0053426D01*
X0104400Y0055574D01*
X0103578Y0057559D01*
X0102059Y0059078D01*
X0100074Y0059900D01*
X0097926Y0059900D01*
X0095941Y0059078D01*
X0094422Y0057559D01*
X0094000Y0056540D01*
X0093578Y0057559D01*
X0092059Y0059078D01*
X0091050Y0059496D01*
X0091050Y0060349D01*
X0076050Y0075349D01*
X0076050Y0082095D01*
X0076405Y0082450D01*
X0079546Y0082450D01*
X0079478Y0082197D01*
X0079478Y0079625D01*
X0082103Y0079625D01*
X0082103Y0079375D01*
X0079478Y0079375D01*
X0079478Y0076803D01*
X0079581Y0076421D01*
X0079778Y0076079D01*
X0080057Y0075800D01*
X0080399Y0075602D01*
X0080781Y0075500D01*
X0082103Y0075500D01*
X0082103Y0079375D01*
X0082353Y0079375D01*
X0082353Y0075500D01*
X0083617Y0075500D01*
X0083817Y0075300D01*
X0087726Y0075300D01*
X0088722Y0076296D01*
X0088722Y0077450D01*
X0091595Y0077450D01*
X0092216Y0076830D01*
X0093373Y0076350D01*
X0094627Y0076350D01*
X0095784Y0076830D01*
X0096670Y0077716D01*
X0097150Y0078873D01*
X0097150Y0080127D01*
X0096670Y0081284D01*
X0095784Y0082170D01*
X0095109Y0082450D01*
X0101595Y0082450D01*
X0102216Y0081830D01*
X0103373Y0081350D01*
X0104627Y0081350D01*
X0105784Y0081830D01*
X0106670Y0082716D01*
X0107150Y0083873D01*
X0107150Y0085127D01*
X0106670Y0086284D01*
X0105784Y0087170D01*
X0104627Y0087650D01*
X0103373Y0087650D01*
X0102216Y0087170D01*
X0101595Y0086550D01*
X0076405Y0086550D01*
X0075784Y0087170D01*
X0075109Y0087450D01*
X0096871Y0087450D01*
X0097216Y0087105D01*
X0098373Y0086626D01*
X0099627Y0086626D01*
X0100784Y0087105D01*
X0101670Y0087991D01*
X0102150Y0089149D01*
X0102150Y0090402D01*
X0101670Y0091560D01*
X0100784Y0092446D01*
X0099627Y0092926D01*
X0098373Y0092926D01*
X0097216Y0092446D01*
X0096330Y0091560D01*
X0096325Y0091550D01*
X0061405Y0091550D01*
X0060784Y0092170D01*
X0059627Y0092650D01*
X0058373Y0092650D01*
X0057216Y0092170D01*
X0056330Y0091284D01*
X0055850Y0090127D01*
X0055850Y0088873D01*
X0056330Y0087716D01*
X0057216Y0086830D01*
X0058373Y0086350D01*
X0059627Y0086350D01*
X0060784Y0086830D01*
X0061405Y0087450D01*
X0062891Y0087450D01*
X0062216Y0087170D01*
X0061330Y0086284D01*
X0060850Y0085127D01*
X0060850Y0083873D01*
X0061330Y0082716D01*
X0062216Y0081830D01*
X0063373Y0081350D01*
X0064627Y0081350D01*
X0065784Y0081830D01*
X0066405Y0082450D01*
X0071595Y0082450D01*
X0071950Y0082095D01*
X0071950Y0073651D01*
X0073151Y0072450D01*
X0086353Y0059248D01*
X0085941Y0059078D01*
X0084422Y0057559D01*
X0084000Y0056540D01*
X0083578Y0057559D01*
X0082059Y0059078D01*
X0080074Y0059900D01*
X0077926Y0059900D01*
X0075941Y0059078D01*
X0074422Y0057559D01*
X0073891Y0056276D01*
X0073819Y0056496D01*
X0073447Y0057225D01*
X0072966Y0057888D01*
X0072388Y0058466D01*
X0071725Y0058947D01*
X0070996Y0059319D01*
X0070218Y0059572D01*
X0069500Y0059686D01*
X0069500Y0055000D01*
X0068500Y0055000D01*
X0068500Y0059686D01*
X0067782Y0059572D01*
X0067004Y0059319D01*
X0066275Y0058947D01*
X0065612Y0058466D01*
X0065034Y0057888D01*
X0064553Y0057225D01*
X0064181Y0056496D01*
X0063928Y0055718D01*
X0063814Y0055000D01*
X0068500Y0055000D01*
X0068500Y0054000D01*
X0063814Y0054000D01*
X0063928Y0053282D01*
X0064181Y0052504D01*
X0064553Y0051775D01*
X0064679Y0051600D01*
X0051987Y0051600D01*
X0052236Y0052841D01*
X0051129Y0054502D01*
X0052236Y0056162D01*
X0051895Y0057868D01*
X0050447Y0058833D01*
X0048741Y0058492D01*
X0048605Y0058288D01*
X0048468Y0058492D01*
X0046762Y0058833D01*
X0045970Y0058305D01*
X0045571Y0058704D01*
X0044170Y0058704D01*
X0043992Y0058704D01*
X0043832Y0058704D01*
X0043832Y0058704D01*
X0042430Y0058704D01*
X0042430Y0058704D01*
X0042416Y0058690D01*
X0041349Y0057622D01*
X0041131Y0057839D01*
X0040267Y0058704D01*
X0038527Y0058704D01*
X0037903Y0058080D01*
X0037297Y0057473D01*
X0037297Y0054500D01*
X0037126Y0054500D01*
X0036100Y0053474D01*
X0036100Y0134383D01*
X0036688Y0133365D01*
X0036688Y0133365D01*
X0039227Y0131234D01*
X0039227Y0131234D01*
X0042343Y0130100D01*
X0045657Y0130100D01*
X0048772Y0131234D01*
X0048773Y0131234D01*
X0051312Y0133365D01*
X0052969Y0136235D01*
X0052969Y0136235D01*
X0053545Y0139500D01*
X0052969Y0142765D01*
X0051312Y0145635D01*
X0051312Y0145635D01*
X0049209Y0147400D01*
X0049264Y0147354D02*
X0118736Y0147354D01*
X0117546Y0146356D02*
X0050454Y0146356D01*
X0051473Y0145357D02*
X0116527Y0145357D01*
X0116688Y0145635D02*
X0116688Y0145635D01*
X0116688Y0145635D01*
X0115951Y0144359D02*
X0052049Y0144359D01*
X0052626Y0143360D02*
X0115374Y0143360D01*
X0115031Y0142765D02*
X0115031Y0142765D01*
X0114960Y0142362D02*
X0053040Y0142362D01*
X0052969Y0142765D02*
X0052969Y0142765D01*
X0053216Y0141363D02*
X0114784Y0141363D01*
X0114607Y0140365D02*
X0053393Y0140365D01*
X0053545Y0139500D02*
X0053545Y0139500D01*
X0053521Y0139366D02*
X0114479Y0139366D01*
X0114655Y0138368D02*
X0053345Y0138368D01*
X0053169Y0137369D02*
X0114831Y0137369D01*
X0115007Y0136370D02*
X0052993Y0136370D01*
X0052471Y0135372D02*
X0115529Y0135372D01*
X0115031Y0136235D02*
X0115031Y0136235D01*
X0116106Y0134373D02*
X0051894Y0134373D01*
X0051318Y0133375D02*
X0116682Y0133375D01*
X0117866Y0132376D02*
X0050134Y0132376D01*
X0051312Y0133365D02*
X0051312Y0133365D01*
X0051312Y0133365D01*
X0048944Y0131378D02*
X0119056Y0131378D01*
X0121575Y0130379D02*
X0046425Y0130379D01*
X0041575Y0130379D02*
X0036100Y0130379D01*
X0036100Y0129381D02*
X0131900Y0129381D01*
X0131900Y0130379D02*
X0126425Y0130379D01*
X0125657Y0130100D02*
X0125657Y0130100D01*
X0128944Y0131378D02*
X0131900Y0131378D01*
X0131900Y0132376D02*
X0130134Y0132376D01*
X0131312Y0133365D02*
X0131312Y0133365D01*
X0131318Y0133375D02*
X0131900Y0133375D01*
X0131894Y0134373D02*
X0131900Y0134373D01*
X0131900Y0128382D02*
X0036100Y0128382D01*
X0036100Y0127384D02*
X0131900Y0127384D01*
X0131900Y0126385D02*
X0036100Y0126385D01*
X0036100Y0125387D02*
X0131900Y0125387D01*
X0131900Y0124388D02*
X0036100Y0124388D01*
X0036100Y0123390D02*
X0131900Y0123390D01*
X0131900Y0122391D02*
X0036100Y0122391D01*
X0036100Y0121393D02*
X0131900Y0121393D01*
X0131900Y0120394D02*
X0036100Y0120394D01*
X0036100Y0119396D02*
X0131900Y0119396D01*
X0131900Y0118397D02*
X0036100Y0118397D01*
X0036100Y0117399D02*
X0131900Y0117399D01*
X0131900Y0116400D02*
X0036100Y0116400D01*
X0036100Y0115402D02*
X0131900Y0115402D01*
X0131900Y0114403D02*
X0036100Y0114403D01*
X0036100Y0113405D02*
X0131900Y0113405D01*
X0131900Y0112406D02*
X0036100Y0112406D01*
X0036100Y0111408D02*
X0131900Y0111408D01*
X0131900Y0110409D02*
X0036100Y0110409D01*
X0036100Y0109411D02*
X0131900Y0109411D01*
X0131900Y0108412D02*
X0036100Y0108412D01*
X0036100Y0107414D02*
X0131900Y0107414D01*
X0131900Y0106415D02*
X0036100Y0106415D01*
X0036100Y0105417D02*
X0131900Y0105417D01*
X0131900Y0104418D02*
X0036100Y0104418D01*
X0036100Y0103420D02*
X0131900Y0103420D01*
X0131900Y0102421D02*
X0036100Y0102421D01*
X0036100Y0101423D02*
X0131900Y0101423D01*
X0131900Y0100424D02*
X0036100Y0100424D01*
X0036100Y0099426D02*
X0131900Y0099426D01*
X0131900Y0098427D02*
X0036100Y0098427D01*
X0036100Y0097429D02*
X0131900Y0097429D01*
X0131900Y0096430D02*
X0036100Y0096430D01*
X0036100Y0095432D02*
X0131900Y0095432D01*
X0131900Y0094433D02*
X0036100Y0094433D01*
X0036100Y0093434D02*
X0131900Y0093434D01*
X0131900Y0092436D02*
X0100794Y0092436D01*
X0101721Y0091437D02*
X0131900Y0091437D01*
X0131900Y0090439D02*
X0102135Y0090439D01*
X0102150Y0089440D02*
X0131900Y0089440D01*
X0131900Y0088442D02*
X0101857Y0088442D01*
X0101123Y0087443D02*
X0102875Y0087443D01*
X0105125Y0087443D02*
X0131900Y0087443D01*
X0131900Y0086445D02*
X0106510Y0086445D01*
X0107018Y0085446D02*
X0131900Y0085446D01*
X0131900Y0084448D02*
X0107150Y0084448D01*
X0106974Y0083449D02*
X0131900Y0083449D01*
X0131900Y0082451D02*
X0106406Y0082451D01*
X0104874Y0081452D02*
X0131900Y0081452D01*
X0131900Y0080454D02*
X0097014Y0080454D01*
X0097150Y0079455D02*
X0131900Y0079455D01*
X0131900Y0078457D02*
X0096977Y0078457D01*
X0096413Y0077458D02*
X0131900Y0077458D01*
X0131900Y0076460D02*
X0094892Y0076460D01*
X0093108Y0076460D02*
X0088722Y0076460D01*
X0087887Y0075461D02*
X0131900Y0075461D01*
X0131900Y0074463D02*
X0076936Y0074463D01*
X0076050Y0075461D02*
X0083656Y0075461D01*
X0082353Y0076460D02*
X0082103Y0076460D01*
X0082103Y0077458D02*
X0082353Y0077458D01*
X0082353Y0078457D02*
X0082103Y0078457D01*
X0082103Y0079455D02*
X0076050Y0079455D01*
X0076050Y0078457D02*
X0079478Y0078457D01*
X0079478Y0077458D02*
X0076050Y0077458D01*
X0076050Y0076460D02*
X0079570Y0076460D01*
X0077935Y0073464D02*
X0131900Y0073464D01*
X0131900Y0072466D02*
X0078933Y0072466D01*
X0079932Y0071467D02*
X0131900Y0071467D01*
X0131900Y0070469D02*
X0080930Y0070469D01*
X0081929Y0069470D02*
X0131900Y0069470D01*
X0131900Y0068472D02*
X0082927Y0068472D01*
X0083926Y0067473D02*
X0131900Y0067473D01*
X0131900Y0066475D02*
X0084924Y0066475D01*
X0085923Y0065476D02*
X0131900Y0065476D01*
X0131900Y0064478D02*
X0086921Y0064478D01*
X0087920Y0063479D02*
X0131900Y0063479D01*
X0131900Y0062481D02*
X0088918Y0062481D01*
X0089917Y0061482D02*
X0131900Y0061482D01*
X0131900Y0060484D02*
X0090916Y0060484D01*
X0091076Y0059485D02*
X0096924Y0059485D01*
X0095350Y0058487D02*
X0092650Y0058487D01*
X0093607Y0057488D02*
X0094393Y0057488D01*
X0101076Y0059485D02*
X0131900Y0059485D01*
X0131900Y0058487D02*
X0102650Y0058487D01*
X0103607Y0057488D02*
X0131900Y0057488D01*
X0131900Y0056490D02*
X0104021Y0056490D01*
X0104400Y0055491D02*
X0131900Y0055491D01*
X0131900Y0054493D02*
X0104400Y0054493D01*
X0104400Y0053494D02*
X0131900Y0053494D01*
X0131900Y0052496D02*
X0104015Y0052496D01*
X0086116Y0059485D02*
X0081076Y0059485D01*
X0082650Y0058487D02*
X0085350Y0058487D01*
X0084393Y0057488D02*
X0083607Y0057488D01*
X0085117Y0060484D02*
X0036100Y0060484D01*
X0036100Y0061482D02*
X0084119Y0061482D01*
X0083120Y0062481D02*
X0036100Y0062481D01*
X0036100Y0063479D02*
X0082122Y0063479D01*
X0081123Y0064478D02*
X0036100Y0064478D01*
X0036100Y0065476D02*
X0080125Y0065476D01*
X0079126Y0066475D02*
X0036100Y0066475D01*
X0036100Y0067473D02*
X0078128Y0067473D01*
X0077129Y0068472D02*
X0036100Y0068472D01*
X0036100Y0069470D02*
X0076131Y0069470D01*
X0075132Y0070469D02*
X0036100Y0070469D01*
X0036100Y0071467D02*
X0074134Y0071467D01*
X0073135Y0072466D02*
X0036100Y0072466D01*
X0036100Y0073464D02*
X0072137Y0073464D01*
X0071950Y0074463D02*
X0036100Y0074463D01*
X0036100Y0075461D02*
X0071950Y0075461D01*
X0071950Y0076460D02*
X0036100Y0076460D01*
X0036100Y0077458D02*
X0071950Y0077458D01*
X0071950Y0078457D02*
X0036100Y0078457D01*
X0036100Y0079455D02*
X0071950Y0079455D01*
X0071950Y0080454D02*
X0036100Y0080454D01*
X0036100Y0081452D02*
X0063126Y0081452D01*
X0064874Y0081452D02*
X0071950Y0081452D01*
X0076050Y0081452D02*
X0079478Y0081452D01*
X0079478Y0080454D02*
X0076050Y0080454D01*
X0075125Y0087443D02*
X0096877Y0087443D01*
X0097206Y0092436D02*
X0060143Y0092436D01*
X0057857Y0092436D02*
X0036100Y0092436D01*
X0036100Y0091437D02*
X0056483Y0091437D01*
X0055979Y0090439D02*
X0036100Y0090439D01*
X0036100Y0089440D02*
X0055850Y0089440D01*
X0056029Y0088442D02*
X0036100Y0088442D01*
X0036100Y0087443D02*
X0056602Y0087443D01*
X0058144Y0086445D02*
X0036100Y0086445D01*
X0036100Y0085446D02*
X0060982Y0085446D01*
X0060850Y0084448D02*
X0036100Y0084448D01*
X0036100Y0083449D02*
X0061026Y0083449D01*
X0061594Y0082451D02*
X0036100Y0082451D01*
X0036100Y0059485D02*
X0067515Y0059485D01*
X0068500Y0059485D02*
X0069500Y0059485D01*
X0070485Y0059485D02*
X0076924Y0059485D01*
X0075350Y0058487D02*
X0072360Y0058487D01*
X0073257Y0057488D02*
X0074393Y0057488D01*
X0073979Y0056490D02*
X0073821Y0056490D01*
X0069500Y0056490D02*
X0068500Y0056490D01*
X0068500Y0057488D02*
X0069500Y0057488D01*
X0069500Y0058487D02*
X0068500Y0058487D01*
X0065640Y0058487D02*
X0050967Y0058487D01*
X0051971Y0057488D02*
X0064743Y0057488D01*
X0064179Y0056490D02*
X0052170Y0056490D01*
X0051788Y0055491D02*
X0063892Y0055491D01*
X0063895Y0053494D02*
X0051800Y0053494D01*
X0052167Y0052496D02*
X0064185Y0052496D01*
X0068500Y0054493D02*
X0051135Y0054493D01*
X0048737Y0058487D02*
X0048472Y0058487D01*
X0046242Y0058487D02*
X0045788Y0058487D01*
X0044170Y0058704D02*
X0044170Y0058704D01*
X0042213Y0058487D02*
X0040484Y0058487D01*
X0038310Y0058487D02*
X0036100Y0058487D01*
X0036100Y0057488D02*
X0037312Y0057488D01*
X0037297Y0056490D02*
X0036100Y0056490D01*
X0036100Y0055491D02*
X0037297Y0055491D01*
X0037118Y0054493D02*
X0036100Y0054493D01*
X0036100Y0053494D02*
X0036120Y0053494D01*
X0068500Y0055491D02*
X0069500Y0055491D01*
X0096502Y0081452D02*
X0103126Y0081452D01*
X0138100Y0081452D02*
X0165126Y0081452D01*
X0165373Y0081350D02*
X0166627Y0081350D01*
X0167784Y0081830D01*
X0168405Y0082450D01*
X0173595Y0082450D01*
X0173950Y0082095D01*
X0173950Y0073651D01*
X0175151Y0072450D01*
X0188353Y0059248D01*
X0187941Y0059078D01*
X0186422Y0057559D01*
X0186000Y0056540D01*
X0185578Y0057559D01*
X0184059Y0059078D01*
X0182074Y0059900D01*
X0179926Y0059900D01*
X0177941Y0059078D01*
X0176422Y0057559D01*
X0175891Y0056276D01*
X0175819Y0056496D01*
X0175447Y0057225D01*
X0174966Y0057888D01*
X0174388Y0058466D01*
X0173725Y0058947D01*
X0172996Y0059319D01*
X0172218Y0059572D01*
X0171500Y0059686D01*
X0171500Y0055000D01*
X0170500Y0055000D01*
X0170500Y0059686D01*
X0169782Y0059572D01*
X0169004Y0059319D01*
X0168275Y0058947D01*
X0167612Y0058466D01*
X0167034Y0057888D01*
X0166553Y0057225D01*
X0166181Y0056496D01*
X0165928Y0055718D01*
X0165814Y0055000D01*
X0170500Y0055000D01*
X0170500Y0054000D01*
X0165814Y0054000D01*
X0165928Y0053282D01*
X0166181Y0052504D01*
X0166553Y0051775D01*
X0166679Y0051600D01*
X0153987Y0051600D01*
X0154236Y0052841D01*
X0153129Y0054502D01*
X0154236Y0056162D01*
X0153895Y0057868D01*
X0152447Y0058833D01*
X0150741Y0058492D01*
X0150605Y0058288D01*
X0150468Y0058492D01*
X0148762Y0058833D01*
X0147970Y0058305D01*
X0147571Y0058704D01*
X0146170Y0058704D01*
X0145832Y0058704D01*
X0145832Y0058704D01*
X0144430Y0058704D01*
X0144430Y0058704D01*
X0144416Y0058690D01*
X0143349Y0057622D01*
X0143131Y0057839D01*
X0142267Y0058704D01*
X0140527Y0058704D01*
X0139903Y0058080D01*
X0139297Y0057473D01*
X0139297Y0054500D01*
X0139126Y0054500D01*
X0138100Y0053474D01*
X0138100Y0134383D01*
X0138688Y0133365D01*
X0138688Y0133365D01*
X0141227Y0131234D01*
X0141227Y0131234D01*
X0144343Y0130100D01*
X0147657Y0130100D01*
X0150772Y0131234D01*
X0150773Y0131234D01*
X0153312Y0133365D01*
X0154969Y0136235D01*
X0154969Y0136235D01*
X0155545Y0139500D01*
X0154969Y0142765D01*
X0153312Y0145635D01*
X0151209Y0147400D01*
X0220791Y0147400D01*
X0218688Y0145635D01*
X0217031Y0142765D01*
X0216455Y0139500D01*
X0217031Y0136235D01*
X0218688Y0133365D01*
X0221227Y0131234D01*
X0221227Y0131234D01*
X0224343Y0130100D01*
X0227657Y0130100D01*
X0230772Y0131234D01*
X0230773Y0131234D01*
X0233312Y0133365D01*
X0233900Y0134383D01*
X0233900Y0051600D01*
X0205644Y0051600D01*
X0206400Y0053426D01*
X0206400Y0055574D01*
X0205578Y0057559D01*
X0204059Y0059078D01*
X0202074Y0059900D01*
X0199926Y0059900D01*
X0197941Y0059078D01*
X0196422Y0057559D01*
X0196000Y0056540D01*
X0195578Y0057559D01*
X0194059Y0059078D01*
X0193050Y0059496D01*
X0193050Y0060349D01*
X0178050Y0075349D01*
X0178050Y0082095D01*
X0178405Y0082450D01*
X0181546Y0082450D01*
X0181478Y0082197D01*
X0181478Y0079625D01*
X0184103Y0079625D01*
X0184103Y0079375D01*
X0181478Y0079375D01*
X0181478Y0076803D01*
X0181581Y0076421D01*
X0181778Y0076079D01*
X0182057Y0075800D01*
X0182399Y0075602D01*
X0182781Y0075500D01*
X0184103Y0075500D01*
X0184103Y0079375D01*
X0184353Y0079375D01*
X0184353Y0075500D01*
X0185617Y0075500D01*
X0185817Y0075300D01*
X0189726Y0075300D01*
X0190722Y0076296D01*
X0190722Y0077450D01*
X0193595Y0077450D01*
X0194216Y0076830D01*
X0195373Y0076350D01*
X0196627Y0076350D01*
X0197784Y0076830D01*
X0198670Y0077716D01*
X0199150Y0078873D01*
X0199150Y0080127D01*
X0198670Y0081284D01*
X0197784Y0082170D01*
X0197109Y0082450D01*
X0203595Y0082450D01*
X0204216Y0081830D01*
X0205373Y0081350D01*
X0206627Y0081350D01*
X0207784Y0081830D01*
X0208670Y0082716D01*
X0209150Y0083873D01*
X0209150Y0085127D01*
X0208670Y0086284D01*
X0207784Y0087170D01*
X0206627Y0087650D01*
X0205373Y0087650D01*
X0204216Y0087170D01*
X0203595Y0086550D01*
X0178405Y0086550D01*
X0177784Y0087170D01*
X0177109Y0087450D01*
X0198871Y0087450D01*
X0199216Y0087105D01*
X0200373Y0086626D01*
X0201627Y0086626D01*
X0202784Y0087105D01*
X0203670Y0087991D01*
X0204150Y0089149D01*
X0204150Y0090402D01*
X0203670Y0091560D01*
X0202784Y0092446D01*
X0201627Y0092926D01*
X0200373Y0092926D01*
X0199216Y0092446D01*
X0198330Y0091560D01*
X0198325Y0091550D01*
X0163405Y0091550D01*
X0162784Y0092170D01*
X0161627Y0092650D01*
X0160373Y0092650D01*
X0159216Y0092170D01*
X0158330Y0091284D01*
X0157850Y0090127D01*
X0157850Y0088873D01*
X0158330Y0087716D01*
X0159216Y0086830D01*
X0160373Y0086350D01*
X0161627Y0086350D01*
X0162784Y0086830D01*
X0163405Y0087450D01*
X0164891Y0087450D01*
X0164216Y0087170D01*
X0163330Y0086284D01*
X0162850Y0085127D01*
X0162850Y0083873D01*
X0163330Y0082716D01*
X0164216Y0081830D01*
X0165373Y0081350D01*
X0166874Y0081452D02*
X0173950Y0081452D01*
X0173950Y0080454D02*
X0138100Y0080454D01*
X0138100Y0079455D02*
X0173950Y0079455D01*
X0173950Y0078457D02*
X0138100Y0078457D01*
X0138100Y0077458D02*
X0173950Y0077458D01*
X0173950Y0076460D02*
X0138100Y0076460D01*
X0138100Y0075461D02*
X0173950Y0075461D01*
X0173950Y0074463D02*
X0138100Y0074463D01*
X0138100Y0073464D02*
X0174137Y0073464D01*
X0175135Y0072466D02*
X0138100Y0072466D01*
X0138100Y0071467D02*
X0176134Y0071467D01*
X0177132Y0070469D02*
X0138100Y0070469D01*
X0138100Y0069470D02*
X0178131Y0069470D01*
X0179129Y0068472D02*
X0138100Y0068472D01*
X0138100Y0067473D02*
X0180128Y0067473D01*
X0181126Y0066475D02*
X0138100Y0066475D01*
X0138100Y0065476D02*
X0182125Y0065476D01*
X0183123Y0064478D02*
X0138100Y0064478D01*
X0138100Y0063479D02*
X0184122Y0063479D01*
X0185120Y0062481D02*
X0138100Y0062481D01*
X0138100Y0061482D02*
X0186119Y0061482D01*
X0187117Y0060484D02*
X0138100Y0060484D01*
X0138100Y0059485D02*
X0169515Y0059485D01*
X0170500Y0059485D02*
X0171500Y0059485D01*
X0172485Y0059485D02*
X0178924Y0059485D01*
X0177350Y0058487D02*
X0174360Y0058487D01*
X0175257Y0057488D02*
X0176393Y0057488D01*
X0175979Y0056490D02*
X0175821Y0056490D01*
X0171500Y0056490D02*
X0170500Y0056490D01*
X0170500Y0057488D02*
X0171500Y0057488D01*
X0171500Y0058487D02*
X0170500Y0058487D01*
X0167640Y0058487D02*
X0152967Y0058487D01*
X0153971Y0057488D02*
X0166743Y0057488D01*
X0166179Y0056490D02*
X0154170Y0056490D01*
X0153788Y0055491D02*
X0165892Y0055491D01*
X0165895Y0053494D02*
X0153800Y0053494D01*
X0154167Y0052496D02*
X0166185Y0052496D01*
X0170500Y0054493D02*
X0153135Y0054493D01*
X0150737Y0058487D02*
X0150472Y0058487D01*
X0148242Y0058487D02*
X0147788Y0058487D01*
X0146170Y0058704D02*
X0146170Y0058704D01*
X0144213Y0058487D02*
X0142484Y0058487D01*
X0140310Y0058487D02*
X0138100Y0058487D01*
X0138100Y0057488D02*
X0139312Y0057488D01*
X0139297Y0056490D02*
X0138100Y0056490D01*
X0138100Y0055491D02*
X0139297Y0055491D01*
X0139118Y0054493D02*
X0138100Y0054493D01*
X0138100Y0053494D02*
X0138120Y0053494D01*
X0138100Y0082451D02*
X0163594Y0082451D01*
X0163026Y0083449D02*
X0138100Y0083449D01*
X0138100Y0084448D02*
X0162850Y0084448D01*
X0162982Y0085446D02*
X0138100Y0085446D01*
X0138100Y0086445D02*
X0160144Y0086445D01*
X0161856Y0086445D02*
X0163490Y0086445D01*
X0163398Y0087443D02*
X0164875Y0087443D01*
X0162143Y0092436D02*
X0199206Y0092436D01*
X0202794Y0092436D02*
X0233900Y0092436D01*
X0233900Y0093434D02*
X0138100Y0093434D01*
X0138100Y0092436D02*
X0159857Y0092436D01*
X0158483Y0091437D02*
X0138100Y0091437D01*
X0138100Y0090439D02*
X0157979Y0090439D01*
X0157850Y0089440D02*
X0138100Y0089440D01*
X0138100Y0088442D02*
X0158029Y0088442D01*
X0158602Y0087443D02*
X0138100Y0087443D01*
X0138100Y0094433D02*
X0233900Y0094433D01*
X0233900Y0095432D02*
X0138100Y0095432D01*
X0138100Y0096430D02*
X0233900Y0096430D01*
X0233900Y0097429D02*
X0138100Y0097429D01*
X0138100Y0098427D02*
X0233900Y0098427D01*
X0233900Y0099426D02*
X0138100Y0099426D01*
X0138100Y0100424D02*
X0233900Y0100424D01*
X0233900Y0101423D02*
X0138100Y0101423D01*
X0138100Y0102421D02*
X0233900Y0102421D01*
X0233900Y0103420D02*
X0138100Y0103420D01*
X0138100Y0104418D02*
X0233900Y0104418D01*
X0233900Y0105417D02*
X0138100Y0105417D01*
X0138100Y0106415D02*
X0233900Y0106415D01*
X0233900Y0107414D02*
X0138100Y0107414D01*
X0138100Y0108412D02*
X0233900Y0108412D01*
X0233900Y0109411D02*
X0138100Y0109411D01*
X0138100Y0110409D02*
X0233900Y0110409D01*
X0233900Y0111408D02*
X0138100Y0111408D01*
X0138100Y0112406D02*
X0233900Y0112406D01*
X0233900Y0113405D02*
X0138100Y0113405D01*
X0138100Y0114403D02*
X0233900Y0114403D01*
X0233900Y0115402D02*
X0138100Y0115402D01*
X0138100Y0116400D02*
X0233900Y0116400D01*
X0233900Y0117399D02*
X0138100Y0117399D01*
X0138100Y0118397D02*
X0233900Y0118397D01*
X0233900Y0119396D02*
X0138100Y0119396D01*
X0138100Y0120394D02*
X0233900Y0120394D01*
X0233900Y0121393D02*
X0138100Y0121393D01*
X0138100Y0122391D02*
X0233900Y0122391D01*
X0233900Y0123390D02*
X0138100Y0123390D01*
X0138100Y0124388D02*
X0233900Y0124388D01*
X0233900Y0125387D02*
X0138100Y0125387D01*
X0138100Y0126385D02*
X0233900Y0126385D01*
X0233900Y0127384D02*
X0138100Y0127384D01*
X0138100Y0128382D02*
X0233900Y0128382D01*
X0233900Y0129381D02*
X0138100Y0129381D01*
X0138100Y0130379D02*
X0143575Y0130379D01*
X0141056Y0131378D02*
X0138100Y0131378D01*
X0138100Y0132376D02*
X0139866Y0132376D01*
X0138682Y0133375D02*
X0138100Y0133375D01*
X0138100Y0134373D02*
X0138106Y0134373D01*
X0148425Y0130379D02*
X0223575Y0130379D01*
X0221056Y0131378D02*
X0150944Y0131378D01*
X0152134Y0132376D02*
X0219866Y0132376D01*
X0218682Y0133375D02*
X0153318Y0133375D01*
X0153312Y0133365D02*
X0153312Y0133365D01*
X0153312Y0133365D01*
X0153894Y0134373D02*
X0218106Y0134373D01*
X0217529Y0135372D02*
X0154471Y0135372D01*
X0154993Y0136370D02*
X0217007Y0136370D01*
X0216831Y0137369D02*
X0155169Y0137369D01*
X0155345Y0138368D02*
X0216655Y0138368D01*
X0216479Y0139366D02*
X0155521Y0139366D01*
X0155545Y0139500D02*
X0155545Y0139500D01*
X0155393Y0140365D02*
X0216607Y0140365D01*
X0216455Y0139500D02*
X0216455Y0139500D01*
X0216784Y0141363D02*
X0155216Y0141363D01*
X0155040Y0142362D02*
X0216960Y0142362D01*
X0217031Y0142765D02*
X0217031Y0142765D01*
X0217374Y0143360D02*
X0154626Y0143360D01*
X0154969Y0142765D02*
X0154969Y0142765D01*
X0154049Y0144359D02*
X0217951Y0144359D01*
X0218527Y0145357D02*
X0153473Y0145357D01*
X0152454Y0146356D02*
X0219546Y0146356D01*
X0218688Y0145635D02*
X0218688Y0145635D01*
X0218688Y0145635D01*
X0220736Y0147354D02*
X0151264Y0147354D01*
X0153987Y0153600D02*
X0154236Y0154841D01*
X0153129Y0156502D01*
X0154236Y0158162D01*
X0153895Y0159868D01*
X0152447Y0160833D01*
X0150741Y0160492D01*
X0150605Y0160288D01*
X0150468Y0160492D01*
X0148762Y0160833D01*
X0147970Y0160305D01*
X0147571Y0160704D01*
X0146170Y0160704D01*
X0145992Y0160704D01*
X0145832Y0160704D01*
X0145832Y0160704D01*
X0144430Y0160704D01*
X0144430Y0160704D01*
X0144416Y0160690D01*
X0143349Y0159622D01*
X0143131Y0159839D01*
X0142267Y0160704D01*
X0140527Y0160704D01*
X0139903Y0160080D01*
X0139297Y0159473D01*
X0139297Y0156500D01*
X0139126Y0156500D01*
X0138100Y0155474D01*
X0138100Y0236383D01*
X0138688Y0235365D01*
X0141227Y0233234D01*
X0141227Y0233234D01*
X0144343Y0232100D01*
X0147657Y0232100D01*
X0150772Y0233234D01*
X0150773Y0233234D01*
X0153312Y0235365D01*
X0154969Y0238235D01*
X0154969Y0238235D01*
X0155545Y0241500D01*
X0154969Y0244765D01*
X0153312Y0247635D01*
X0153312Y0247635D01*
X0151209Y0249400D01*
X0220791Y0249400D01*
X0218688Y0247635D01*
X0217031Y0244765D01*
X0216455Y0241500D01*
X0216455Y0241500D01*
X0217031Y0238235D01*
X0218688Y0235365D01*
X0218688Y0235365D01*
X0221227Y0233234D01*
X0221227Y0233234D01*
X0224343Y0232100D01*
X0227657Y0232100D01*
X0230772Y0233234D01*
X0230773Y0233234D01*
X0233312Y0235365D01*
X0233900Y0236383D01*
X0233900Y0153600D01*
X0205644Y0153600D01*
X0206400Y0155426D01*
X0206400Y0157574D01*
X0205578Y0159559D01*
X0204059Y0161078D01*
X0202074Y0161900D01*
X0199926Y0161900D01*
X0197941Y0161078D01*
X0196422Y0159559D01*
X0196000Y0158540D01*
X0195578Y0159559D01*
X0194059Y0161078D01*
X0193050Y0161496D01*
X0193050Y0162349D01*
X0178050Y0177349D01*
X0178050Y0184095D01*
X0178405Y0184450D01*
X0181546Y0184450D01*
X0181478Y0184197D01*
X0181478Y0181625D01*
X0184103Y0181625D01*
X0184103Y0181375D01*
X0181478Y0181375D01*
X0181478Y0178803D01*
X0181581Y0178421D01*
X0181778Y0178079D01*
X0182057Y0177800D01*
X0182399Y0177602D01*
X0182781Y0177500D01*
X0184103Y0177500D01*
X0184103Y0181375D01*
X0184353Y0181375D01*
X0184353Y0177500D01*
X0185617Y0177500D01*
X0185817Y0177300D01*
X0189726Y0177300D01*
X0190722Y0178296D01*
X0190722Y0179450D01*
X0193595Y0179450D01*
X0194216Y0178830D01*
X0195373Y0178350D01*
X0196627Y0178350D01*
X0197784Y0178830D01*
X0198670Y0179716D01*
X0199150Y0180873D01*
X0199150Y0182127D01*
X0198670Y0183284D01*
X0197784Y0184170D01*
X0197109Y0184450D01*
X0203595Y0184450D01*
X0204216Y0183830D01*
X0205373Y0183350D01*
X0206627Y0183350D01*
X0207784Y0183830D01*
X0208670Y0184716D01*
X0209150Y0185873D01*
X0209150Y0187127D01*
X0208670Y0188284D01*
X0207784Y0189170D01*
X0206627Y0189650D01*
X0205373Y0189650D01*
X0204216Y0189170D01*
X0203595Y0188550D01*
X0178405Y0188550D01*
X0177784Y0189170D01*
X0177109Y0189450D01*
X0198871Y0189450D01*
X0199216Y0189105D01*
X0200373Y0188626D01*
X0201627Y0188626D01*
X0202784Y0189105D01*
X0203670Y0189991D01*
X0204150Y0191149D01*
X0204150Y0192402D01*
X0203670Y0193560D01*
X0202784Y0194446D01*
X0201627Y0194926D01*
X0200373Y0194926D01*
X0199216Y0194446D01*
X0198330Y0193560D01*
X0198325Y0193550D01*
X0163405Y0193550D01*
X0162784Y0194170D01*
X0161627Y0194650D01*
X0160373Y0194650D01*
X0159216Y0194170D01*
X0158330Y0193284D01*
X0157850Y0192127D01*
X0157850Y0190873D01*
X0158330Y0189716D01*
X0159216Y0188830D01*
X0160373Y0188350D01*
X0161627Y0188350D01*
X0162784Y0188830D01*
X0163405Y0189450D01*
X0164891Y0189450D01*
X0164216Y0189170D01*
X0163330Y0188284D01*
X0162850Y0187127D01*
X0162850Y0185873D01*
X0163330Y0184716D01*
X0164216Y0183830D01*
X0165373Y0183350D01*
X0166627Y0183350D01*
X0167784Y0183830D01*
X0168405Y0184450D01*
X0173595Y0184450D01*
X0173950Y0184095D01*
X0173950Y0175651D01*
X0175151Y0174450D01*
X0188353Y0161248D01*
X0187941Y0161078D01*
X0186422Y0159559D01*
X0186000Y0158540D01*
X0185578Y0159559D01*
X0184059Y0161078D01*
X0182074Y0161900D01*
X0179926Y0161900D01*
X0177941Y0161078D01*
X0176422Y0159559D01*
X0175891Y0158276D01*
X0175819Y0158496D01*
X0175447Y0159225D01*
X0174966Y0159888D01*
X0174388Y0160466D01*
X0173725Y0160947D01*
X0172996Y0161319D01*
X0172218Y0161572D01*
X0171500Y0161686D01*
X0171500Y0157000D01*
X0170500Y0157000D01*
X0170500Y0161686D01*
X0169782Y0161572D01*
X0169004Y0161319D01*
X0168275Y0160947D01*
X0167612Y0160466D01*
X0167034Y0159888D01*
X0166553Y0159225D01*
X0166181Y0158496D01*
X0165928Y0157718D01*
X0165814Y0157000D01*
X0170500Y0157000D01*
X0170500Y0156000D01*
X0165814Y0156000D01*
X0165928Y0155282D01*
X0166181Y0154504D01*
X0166553Y0153775D01*
X0166679Y0153600D01*
X0153987Y0153600D01*
X0154136Y0154344D02*
X0166263Y0154344D01*
X0165919Y0155342D02*
X0153902Y0155342D01*
X0153236Y0156341D02*
X0170500Y0156341D01*
X0170500Y0157339D02*
X0171500Y0157339D01*
X0171500Y0158338D02*
X0170500Y0158338D01*
X0170500Y0159336D02*
X0171500Y0159336D01*
X0171500Y0160335D02*
X0170500Y0160335D01*
X0170500Y0161333D02*
X0171500Y0161333D01*
X0172952Y0161333D02*
X0178558Y0161333D01*
X0177198Y0160335D02*
X0174519Y0160335D01*
X0175367Y0159336D02*
X0176330Y0159336D01*
X0175916Y0158338D02*
X0175870Y0158338D01*
X0169048Y0161333D02*
X0138100Y0161333D01*
X0138100Y0160335D02*
X0140158Y0160335D01*
X0139297Y0159336D02*
X0138100Y0159336D01*
X0138100Y0158338D02*
X0139297Y0158338D01*
X0139297Y0157339D02*
X0138100Y0157339D01*
X0138100Y0156341D02*
X0138967Y0156341D01*
X0142636Y0160335D02*
X0144062Y0160335D01*
X0146170Y0160704D02*
X0146170Y0160704D01*
X0147940Y0160335D02*
X0148014Y0160335D01*
X0150573Y0160335D02*
X0150636Y0160335D01*
X0153195Y0160335D02*
X0167481Y0160335D01*
X0166633Y0159336D02*
X0154001Y0159336D01*
X0154201Y0158338D02*
X0166130Y0158338D01*
X0165868Y0157339D02*
X0153687Y0157339D01*
X0138100Y0162332D02*
X0187269Y0162332D01*
X0186271Y0163330D02*
X0138100Y0163330D01*
X0138100Y0164329D02*
X0185272Y0164329D01*
X0184274Y0165327D02*
X0138100Y0165327D01*
X0138100Y0166326D02*
X0183275Y0166326D01*
X0182277Y0167324D02*
X0138100Y0167324D01*
X0138100Y0168323D02*
X0181278Y0168323D01*
X0180279Y0169321D02*
X0138100Y0169321D01*
X0138100Y0170320D02*
X0179281Y0170320D01*
X0178282Y0171318D02*
X0138100Y0171318D01*
X0138100Y0172317D02*
X0177284Y0172317D01*
X0176285Y0173315D02*
X0138100Y0173315D01*
X0138100Y0174314D02*
X0175287Y0174314D01*
X0174288Y0175312D02*
X0138100Y0175312D01*
X0138100Y0176311D02*
X0173950Y0176311D01*
X0173950Y0177309D02*
X0138100Y0177309D01*
X0138100Y0178308D02*
X0173950Y0178308D01*
X0173950Y0179306D02*
X0138100Y0179306D01*
X0138100Y0180305D02*
X0173950Y0180305D01*
X0173950Y0181303D02*
X0138100Y0181303D01*
X0138100Y0182302D02*
X0173950Y0182302D01*
X0173950Y0183301D02*
X0138100Y0183301D01*
X0138100Y0184299D02*
X0163746Y0184299D01*
X0163089Y0185298D02*
X0138100Y0185298D01*
X0138100Y0186296D02*
X0162850Y0186296D01*
X0162920Y0187295D02*
X0138100Y0187295D01*
X0138100Y0188293D02*
X0163338Y0188293D01*
X0163246Y0189292D02*
X0164508Y0189292D01*
X0162510Y0194284D02*
X0199054Y0194284D01*
X0202946Y0194284D02*
X0233900Y0194284D01*
X0233900Y0193286D02*
X0203784Y0193286D01*
X0204150Y0192287D02*
X0233900Y0192287D01*
X0233900Y0191289D02*
X0204150Y0191289D01*
X0203794Y0190290D02*
X0233900Y0190290D01*
X0233900Y0189292D02*
X0207492Y0189292D01*
X0208662Y0188293D02*
X0233900Y0188293D01*
X0233900Y0187295D02*
X0209080Y0187295D01*
X0209150Y0186296D02*
X0233900Y0186296D01*
X0233900Y0185298D02*
X0208911Y0185298D01*
X0208254Y0184299D02*
X0233900Y0184299D01*
X0233900Y0183301D02*
X0198654Y0183301D01*
X0199077Y0182302D02*
X0233900Y0182302D01*
X0233900Y0181303D02*
X0199150Y0181303D01*
X0198915Y0180305D02*
X0233900Y0180305D01*
X0233900Y0179306D02*
X0198261Y0179306D01*
X0193739Y0179306D02*
X0190722Y0179306D01*
X0190722Y0178308D02*
X0233900Y0178308D01*
X0233900Y0177309D02*
X0189735Y0177309D01*
X0185808Y0177309D02*
X0178090Y0177309D01*
X0178050Y0178308D02*
X0181646Y0178308D01*
X0181478Y0179306D02*
X0178050Y0179306D01*
X0178050Y0180305D02*
X0181478Y0180305D01*
X0181478Y0181303D02*
X0178050Y0181303D01*
X0178050Y0182302D02*
X0181478Y0182302D01*
X0181478Y0183301D02*
X0178050Y0183301D01*
X0178254Y0184299D02*
X0181506Y0184299D01*
X0184103Y0181303D02*
X0184353Y0181303D01*
X0184353Y0180305D02*
X0184103Y0180305D01*
X0184103Y0179306D02*
X0184353Y0179306D01*
X0184353Y0178308D02*
X0184103Y0178308D01*
X0181085Y0174314D02*
X0233900Y0174314D01*
X0233900Y0175312D02*
X0180087Y0175312D01*
X0179088Y0176311D02*
X0233900Y0176311D01*
X0233900Y0173315D02*
X0182084Y0173315D01*
X0183082Y0172317D02*
X0233900Y0172317D01*
X0233900Y0171318D02*
X0184081Y0171318D01*
X0185079Y0170320D02*
X0233900Y0170320D01*
X0233900Y0169321D02*
X0186078Y0169321D01*
X0187076Y0168323D02*
X0233900Y0168323D01*
X0233900Y0167324D02*
X0188075Y0167324D01*
X0189073Y0166326D02*
X0233900Y0166326D01*
X0233900Y0165327D02*
X0190072Y0165327D01*
X0191070Y0164329D02*
X0233900Y0164329D01*
X0233900Y0163330D02*
X0192069Y0163330D01*
X0193050Y0162332D02*
X0233900Y0162332D01*
X0233900Y0161333D02*
X0203442Y0161333D01*
X0204802Y0160335D02*
X0233900Y0160335D01*
X0233900Y0159336D02*
X0205670Y0159336D01*
X0206084Y0158338D02*
X0233900Y0158338D01*
X0233900Y0157339D02*
X0206400Y0157339D01*
X0206400Y0156341D02*
X0233900Y0156341D01*
X0233900Y0155342D02*
X0206365Y0155342D01*
X0205952Y0154344D02*
X0233900Y0154344D01*
X0240100Y0155474D02*
X0240100Y0236383D01*
X0240688Y0235365D01*
X0240688Y0235365D01*
X0243227Y0233234D01*
X0243227Y0233234D01*
X0246343Y0232100D01*
X0249657Y0232100D01*
X0252772Y0233234D01*
X0252773Y0233234D01*
X0255312Y0235365D01*
X0256969Y0238235D01*
X0256969Y0238235D01*
X0257545Y0241500D01*
X0256969Y0244765D01*
X0255312Y0247635D01*
X0255312Y0247635D01*
X0253209Y0249400D01*
X0322791Y0249400D01*
X0320688Y0247635D01*
X0319031Y0244765D01*
X0318455Y0241500D01*
X0318455Y0241500D01*
X0319031Y0238235D01*
X0320688Y0235365D01*
X0320688Y0235365D01*
X0323227Y0233234D01*
X0323227Y0233234D01*
X0326343Y0232100D01*
X0329657Y0232100D01*
X0332772Y0233234D01*
X0332773Y0233234D01*
X0335312Y0235365D01*
X0335900Y0236383D01*
X0335900Y0153600D01*
X0307644Y0153600D01*
X0308400Y0155426D01*
X0308400Y0157574D01*
X0307578Y0159559D01*
X0306059Y0161078D01*
X0304074Y0161900D01*
X0301926Y0161900D01*
X0299941Y0161078D01*
X0298422Y0159559D01*
X0298000Y0158540D01*
X0297578Y0159559D01*
X0296059Y0161078D01*
X0295050Y0161496D01*
X0295050Y0162349D01*
X0280050Y0177349D01*
X0280050Y0184095D01*
X0280405Y0184450D01*
X0283546Y0184450D01*
X0283478Y0184197D01*
X0283478Y0181625D01*
X0286103Y0181625D01*
X0286103Y0181375D01*
X0283478Y0181375D01*
X0283478Y0178803D01*
X0283581Y0178421D01*
X0283778Y0178079D01*
X0284057Y0177800D01*
X0284399Y0177602D01*
X0284781Y0177500D01*
X0286103Y0177500D01*
X0286103Y0181375D01*
X0286353Y0181375D01*
X0286353Y0177500D01*
X0287617Y0177500D01*
X0287817Y0177300D01*
X0291726Y0177300D01*
X0292722Y0178296D01*
X0292722Y0179450D01*
X0295595Y0179450D01*
X0296216Y0178830D01*
X0297373Y0178350D01*
X0298627Y0178350D01*
X0299784Y0178830D01*
X0300670Y0179716D01*
X0301150Y0180873D01*
X0301150Y0182127D01*
X0300670Y0183284D01*
X0299784Y0184170D01*
X0299109Y0184450D01*
X0305595Y0184450D01*
X0306216Y0183830D01*
X0307373Y0183350D01*
X0308627Y0183350D01*
X0309784Y0183830D01*
X0310670Y0184716D01*
X0311150Y0185873D01*
X0311150Y0187127D01*
X0310670Y0188284D01*
X0309784Y0189170D01*
X0308627Y0189650D01*
X0307373Y0189650D01*
X0306216Y0189170D01*
X0305595Y0188550D01*
X0280405Y0188550D01*
X0279784Y0189170D01*
X0279109Y0189450D01*
X0300871Y0189450D01*
X0301216Y0189105D01*
X0302373Y0188626D01*
X0303627Y0188626D01*
X0304784Y0189105D01*
X0305670Y0189991D01*
X0306150Y0191149D01*
X0306150Y0192402D01*
X0305670Y0193560D01*
X0304784Y0194446D01*
X0303627Y0194926D01*
X0302373Y0194926D01*
X0301216Y0194446D01*
X0300330Y0193560D01*
X0300325Y0193550D01*
X0265405Y0193550D01*
X0264784Y0194170D01*
X0263627Y0194650D01*
X0262373Y0194650D01*
X0261216Y0194170D01*
X0260330Y0193284D01*
X0259850Y0192127D01*
X0259850Y0190873D01*
X0260330Y0189716D01*
X0261216Y0188830D01*
X0262373Y0188350D01*
X0263627Y0188350D01*
X0264784Y0188830D01*
X0265405Y0189450D01*
X0266891Y0189450D01*
X0266216Y0189170D01*
X0265330Y0188284D01*
X0264850Y0187127D01*
X0264850Y0185873D01*
X0265330Y0184716D01*
X0266216Y0183830D01*
X0267373Y0183350D01*
X0268627Y0183350D01*
X0269784Y0183830D01*
X0270405Y0184450D01*
X0275595Y0184450D01*
X0275950Y0184095D01*
X0275950Y0175651D01*
X0277151Y0174450D01*
X0290353Y0161248D01*
X0289941Y0161078D01*
X0288422Y0159559D01*
X0288000Y0158540D01*
X0287578Y0159559D01*
X0286059Y0161078D01*
X0284074Y0161900D01*
X0281926Y0161900D01*
X0279941Y0161078D01*
X0278422Y0159559D01*
X0277891Y0158276D01*
X0277819Y0158496D01*
X0277447Y0159225D01*
X0276966Y0159888D01*
X0276388Y0160466D01*
X0275725Y0160947D01*
X0274996Y0161319D01*
X0274218Y0161572D01*
X0273500Y0161686D01*
X0273500Y0157000D01*
X0272500Y0157000D01*
X0272500Y0161686D01*
X0271782Y0161572D01*
X0271004Y0161319D01*
X0270275Y0160947D01*
X0269612Y0160466D01*
X0269034Y0159888D01*
X0268553Y0159225D01*
X0268181Y0158496D01*
X0267928Y0157718D01*
X0267814Y0157000D01*
X0272500Y0157000D01*
X0272500Y0156000D01*
X0267814Y0156000D01*
X0267928Y0155282D01*
X0268181Y0154504D01*
X0268553Y0153775D01*
X0268679Y0153600D01*
X0255987Y0153600D01*
X0256236Y0154841D01*
X0255129Y0156502D01*
X0256236Y0158162D01*
X0255895Y0159868D01*
X0254447Y0160833D01*
X0252741Y0160492D01*
X0252605Y0160288D01*
X0252468Y0160492D01*
X0250762Y0160833D01*
X0249970Y0160305D01*
X0249571Y0160704D01*
X0248170Y0160704D01*
X0247832Y0160704D01*
X0247832Y0160704D01*
X0246430Y0160704D01*
X0246430Y0160704D01*
X0246416Y0160690D01*
X0245349Y0159622D01*
X0245131Y0159839D01*
X0244267Y0160704D01*
X0242527Y0160704D01*
X0241903Y0160080D01*
X0241297Y0159473D01*
X0241297Y0156500D01*
X0241126Y0156500D01*
X0240100Y0155474D01*
X0240100Y0156341D02*
X0240967Y0156341D01*
X0241297Y0157339D02*
X0240100Y0157339D01*
X0240100Y0158338D02*
X0241297Y0158338D01*
X0241297Y0159336D02*
X0240100Y0159336D01*
X0240100Y0160335D02*
X0242158Y0160335D01*
X0240100Y0161333D02*
X0271048Y0161333D01*
X0272500Y0161333D02*
X0273500Y0161333D01*
X0273500Y0160335D02*
X0272500Y0160335D01*
X0272500Y0159336D02*
X0273500Y0159336D01*
X0273500Y0158338D02*
X0272500Y0158338D01*
X0272500Y0157339D02*
X0273500Y0157339D01*
X0272500Y0156341D02*
X0255236Y0156341D01*
X0255687Y0157339D02*
X0267868Y0157339D01*
X0268130Y0158338D02*
X0256201Y0158338D01*
X0256001Y0159336D02*
X0268633Y0159336D01*
X0269481Y0160335D02*
X0255195Y0160335D01*
X0252636Y0160335D02*
X0252573Y0160335D01*
X0250014Y0160335D02*
X0249940Y0160335D01*
X0248170Y0160704D02*
X0248170Y0160704D01*
X0246062Y0160335D02*
X0244636Y0160335D01*
X0240100Y0162332D02*
X0289269Y0162332D01*
X0288271Y0163330D02*
X0240100Y0163330D01*
X0240100Y0164329D02*
X0287272Y0164329D01*
X0286274Y0165327D02*
X0240100Y0165327D01*
X0240100Y0166326D02*
X0285275Y0166326D01*
X0284277Y0167324D02*
X0240100Y0167324D01*
X0240100Y0168323D02*
X0283278Y0168323D01*
X0282279Y0169321D02*
X0240100Y0169321D01*
X0240100Y0170320D02*
X0281281Y0170320D01*
X0280282Y0171318D02*
X0240100Y0171318D01*
X0240100Y0172317D02*
X0279284Y0172317D01*
X0278285Y0173315D02*
X0240100Y0173315D01*
X0240100Y0174314D02*
X0277287Y0174314D01*
X0276288Y0175312D02*
X0240100Y0175312D01*
X0240100Y0176311D02*
X0275950Y0176311D01*
X0275950Y0177309D02*
X0240100Y0177309D01*
X0240100Y0178308D02*
X0275950Y0178308D01*
X0275950Y0179306D02*
X0240100Y0179306D01*
X0240100Y0180305D02*
X0275950Y0180305D01*
X0275950Y0181303D02*
X0240100Y0181303D01*
X0240100Y0182302D02*
X0275950Y0182302D01*
X0275950Y0183301D02*
X0240100Y0183301D01*
X0240100Y0184299D02*
X0265746Y0184299D01*
X0265089Y0185298D02*
X0240100Y0185298D01*
X0240100Y0186296D02*
X0264850Y0186296D01*
X0264920Y0187295D02*
X0240100Y0187295D01*
X0240100Y0188293D02*
X0265338Y0188293D01*
X0265246Y0189292D02*
X0266508Y0189292D01*
X0264510Y0194284D02*
X0301054Y0194284D01*
X0304946Y0194284D02*
X0335900Y0194284D01*
X0335900Y0193286D02*
X0305784Y0193286D01*
X0306150Y0192287D02*
X0335900Y0192287D01*
X0335900Y0191289D02*
X0306150Y0191289D01*
X0305794Y0190290D02*
X0335900Y0190290D01*
X0335900Y0189292D02*
X0309492Y0189292D01*
X0310662Y0188293D02*
X0335900Y0188293D01*
X0335900Y0187295D02*
X0311080Y0187295D01*
X0311150Y0186296D02*
X0335900Y0186296D01*
X0335900Y0185298D02*
X0310911Y0185298D01*
X0310254Y0184299D02*
X0335900Y0184299D01*
X0335900Y0183301D02*
X0300654Y0183301D01*
X0301077Y0182302D02*
X0335900Y0182302D01*
X0335900Y0181303D02*
X0301150Y0181303D01*
X0300915Y0180305D02*
X0335900Y0180305D01*
X0335900Y0179306D02*
X0300261Y0179306D01*
X0295739Y0179306D02*
X0292722Y0179306D01*
X0292722Y0178308D02*
X0335900Y0178308D01*
X0335900Y0177309D02*
X0291735Y0177309D01*
X0287808Y0177309D02*
X0280090Y0177309D01*
X0280050Y0178308D02*
X0283646Y0178308D01*
X0283478Y0179306D02*
X0280050Y0179306D01*
X0280050Y0180305D02*
X0283478Y0180305D01*
X0283478Y0181303D02*
X0280050Y0181303D01*
X0280050Y0182302D02*
X0283478Y0182302D01*
X0283478Y0183301D02*
X0280050Y0183301D01*
X0280254Y0184299D02*
X0283506Y0184299D01*
X0286103Y0181303D02*
X0286353Y0181303D01*
X0286353Y0180305D02*
X0286103Y0180305D01*
X0286103Y0179306D02*
X0286353Y0179306D01*
X0286353Y0178308D02*
X0286103Y0178308D01*
X0283085Y0174314D02*
X0335900Y0174314D01*
X0335900Y0175312D02*
X0282087Y0175312D01*
X0281088Y0176311D02*
X0335900Y0176311D01*
X0335900Y0173315D02*
X0284084Y0173315D01*
X0285082Y0172317D02*
X0335900Y0172317D01*
X0335900Y0171318D02*
X0286081Y0171318D01*
X0287079Y0170320D02*
X0335900Y0170320D01*
X0335900Y0169321D02*
X0288078Y0169321D01*
X0289076Y0168323D02*
X0335900Y0168323D01*
X0335900Y0167324D02*
X0290075Y0167324D01*
X0291073Y0166326D02*
X0335900Y0166326D01*
X0335900Y0165327D02*
X0292072Y0165327D01*
X0293070Y0164329D02*
X0335900Y0164329D01*
X0335900Y0163330D02*
X0294069Y0163330D01*
X0295050Y0162332D02*
X0335900Y0162332D01*
X0335900Y0161333D02*
X0305442Y0161333D01*
X0306802Y0160335D02*
X0335900Y0160335D01*
X0335900Y0159336D02*
X0307670Y0159336D01*
X0308084Y0158338D02*
X0335900Y0158338D01*
X0335900Y0157339D02*
X0308400Y0157339D01*
X0308400Y0156341D02*
X0335900Y0156341D01*
X0335900Y0155342D02*
X0308365Y0155342D01*
X0307952Y0154344D02*
X0335900Y0154344D01*
X0322791Y0147400D02*
X0320688Y0145635D01*
X0319031Y0142765D01*
X0318455Y0139500D01*
X0318455Y0139500D01*
X0319031Y0136235D01*
X0320688Y0133365D01*
X0320688Y0133365D01*
X0323227Y0131234D01*
X0323227Y0131234D01*
X0326343Y0130100D01*
X0329657Y0130100D01*
X0332772Y0131234D01*
X0332773Y0131234D01*
X0335312Y0133365D01*
X0335900Y0134383D01*
X0335900Y0051600D01*
X0307644Y0051600D01*
X0308400Y0053426D01*
X0308400Y0055574D01*
X0307578Y0057559D01*
X0306059Y0059078D01*
X0304074Y0059900D01*
X0301926Y0059900D01*
X0299941Y0059078D01*
X0298422Y0057559D01*
X0298000Y0056540D01*
X0297578Y0057559D01*
X0296059Y0059078D01*
X0295050Y0059496D01*
X0295050Y0060349D01*
X0280050Y0075349D01*
X0280050Y0082095D01*
X0280405Y0082450D01*
X0283546Y0082450D01*
X0283478Y0082197D01*
X0283478Y0079625D01*
X0286103Y0079625D01*
X0286103Y0079375D01*
X0283478Y0079375D01*
X0283478Y0076803D01*
X0283581Y0076421D01*
X0283778Y0076079D01*
X0284057Y0075800D01*
X0284399Y0075602D01*
X0284781Y0075500D01*
X0286103Y0075500D01*
X0286103Y0079375D01*
X0286353Y0079375D01*
X0286353Y0075500D01*
X0287617Y0075500D01*
X0287817Y0075300D01*
X0291726Y0075300D01*
X0292722Y0076296D01*
X0292722Y0077450D01*
X0295595Y0077450D01*
X0296216Y0076830D01*
X0297373Y0076350D01*
X0298627Y0076350D01*
X0299784Y0076830D01*
X0300670Y0077716D01*
X0301150Y0078873D01*
X0301150Y0080127D01*
X0300670Y0081284D01*
X0299784Y0082170D01*
X0299109Y0082450D01*
X0305595Y0082450D01*
X0306216Y0081830D01*
X0307373Y0081350D01*
X0308627Y0081350D01*
X0309784Y0081830D01*
X0310670Y0082716D01*
X0311150Y0083873D01*
X0311150Y0085127D01*
X0310670Y0086284D01*
X0309784Y0087170D01*
X0308627Y0087650D01*
X0307373Y0087650D01*
X0306216Y0087170D01*
X0305595Y0086550D01*
X0280405Y0086550D01*
X0279784Y0087170D01*
X0279109Y0087450D01*
X0300871Y0087450D01*
X0301216Y0087105D01*
X0302373Y0086626D01*
X0303627Y0086626D01*
X0304784Y0087105D01*
X0305670Y0087991D01*
X0306150Y0089149D01*
X0306150Y0090402D01*
X0305670Y0091560D01*
X0304784Y0092446D01*
X0303627Y0092926D01*
X0302373Y0092926D01*
X0301216Y0092446D01*
X0300330Y0091560D01*
X0300325Y0091550D01*
X0265405Y0091550D01*
X0264784Y0092170D01*
X0263627Y0092650D01*
X0262373Y0092650D01*
X0261216Y0092170D01*
X0260330Y0091284D01*
X0259850Y0090127D01*
X0259850Y0088873D01*
X0260330Y0087716D01*
X0261216Y0086830D01*
X0262373Y0086350D01*
X0263627Y0086350D01*
X0264784Y0086830D01*
X0265405Y0087450D01*
X0266891Y0087450D01*
X0266216Y0087170D01*
X0265330Y0086284D01*
X0264850Y0085127D01*
X0264850Y0083873D01*
X0265330Y0082716D01*
X0266216Y0081830D01*
X0267373Y0081350D01*
X0268627Y0081350D01*
X0269784Y0081830D01*
X0270405Y0082450D01*
X0275595Y0082450D01*
X0275950Y0082095D01*
X0275950Y0073651D01*
X0277151Y0072450D01*
X0290353Y0059248D01*
X0289941Y0059078D01*
X0288422Y0057559D01*
X0288000Y0056540D01*
X0287578Y0057559D01*
X0286059Y0059078D01*
X0284074Y0059900D01*
X0281926Y0059900D01*
X0279941Y0059078D01*
X0278422Y0057559D01*
X0277891Y0056276D01*
X0277819Y0056496D01*
X0277447Y0057225D01*
X0276966Y0057888D01*
X0276388Y0058466D01*
X0275725Y0058947D01*
X0274996Y0059319D01*
X0274218Y0059572D01*
X0273500Y0059686D01*
X0273500Y0055000D01*
X0272500Y0055000D01*
X0272500Y0059686D01*
X0271782Y0059572D01*
X0271004Y0059319D01*
X0270275Y0058947D01*
X0269612Y0058466D01*
X0269034Y0057888D01*
X0268553Y0057225D01*
X0268181Y0056496D01*
X0267928Y0055718D01*
X0267814Y0055000D01*
X0272500Y0055000D01*
X0272500Y0054000D01*
X0267814Y0054000D01*
X0267928Y0053282D01*
X0268181Y0052504D01*
X0268553Y0051775D01*
X0268679Y0051600D01*
X0255987Y0051600D01*
X0256236Y0052841D01*
X0255129Y0054502D01*
X0256236Y0056162D01*
X0255895Y0057868D01*
X0254447Y0058833D01*
X0252741Y0058492D01*
X0252605Y0058288D01*
X0252468Y0058492D01*
X0250762Y0058833D01*
X0249970Y0058305D01*
X0249571Y0058704D01*
X0248170Y0058704D01*
X0247992Y0058704D01*
X0247832Y0058704D01*
X0247832Y0058704D01*
X0246430Y0058704D01*
X0246430Y0058704D01*
X0246416Y0058690D01*
X0245349Y0057622D01*
X0245131Y0057839D01*
X0244267Y0058704D01*
X0242527Y0058704D01*
X0241903Y0058080D01*
X0241297Y0057473D01*
X0241297Y0054500D01*
X0241126Y0054500D01*
X0240100Y0053474D01*
X0240100Y0134383D01*
X0240688Y0133365D01*
X0240688Y0133365D01*
X0243227Y0131234D01*
X0243227Y0131234D01*
X0246343Y0130100D01*
X0249657Y0130100D01*
X0252772Y0131234D01*
X0252773Y0131234D01*
X0255312Y0133365D01*
X0256969Y0136235D01*
X0256969Y0136235D01*
X0257545Y0139500D01*
X0256969Y0142765D01*
X0255312Y0145635D01*
X0255312Y0145635D01*
X0253209Y0147400D01*
X0322791Y0147400D01*
X0322736Y0147354D02*
X0253264Y0147354D01*
X0254454Y0146356D02*
X0321546Y0146356D01*
X0320688Y0145635D02*
X0320688Y0145635D01*
X0320688Y0145635D01*
X0320527Y0145357D02*
X0255473Y0145357D01*
X0256049Y0144359D02*
X0319951Y0144359D01*
X0319374Y0143360D02*
X0256626Y0143360D01*
X0256969Y0142765D02*
X0256969Y0142765D01*
X0257040Y0142362D02*
X0318960Y0142362D01*
X0319031Y0142765D02*
X0319031Y0142765D01*
X0318784Y0141363D02*
X0257216Y0141363D01*
X0257393Y0140365D02*
X0318607Y0140365D01*
X0318479Y0139366D02*
X0257521Y0139366D01*
X0257545Y0139500D02*
X0257545Y0139500D01*
X0257345Y0138368D02*
X0318655Y0138368D01*
X0318831Y0137369D02*
X0257169Y0137369D01*
X0256993Y0136370D02*
X0319007Y0136370D01*
X0319031Y0136235D02*
X0319031Y0136235D01*
X0319529Y0135372D02*
X0256471Y0135372D01*
X0255894Y0134373D02*
X0320106Y0134373D01*
X0320682Y0133375D02*
X0255318Y0133375D01*
X0255312Y0133365D02*
X0255312Y0133365D01*
X0255312Y0133365D01*
X0254134Y0132376D02*
X0321866Y0132376D01*
X0323056Y0131378D02*
X0252944Y0131378D01*
X0250425Y0130379D02*
X0325575Y0130379D01*
X0330425Y0130379D02*
X0335900Y0130379D01*
X0335900Y0129381D02*
X0240100Y0129381D01*
X0240100Y0130379D02*
X0245575Y0130379D01*
X0243056Y0131378D02*
X0240100Y0131378D01*
X0240100Y0132376D02*
X0241866Y0132376D01*
X0240682Y0133375D02*
X0240100Y0133375D01*
X0240100Y0134373D02*
X0240106Y0134373D01*
X0240100Y0128382D02*
X0335900Y0128382D01*
X0335900Y0127384D02*
X0240100Y0127384D01*
X0240100Y0126385D02*
X0335900Y0126385D01*
X0335900Y0125387D02*
X0240100Y0125387D01*
X0240100Y0124388D02*
X0335900Y0124388D01*
X0335900Y0123390D02*
X0240100Y0123390D01*
X0240100Y0122391D02*
X0335900Y0122391D01*
X0335900Y0121393D02*
X0240100Y0121393D01*
X0240100Y0120394D02*
X0335900Y0120394D01*
X0335900Y0119396D02*
X0240100Y0119396D01*
X0240100Y0118397D02*
X0335900Y0118397D01*
X0335900Y0117399D02*
X0240100Y0117399D01*
X0240100Y0116400D02*
X0335900Y0116400D01*
X0335900Y0115402D02*
X0240100Y0115402D01*
X0240100Y0114403D02*
X0335900Y0114403D01*
X0335900Y0113405D02*
X0240100Y0113405D01*
X0240100Y0112406D02*
X0335900Y0112406D01*
X0335900Y0111408D02*
X0240100Y0111408D01*
X0240100Y0110409D02*
X0335900Y0110409D01*
X0335900Y0109411D02*
X0240100Y0109411D01*
X0240100Y0108412D02*
X0335900Y0108412D01*
X0335900Y0107414D02*
X0240100Y0107414D01*
X0240100Y0106415D02*
X0335900Y0106415D01*
X0335900Y0105417D02*
X0240100Y0105417D01*
X0240100Y0104418D02*
X0335900Y0104418D01*
X0335900Y0103420D02*
X0240100Y0103420D01*
X0240100Y0102421D02*
X0335900Y0102421D01*
X0335900Y0101423D02*
X0240100Y0101423D01*
X0240100Y0100424D02*
X0335900Y0100424D01*
X0335900Y0099426D02*
X0240100Y0099426D01*
X0240100Y0098427D02*
X0335900Y0098427D01*
X0335900Y0097429D02*
X0240100Y0097429D01*
X0240100Y0096430D02*
X0335900Y0096430D01*
X0335900Y0095432D02*
X0240100Y0095432D01*
X0240100Y0094433D02*
X0335900Y0094433D01*
X0335900Y0093434D02*
X0240100Y0093434D01*
X0240100Y0092436D02*
X0261857Y0092436D01*
X0260483Y0091437D02*
X0240100Y0091437D01*
X0240100Y0090439D02*
X0259979Y0090439D01*
X0259850Y0089440D02*
X0240100Y0089440D01*
X0240100Y0088442D02*
X0260029Y0088442D01*
X0260602Y0087443D02*
X0240100Y0087443D01*
X0240100Y0086445D02*
X0262144Y0086445D01*
X0263856Y0086445D02*
X0265490Y0086445D01*
X0265398Y0087443D02*
X0266875Y0087443D01*
X0264982Y0085446D02*
X0240100Y0085446D01*
X0240100Y0084448D02*
X0264850Y0084448D01*
X0265026Y0083449D02*
X0240100Y0083449D01*
X0240100Y0082451D02*
X0265594Y0082451D01*
X0267126Y0081452D02*
X0240100Y0081452D01*
X0240100Y0080454D02*
X0275950Y0080454D01*
X0275950Y0081452D02*
X0268874Y0081452D01*
X0275950Y0079455D02*
X0240100Y0079455D01*
X0240100Y0078457D02*
X0275950Y0078457D01*
X0275950Y0077458D02*
X0240100Y0077458D01*
X0240100Y0076460D02*
X0275950Y0076460D01*
X0275950Y0075461D02*
X0240100Y0075461D01*
X0240100Y0074463D02*
X0275950Y0074463D01*
X0276137Y0073464D02*
X0240100Y0073464D01*
X0240100Y0072466D02*
X0277135Y0072466D01*
X0278134Y0071467D02*
X0240100Y0071467D01*
X0240100Y0070469D02*
X0279132Y0070469D01*
X0280131Y0069470D02*
X0240100Y0069470D01*
X0240100Y0068472D02*
X0281129Y0068472D01*
X0282128Y0067473D02*
X0240100Y0067473D01*
X0240100Y0066475D02*
X0283126Y0066475D01*
X0284125Y0065476D02*
X0240100Y0065476D01*
X0240100Y0064478D02*
X0285123Y0064478D01*
X0286122Y0063479D02*
X0240100Y0063479D01*
X0240100Y0062481D02*
X0287120Y0062481D01*
X0288119Y0061482D02*
X0240100Y0061482D01*
X0240100Y0060484D02*
X0289117Y0060484D01*
X0290116Y0059485D02*
X0285076Y0059485D01*
X0286650Y0058487D02*
X0289350Y0058487D01*
X0288393Y0057488D02*
X0287607Y0057488D01*
X0292918Y0062481D02*
X0335900Y0062481D01*
X0335900Y0063479D02*
X0291920Y0063479D01*
X0290921Y0064478D02*
X0335900Y0064478D01*
X0335900Y0065476D02*
X0289923Y0065476D01*
X0288924Y0066475D02*
X0335900Y0066475D01*
X0335900Y0067473D02*
X0287926Y0067473D01*
X0286927Y0068472D02*
X0335900Y0068472D01*
X0335900Y0069470D02*
X0285929Y0069470D01*
X0284930Y0070469D02*
X0335900Y0070469D01*
X0335900Y0071467D02*
X0283932Y0071467D01*
X0282933Y0072466D02*
X0335900Y0072466D01*
X0335900Y0073464D02*
X0281935Y0073464D01*
X0280936Y0074463D02*
X0335900Y0074463D01*
X0335900Y0075461D02*
X0291887Y0075461D01*
X0292722Y0076460D02*
X0297108Y0076460D01*
X0298892Y0076460D02*
X0335900Y0076460D01*
X0335900Y0077458D02*
X0300413Y0077458D01*
X0300977Y0078457D02*
X0335900Y0078457D01*
X0335900Y0079455D02*
X0301150Y0079455D01*
X0301014Y0080454D02*
X0335900Y0080454D01*
X0335900Y0081452D02*
X0308874Y0081452D01*
X0307126Y0081452D02*
X0300502Y0081452D01*
X0300877Y0087443D02*
X0279125Y0087443D01*
X0280050Y0081452D02*
X0283478Y0081452D01*
X0283478Y0080454D02*
X0280050Y0080454D01*
X0280050Y0079455D02*
X0286103Y0079455D01*
X0286103Y0078457D02*
X0286353Y0078457D01*
X0286353Y0077458D02*
X0286103Y0077458D01*
X0286103Y0076460D02*
X0286353Y0076460D01*
X0287656Y0075461D02*
X0280050Y0075461D01*
X0280050Y0076460D02*
X0283570Y0076460D01*
X0283478Y0077458D02*
X0280050Y0077458D01*
X0280050Y0078457D02*
X0283478Y0078457D01*
X0293917Y0061482D02*
X0335900Y0061482D01*
X0335900Y0060484D02*
X0294916Y0060484D01*
X0295076Y0059485D02*
X0300924Y0059485D01*
X0299350Y0058487D02*
X0296650Y0058487D01*
X0297607Y0057488D02*
X0298393Y0057488D01*
X0305076Y0059485D02*
X0335900Y0059485D01*
X0335900Y0058487D02*
X0306650Y0058487D01*
X0307607Y0057488D02*
X0335900Y0057488D01*
X0335900Y0056490D02*
X0308021Y0056490D01*
X0308400Y0055491D02*
X0335900Y0055491D01*
X0335900Y0054493D02*
X0308400Y0054493D01*
X0308400Y0053494D02*
X0335900Y0053494D01*
X0335900Y0052496D02*
X0308015Y0052496D01*
X0280924Y0059485D02*
X0274485Y0059485D01*
X0273500Y0059485D02*
X0272500Y0059485D01*
X0271515Y0059485D02*
X0240100Y0059485D01*
X0240100Y0058487D02*
X0242310Y0058487D01*
X0241312Y0057488D02*
X0240100Y0057488D01*
X0240100Y0056490D02*
X0241297Y0056490D01*
X0241297Y0055491D02*
X0240100Y0055491D01*
X0240100Y0054493D02*
X0241118Y0054493D01*
X0240120Y0053494D02*
X0240100Y0053494D01*
X0233900Y0053494D02*
X0206400Y0053494D01*
X0206400Y0054493D02*
X0233900Y0054493D01*
X0233900Y0055491D02*
X0206400Y0055491D01*
X0206021Y0056490D02*
X0233900Y0056490D01*
X0233900Y0057488D02*
X0205607Y0057488D01*
X0204650Y0058487D02*
X0233900Y0058487D01*
X0233900Y0059485D02*
X0203076Y0059485D01*
X0198924Y0059485D02*
X0193076Y0059485D01*
X0192916Y0060484D02*
X0233900Y0060484D01*
X0233900Y0061482D02*
X0191917Y0061482D01*
X0190918Y0062481D02*
X0233900Y0062481D01*
X0233900Y0063479D02*
X0189920Y0063479D01*
X0188921Y0064478D02*
X0233900Y0064478D01*
X0233900Y0065476D02*
X0187923Y0065476D01*
X0186924Y0066475D02*
X0233900Y0066475D01*
X0233900Y0067473D02*
X0185926Y0067473D01*
X0184927Y0068472D02*
X0233900Y0068472D01*
X0233900Y0069470D02*
X0183929Y0069470D01*
X0182930Y0070469D02*
X0233900Y0070469D01*
X0233900Y0071467D02*
X0181932Y0071467D01*
X0180933Y0072466D02*
X0233900Y0072466D01*
X0233900Y0073464D02*
X0179935Y0073464D01*
X0178936Y0074463D02*
X0233900Y0074463D01*
X0233900Y0075461D02*
X0189887Y0075461D01*
X0190722Y0076460D02*
X0195108Y0076460D01*
X0196892Y0076460D02*
X0233900Y0076460D01*
X0233900Y0077458D02*
X0198413Y0077458D01*
X0198977Y0078457D02*
X0233900Y0078457D01*
X0233900Y0079455D02*
X0199150Y0079455D01*
X0199014Y0080454D02*
X0233900Y0080454D01*
X0233900Y0081452D02*
X0206874Y0081452D01*
X0205126Y0081452D02*
X0198502Y0081452D01*
X0198877Y0087443D02*
X0177125Y0087443D01*
X0178050Y0081452D02*
X0181478Y0081452D01*
X0181478Y0080454D02*
X0178050Y0080454D01*
X0178050Y0079455D02*
X0184103Y0079455D01*
X0184103Y0078457D02*
X0184353Y0078457D01*
X0184353Y0077458D02*
X0184103Y0077458D01*
X0184103Y0076460D02*
X0184353Y0076460D01*
X0185656Y0075461D02*
X0178050Y0075461D01*
X0178050Y0076460D02*
X0181570Y0076460D01*
X0181478Y0077458D02*
X0178050Y0077458D01*
X0178050Y0078457D02*
X0181478Y0078457D01*
X0183076Y0059485D02*
X0188116Y0059485D01*
X0187350Y0058487D02*
X0184650Y0058487D01*
X0185607Y0057488D02*
X0186393Y0057488D01*
X0194650Y0058487D02*
X0197350Y0058487D01*
X0196393Y0057488D02*
X0195607Y0057488D01*
X0206015Y0052496D02*
X0233900Y0052496D01*
X0244484Y0058487D02*
X0246213Y0058487D01*
X0248170Y0058704D02*
X0248170Y0058704D01*
X0249788Y0058487D02*
X0250242Y0058487D01*
X0252472Y0058487D02*
X0252737Y0058487D01*
X0254967Y0058487D02*
X0269640Y0058487D01*
X0268743Y0057488D02*
X0255971Y0057488D01*
X0256170Y0056490D02*
X0268179Y0056490D01*
X0267892Y0055491D02*
X0255788Y0055491D01*
X0255135Y0054493D02*
X0272500Y0054493D01*
X0272500Y0055491D02*
X0273500Y0055491D01*
X0273500Y0056490D02*
X0272500Y0056490D01*
X0272500Y0057488D02*
X0273500Y0057488D01*
X0273500Y0058487D02*
X0272500Y0058487D01*
X0276360Y0058487D02*
X0279350Y0058487D01*
X0278393Y0057488D02*
X0277257Y0057488D01*
X0277821Y0056490D02*
X0277979Y0056490D01*
X0267895Y0053494D02*
X0255800Y0053494D01*
X0256167Y0052496D02*
X0268185Y0052496D01*
X0233900Y0082451D02*
X0208406Y0082451D01*
X0208974Y0083449D02*
X0233900Y0083449D01*
X0233900Y0084448D02*
X0209150Y0084448D01*
X0209018Y0085446D02*
X0233900Y0085446D01*
X0233900Y0086445D02*
X0208510Y0086445D01*
X0207125Y0087443D02*
X0233900Y0087443D01*
X0233900Y0088442D02*
X0203857Y0088442D01*
X0204150Y0089440D02*
X0233900Y0089440D01*
X0233900Y0090439D02*
X0204135Y0090439D01*
X0203721Y0091437D02*
X0233900Y0091437D01*
X0204875Y0087443D02*
X0203123Y0087443D01*
X0171500Y0055491D02*
X0170500Y0055491D01*
X0228425Y0130379D02*
X0233900Y0130379D01*
X0233900Y0131378D02*
X0230944Y0131378D01*
X0232134Y0132376D02*
X0233900Y0132376D01*
X0233900Y0133375D02*
X0233318Y0133375D01*
X0233312Y0133365D02*
X0233312Y0133365D01*
X0233312Y0133365D01*
X0233894Y0134373D02*
X0233900Y0134373D01*
X0256136Y0154344D02*
X0268263Y0154344D01*
X0267919Y0155342D02*
X0255902Y0155342D01*
X0274952Y0161333D02*
X0280558Y0161333D01*
X0279198Y0160335D02*
X0276519Y0160335D01*
X0277367Y0159336D02*
X0278330Y0159336D01*
X0277916Y0158338D02*
X0277870Y0158338D01*
X0285442Y0161333D02*
X0290268Y0161333D01*
X0289198Y0160335D02*
X0286802Y0160335D01*
X0287670Y0159336D02*
X0288330Y0159336D01*
X0295442Y0161333D02*
X0300558Y0161333D01*
X0299198Y0160335D02*
X0296802Y0160335D01*
X0297670Y0159336D02*
X0298330Y0159336D01*
X0299474Y0184299D02*
X0305746Y0184299D01*
X0306508Y0189292D02*
X0304971Y0189292D01*
X0301029Y0189292D02*
X0279492Y0189292D01*
X0275746Y0184299D02*
X0270254Y0184299D01*
X0261490Y0194284D02*
X0240100Y0194284D01*
X0240100Y0193286D02*
X0260331Y0193286D01*
X0259917Y0192287D02*
X0240100Y0192287D01*
X0240100Y0191289D02*
X0259850Y0191289D01*
X0260092Y0190290D02*
X0240100Y0190290D01*
X0240100Y0189292D02*
X0260754Y0189292D01*
X0240100Y0195283D02*
X0335900Y0195283D01*
X0335900Y0196281D02*
X0240100Y0196281D01*
X0240100Y0197280D02*
X0335900Y0197280D01*
X0335900Y0198278D02*
X0240100Y0198278D01*
X0240100Y0199277D02*
X0335900Y0199277D01*
X0335900Y0200275D02*
X0240100Y0200275D01*
X0240100Y0201274D02*
X0335900Y0201274D01*
X0335900Y0202272D02*
X0240100Y0202272D01*
X0240100Y0203271D02*
X0335900Y0203271D01*
X0335900Y0204269D02*
X0240100Y0204269D01*
X0240100Y0205268D02*
X0335900Y0205268D01*
X0335900Y0206266D02*
X0240100Y0206266D01*
X0240100Y0207265D02*
X0335900Y0207265D01*
X0335900Y0208263D02*
X0240100Y0208263D01*
X0240100Y0209262D02*
X0335900Y0209262D01*
X0335900Y0210260D02*
X0240100Y0210260D01*
X0240100Y0211259D02*
X0335900Y0211259D01*
X0335900Y0212257D02*
X0240100Y0212257D01*
X0240100Y0213256D02*
X0335900Y0213256D01*
X0335900Y0214254D02*
X0240100Y0214254D01*
X0240100Y0215253D02*
X0335900Y0215253D01*
X0335900Y0216251D02*
X0240100Y0216251D01*
X0240100Y0217250D02*
X0335900Y0217250D01*
X0335900Y0218248D02*
X0240100Y0218248D01*
X0240100Y0219247D02*
X0335900Y0219247D01*
X0335900Y0220245D02*
X0240100Y0220245D01*
X0240100Y0221244D02*
X0335900Y0221244D01*
X0335900Y0222242D02*
X0240100Y0222242D01*
X0240100Y0223241D02*
X0335900Y0223241D01*
X0335900Y0224239D02*
X0240100Y0224239D01*
X0240100Y0225238D02*
X0335900Y0225238D01*
X0335900Y0226237D02*
X0240100Y0226237D01*
X0240100Y0227235D02*
X0335900Y0227235D01*
X0335900Y0228234D02*
X0240100Y0228234D01*
X0240100Y0229232D02*
X0335900Y0229232D01*
X0335900Y0230231D02*
X0240100Y0230231D01*
X0240100Y0231229D02*
X0335900Y0231229D01*
X0335900Y0232228D02*
X0330008Y0232228D01*
X0332751Y0233226D02*
X0335900Y0233226D01*
X0335900Y0234225D02*
X0333953Y0234225D01*
X0335143Y0235223D02*
X0335900Y0235223D01*
X0335312Y0235365D02*
X0335312Y0235365D01*
X0335312Y0235365D01*
X0335807Y0236222D02*
X0335900Y0236222D01*
X0325992Y0232228D02*
X0250008Y0232228D01*
X0252751Y0233226D02*
X0323249Y0233226D01*
X0322047Y0234225D02*
X0253953Y0234225D01*
X0255143Y0235223D02*
X0320857Y0235223D01*
X0320193Y0236222D02*
X0255807Y0236222D01*
X0255312Y0235365D02*
X0255312Y0235365D01*
X0255312Y0235365D01*
X0256383Y0237220D02*
X0319617Y0237220D01*
X0319040Y0238219D02*
X0256960Y0238219D01*
X0257142Y0239217D02*
X0318858Y0239217D01*
X0319031Y0238235D02*
X0319031Y0238235D01*
X0318681Y0240216D02*
X0257319Y0240216D01*
X0257495Y0241214D02*
X0318505Y0241214D01*
X0318581Y0242213D02*
X0257419Y0242213D01*
X0257545Y0241500D02*
X0257545Y0241500D01*
X0257243Y0243211D02*
X0318757Y0243211D01*
X0318933Y0244210D02*
X0257067Y0244210D01*
X0256969Y0244765D02*
X0256969Y0244765D01*
X0256713Y0245208D02*
X0319287Y0245208D01*
X0319031Y0244765D02*
X0319031Y0244765D01*
X0319863Y0246207D02*
X0256137Y0246207D01*
X0255560Y0247205D02*
X0320440Y0247205D01*
X0320688Y0247635D02*
X0320688Y0247635D01*
X0320688Y0247635D01*
X0321365Y0248204D02*
X0254635Y0248204D01*
X0253445Y0249202D02*
X0322555Y0249202D01*
X0335900Y0256192D02*
X0307889Y0256192D01*
X0308302Y0257190D02*
X0335900Y0257190D01*
X0335900Y0258189D02*
X0308400Y0258189D01*
X0308400Y0259187D02*
X0335900Y0259187D01*
X0335900Y0260186D02*
X0308147Y0260186D01*
X0307733Y0261184D02*
X0335900Y0261184D01*
X0335900Y0262183D02*
X0306954Y0262183D01*
X0305809Y0263181D02*
X0335900Y0263181D01*
X0335900Y0280156D02*
X0292582Y0280156D01*
X0292722Y0281155D02*
X0295891Y0281155D01*
X0300109Y0281155D02*
X0335900Y0281155D01*
X0335900Y0282153D02*
X0300852Y0282153D01*
X0301150Y0283152D02*
X0335900Y0283152D01*
X0335900Y0284150D02*
X0301140Y0284150D01*
X0300727Y0285149D02*
X0335900Y0285149D01*
X0335900Y0286147D02*
X0310102Y0286147D01*
X0310849Y0287146D02*
X0335900Y0287146D01*
X0335900Y0288144D02*
X0311150Y0288144D01*
X0311143Y0289143D02*
X0335900Y0289143D01*
X0335900Y0290141D02*
X0310730Y0290141D01*
X0309815Y0291140D02*
X0335900Y0291140D01*
X0335900Y0292138D02*
X0305731Y0292138D01*
X0306145Y0293137D02*
X0335900Y0293137D01*
X0335900Y0294135D02*
X0306150Y0294135D01*
X0305847Y0295134D02*
X0335900Y0295134D01*
X0335900Y0296132D02*
X0305098Y0296132D01*
X0300902Y0296132D02*
X0264822Y0296132D01*
X0261178Y0296132D02*
X0240100Y0296132D01*
X0240100Y0295134D02*
X0260267Y0295134D01*
X0259854Y0294135D02*
X0240100Y0294135D01*
X0240100Y0293137D02*
X0259850Y0293137D01*
X0260155Y0292138D02*
X0240100Y0292138D01*
X0240100Y0291140D02*
X0260905Y0291140D01*
X0265095Y0291140D02*
X0266185Y0291140D01*
X0265270Y0290141D02*
X0240100Y0290141D01*
X0240100Y0289143D02*
X0264857Y0289143D01*
X0264850Y0288144D02*
X0240100Y0288144D01*
X0240100Y0287146D02*
X0265151Y0287146D01*
X0265898Y0286147D02*
X0240100Y0286147D01*
X0240100Y0285149D02*
X0275950Y0285149D01*
X0275950Y0284150D02*
X0240100Y0284150D01*
X0240100Y0283152D02*
X0275950Y0283152D01*
X0275950Y0282153D02*
X0240100Y0282153D01*
X0240100Y0281155D02*
X0275950Y0281155D01*
X0275950Y0280156D02*
X0240100Y0280156D01*
X0240100Y0279158D02*
X0275950Y0279158D01*
X0275950Y0278159D02*
X0240100Y0278159D01*
X0240100Y0277161D02*
X0276440Y0277161D01*
X0277439Y0276162D02*
X0240100Y0276162D01*
X0240100Y0275164D02*
X0278437Y0275164D01*
X0275898Y0286147D02*
X0270102Y0286147D01*
X0279815Y0291140D02*
X0301181Y0291140D01*
X0304819Y0291140D02*
X0306185Y0291140D01*
X0305898Y0286147D02*
X0299808Y0286147D01*
X0290191Y0263181D02*
X0285809Y0263181D01*
X0286954Y0262183D02*
X0289046Y0262183D01*
X0288267Y0261184D02*
X0287733Y0261184D01*
X0280191Y0263181D02*
X0275266Y0263181D01*
X0276671Y0262183D02*
X0279046Y0262183D01*
X0278267Y0261184D02*
X0277468Y0261184D01*
X0273500Y0261184D02*
X0272500Y0261184D01*
X0272500Y0260186D02*
X0273500Y0260186D01*
X0273500Y0259187D02*
X0272500Y0259187D01*
X0272500Y0262183D02*
X0273500Y0262183D01*
X0273500Y0263181D02*
X0272500Y0263181D01*
X0243249Y0233226D02*
X0240100Y0233226D01*
X0240100Y0232228D02*
X0245992Y0232228D01*
X0242047Y0234225D02*
X0240100Y0234225D01*
X0240100Y0235223D02*
X0240857Y0235223D01*
X0240193Y0236222D02*
X0240100Y0236222D01*
X0233900Y0236222D02*
X0233807Y0236222D01*
X0233312Y0235365D02*
X0233312Y0235365D01*
X0233312Y0235365D01*
X0233143Y0235223D02*
X0233900Y0235223D01*
X0233900Y0234225D02*
X0231953Y0234225D01*
X0230751Y0233226D02*
X0233900Y0233226D01*
X0233900Y0232228D02*
X0228008Y0232228D01*
X0223992Y0232228D02*
X0148008Y0232228D01*
X0150751Y0233226D02*
X0221249Y0233226D01*
X0220047Y0234225D02*
X0151953Y0234225D01*
X0153143Y0235223D02*
X0218857Y0235223D01*
X0218193Y0236222D02*
X0153807Y0236222D01*
X0153312Y0235365D02*
X0153312Y0235365D01*
X0153312Y0235365D01*
X0154383Y0237220D02*
X0217617Y0237220D01*
X0217040Y0238219D02*
X0154960Y0238219D01*
X0155142Y0239217D02*
X0216858Y0239217D01*
X0217031Y0238235D02*
X0217031Y0238235D01*
X0216681Y0240216D02*
X0155319Y0240216D01*
X0155495Y0241214D02*
X0216505Y0241214D01*
X0216581Y0242213D02*
X0155419Y0242213D01*
X0155545Y0241500D02*
X0155545Y0241500D01*
X0155243Y0243211D02*
X0216757Y0243211D01*
X0216933Y0244210D02*
X0155067Y0244210D01*
X0154969Y0244765D02*
X0154969Y0244765D01*
X0154713Y0245208D02*
X0217287Y0245208D01*
X0217031Y0244765D02*
X0217031Y0244765D01*
X0217863Y0246207D02*
X0154137Y0246207D01*
X0153560Y0247205D02*
X0218440Y0247205D01*
X0218688Y0247635D02*
X0218688Y0247635D01*
X0218688Y0247635D01*
X0219365Y0248204D02*
X0152635Y0248204D01*
X0151445Y0249202D02*
X0220555Y0249202D01*
X0233900Y0231229D02*
X0138100Y0231229D01*
X0138100Y0230231D02*
X0233900Y0230231D01*
X0233900Y0229232D02*
X0138100Y0229232D01*
X0138100Y0228234D02*
X0233900Y0228234D01*
X0233900Y0227235D02*
X0138100Y0227235D01*
X0138100Y0226237D02*
X0233900Y0226237D01*
X0233900Y0225238D02*
X0138100Y0225238D01*
X0138100Y0224239D02*
X0233900Y0224239D01*
X0233900Y0223241D02*
X0138100Y0223241D01*
X0138100Y0222242D02*
X0233900Y0222242D01*
X0233900Y0221244D02*
X0138100Y0221244D01*
X0138100Y0220245D02*
X0233900Y0220245D01*
X0233900Y0219247D02*
X0138100Y0219247D01*
X0138100Y0218248D02*
X0233900Y0218248D01*
X0233900Y0217250D02*
X0138100Y0217250D01*
X0138100Y0216251D02*
X0233900Y0216251D01*
X0233900Y0215253D02*
X0138100Y0215253D01*
X0138100Y0214254D02*
X0233900Y0214254D01*
X0233900Y0213256D02*
X0138100Y0213256D01*
X0138100Y0212257D02*
X0233900Y0212257D01*
X0233900Y0211259D02*
X0138100Y0211259D01*
X0138100Y0210260D02*
X0233900Y0210260D01*
X0233900Y0209262D02*
X0138100Y0209262D01*
X0138100Y0208263D02*
X0233900Y0208263D01*
X0233900Y0207265D02*
X0138100Y0207265D01*
X0138100Y0206266D02*
X0233900Y0206266D01*
X0233900Y0205268D02*
X0138100Y0205268D01*
X0138100Y0204269D02*
X0233900Y0204269D01*
X0233900Y0203271D02*
X0138100Y0203271D01*
X0138100Y0202272D02*
X0233900Y0202272D01*
X0233900Y0201274D02*
X0138100Y0201274D01*
X0138100Y0200275D02*
X0233900Y0200275D01*
X0233900Y0199277D02*
X0138100Y0199277D01*
X0138100Y0198278D02*
X0233900Y0198278D01*
X0233900Y0197280D02*
X0138100Y0197280D01*
X0138100Y0196281D02*
X0233900Y0196281D01*
X0233900Y0195283D02*
X0138100Y0195283D01*
X0138100Y0194284D02*
X0159490Y0194284D01*
X0158331Y0193286D02*
X0138100Y0193286D01*
X0138100Y0192287D02*
X0157917Y0192287D01*
X0157850Y0191289D02*
X0138100Y0191289D01*
X0138100Y0190290D02*
X0158092Y0190290D01*
X0158754Y0189292D02*
X0138100Y0189292D01*
X0131900Y0175312D02*
X0078087Y0175312D01*
X0079085Y0174314D02*
X0131900Y0174314D01*
X0131900Y0173315D02*
X0080084Y0173315D01*
X0081082Y0172317D02*
X0131900Y0172317D01*
X0131900Y0171318D02*
X0082081Y0171318D01*
X0083079Y0170320D02*
X0131900Y0170320D01*
X0131900Y0169321D02*
X0084078Y0169321D01*
X0085076Y0168323D02*
X0131900Y0168323D01*
X0131900Y0167324D02*
X0086075Y0167324D01*
X0087073Y0166326D02*
X0131900Y0166326D01*
X0131900Y0165327D02*
X0088072Y0165327D01*
X0089070Y0164329D02*
X0131900Y0164329D01*
X0131900Y0163330D02*
X0090069Y0163330D01*
X0091050Y0162332D02*
X0131900Y0162332D01*
X0131900Y0161333D02*
X0101442Y0161333D01*
X0102802Y0160335D02*
X0131900Y0160335D01*
X0131900Y0159336D02*
X0103670Y0159336D01*
X0104084Y0158338D02*
X0131900Y0158338D01*
X0131900Y0157339D02*
X0104400Y0157339D01*
X0104400Y0156341D02*
X0131900Y0156341D01*
X0131900Y0155342D02*
X0104365Y0155342D01*
X0103952Y0154344D02*
X0131900Y0154344D01*
X0096558Y0161333D02*
X0091442Y0161333D01*
X0092802Y0160335D02*
X0095198Y0160335D01*
X0094330Y0159336D02*
X0093670Y0159336D01*
X0086268Y0161333D02*
X0081442Y0161333D01*
X0082802Y0160335D02*
X0085198Y0160335D01*
X0084330Y0159336D02*
X0083670Y0159336D01*
X0076558Y0161333D02*
X0070952Y0161333D01*
X0072519Y0160335D02*
X0075198Y0160335D01*
X0074330Y0159336D02*
X0073367Y0159336D01*
X0073870Y0158338D02*
X0073916Y0158338D01*
X0063919Y0155342D02*
X0051902Y0155342D01*
X0052136Y0154344D02*
X0064263Y0154344D01*
X0039056Y0131378D02*
X0036100Y0131378D01*
X0036100Y0132376D02*
X0037866Y0132376D01*
X0036682Y0133375D02*
X0036100Y0133375D01*
X0036100Y0134373D02*
X0036106Y0134373D01*
X0006500Y0150500D02*
X0006500Y0151000D01*
X0066254Y0184299D02*
X0071746Y0184299D01*
X0088722Y0179306D02*
X0091739Y0179306D01*
X0126008Y0232228D02*
X0131900Y0232228D01*
X0131900Y0233226D02*
X0128751Y0233226D01*
X0129953Y0234225D02*
X0131900Y0234225D01*
X0131900Y0235223D02*
X0131143Y0235223D01*
X0131312Y0235365D02*
X0131312Y0235365D01*
X0131312Y0235365D01*
X0131807Y0236222D02*
X0131900Y0236222D01*
X0138100Y0236222D02*
X0138193Y0236222D01*
X0138100Y0235223D02*
X0138857Y0235223D01*
X0138100Y0234225D02*
X0140047Y0234225D01*
X0141249Y0233226D02*
X0138100Y0233226D01*
X0138100Y0232228D02*
X0143992Y0232228D01*
X0170500Y0259187D02*
X0171500Y0259187D01*
X0171500Y0260186D02*
X0170500Y0260186D01*
X0170500Y0261184D02*
X0171500Y0261184D01*
X0171500Y0262183D02*
X0170500Y0262183D01*
X0170500Y0263181D02*
X0171500Y0263181D01*
X0173266Y0263181D02*
X0178191Y0263181D01*
X0177046Y0262183D02*
X0174671Y0262183D01*
X0175468Y0261184D02*
X0176267Y0261184D01*
X0183809Y0263181D02*
X0188191Y0263181D01*
X0187046Y0262183D02*
X0184954Y0262183D01*
X0185733Y0261184D02*
X0186267Y0261184D01*
X0184353Y0280156D02*
X0184103Y0280156D01*
X0184103Y0281155D02*
X0184353Y0281155D01*
X0184353Y0282153D02*
X0184103Y0282153D01*
X0184103Y0283152D02*
X0184353Y0283152D01*
X0181478Y0283152D02*
X0178050Y0283152D01*
X0178050Y0284150D02*
X0181478Y0284150D01*
X0181478Y0285149D02*
X0178050Y0285149D01*
X0178102Y0286147D02*
X0181478Y0286147D01*
X0181478Y0282153D02*
X0178050Y0282153D01*
X0178050Y0281155D02*
X0181478Y0281155D01*
X0181734Y0280156D02*
X0178050Y0280156D01*
X0173898Y0286147D02*
X0168102Y0286147D01*
X0177815Y0291140D02*
X0199181Y0291140D01*
X0202819Y0291140D02*
X0204185Y0291140D01*
X0203898Y0286147D02*
X0197808Y0286147D01*
X0233900Y0297131D02*
X0138100Y0297131D01*
X0138100Y0298129D02*
X0233900Y0298129D01*
X0233900Y0299128D02*
X0138100Y0299128D01*
X0138100Y0300126D02*
X0233900Y0300126D01*
X0233900Y0301125D02*
X0138100Y0301125D01*
X0138100Y0302123D02*
X0233900Y0302123D01*
X0233900Y0303122D02*
X0138100Y0303122D01*
X0138100Y0304120D02*
X0233900Y0304120D01*
X0233900Y0305119D02*
X0138100Y0305119D01*
X0138100Y0306117D02*
X0233900Y0306117D01*
X0233900Y0307116D02*
X0138100Y0307116D01*
X0138100Y0308114D02*
X0233900Y0308114D01*
X0233900Y0309113D02*
X0138100Y0309113D01*
X0138100Y0310111D02*
X0233900Y0310111D01*
X0233900Y0311110D02*
X0138100Y0311110D01*
X0138100Y0312108D02*
X0233900Y0312108D01*
X0233900Y0313107D02*
X0138100Y0313107D01*
X0138100Y0314105D02*
X0233900Y0314105D01*
X0233900Y0315104D02*
X0138100Y0315104D01*
X0138100Y0316103D02*
X0233900Y0316103D01*
X0233900Y0317101D02*
X0138100Y0317101D01*
X0138100Y0318100D02*
X0233900Y0318100D01*
X0233900Y0319098D02*
X0138100Y0319098D01*
X0138100Y0320097D02*
X0233900Y0320097D01*
X0233900Y0321095D02*
X0138100Y0321095D01*
X0138100Y0322094D02*
X0233900Y0322094D01*
X0233900Y0323092D02*
X0138100Y0323092D01*
X0138100Y0324091D02*
X0233900Y0324091D01*
X0233900Y0325089D02*
X0138100Y0325089D01*
X0138100Y0326088D02*
X0233900Y0326088D01*
X0233900Y0327086D02*
X0138100Y0327086D01*
X0138100Y0328085D02*
X0233900Y0328085D01*
X0233900Y0329083D02*
X0138100Y0329083D01*
X0138100Y0330082D02*
X0233900Y0330082D01*
X0233900Y0331080D02*
X0138100Y0331080D01*
X0138100Y0332079D02*
X0233900Y0332079D01*
X0233900Y0333077D02*
X0138100Y0333077D01*
X0138100Y0334076D02*
X0233900Y0334076D01*
X0233900Y0335074D02*
X0230334Y0335074D01*
X0231772Y0336073D02*
X0233900Y0336073D01*
X0233900Y0337071D02*
X0232962Y0337071D01*
X0233312Y0337365D02*
X0233312Y0337365D01*
X0233312Y0337365D01*
X0233719Y0338070D02*
X0233900Y0338070D01*
X0240100Y0338070D02*
X0240281Y0338070D01*
X0240100Y0337071D02*
X0241038Y0337071D01*
X0240100Y0336073D02*
X0242228Y0336073D01*
X0243666Y0335074D02*
X0240100Y0335074D01*
X0240100Y0334076D02*
X0335900Y0334076D01*
X0335900Y0335074D02*
X0332334Y0335074D01*
X0333772Y0336073D02*
X0335900Y0336073D01*
X0335900Y0337071D02*
X0334962Y0337071D01*
X0335312Y0337365D02*
X0335312Y0337365D01*
X0335312Y0337365D01*
X0335719Y0338070D02*
X0335900Y0338070D01*
X0335900Y0333077D02*
X0240100Y0333077D01*
X0240100Y0332079D02*
X0335900Y0332079D01*
X0335900Y0331080D02*
X0240100Y0331080D01*
X0240100Y0330082D02*
X0335900Y0330082D01*
X0335900Y0329083D02*
X0240100Y0329083D01*
X0240100Y0328085D02*
X0335900Y0328085D01*
X0335900Y0327086D02*
X0240100Y0327086D01*
X0240100Y0326088D02*
X0335900Y0326088D01*
X0335900Y0325089D02*
X0240100Y0325089D01*
X0240100Y0324091D02*
X0335900Y0324091D01*
X0335900Y0323092D02*
X0240100Y0323092D01*
X0240100Y0322094D02*
X0335900Y0322094D01*
X0335900Y0321095D02*
X0240100Y0321095D01*
X0240100Y0320097D02*
X0335900Y0320097D01*
X0335900Y0319098D02*
X0240100Y0319098D01*
X0240100Y0318100D02*
X0335900Y0318100D01*
X0335900Y0317101D02*
X0240100Y0317101D01*
X0240100Y0316103D02*
X0335900Y0316103D01*
X0335900Y0315104D02*
X0240100Y0315104D01*
X0240100Y0314105D02*
X0335900Y0314105D01*
X0335900Y0313107D02*
X0240100Y0313107D01*
X0240100Y0312108D02*
X0335900Y0312108D01*
X0335900Y0311110D02*
X0240100Y0311110D01*
X0240100Y0310111D02*
X0335900Y0310111D01*
X0335900Y0309113D02*
X0240100Y0309113D01*
X0240100Y0308114D02*
X0335900Y0308114D01*
X0335900Y0307116D02*
X0240100Y0307116D01*
X0240100Y0306117D02*
X0335900Y0306117D01*
X0335900Y0305119D02*
X0240100Y0305119D01*
X0240100Y0304120D02*
X0335900Y0304120D01*
X0335900Y0303122D02*
X0240100Y0303122D01*
X0240100Y0302123D02*
X0335900Y0302123D01*
X0335900Y0301125D02*
X0240100Y0301125D01*
X0240100Y0300126D02*
X0335900Y0300126D01*
X0335900Y0299128D02*
X0240100Y0299128D01*
X0240100Y0298129D02*
X0335900Y0298129D01*
X0335900Y0297131D02*
X0240100Y0297131D01*
X0252334Y0335074D02*
X0323666Y0335074D01*
X0322228Y0336073D02*
X0253772Y0336073D01*
X0254962Y0337071D02*
X0321038Y0337071D01*
X0320281Y0338070D02*
X0255719Y0338070D01*
X0255312Y0337365D02*
X0255312Y0337365D01*
X0255312Y0337365D01*
X0256296Y0339068D02*
X0319704Y0339068D01*
X0319128Y0340067D02*
X0256872Y0340067D01*
X0257116Y0341065D02*
X0318884Y0341065D01*
X0319031Y0340235D02*
X0319031Y0340235D01*
X0318708Y0342064D02*
X0257292Y0342064D01*
X0257468Y0343062D02*
X0318532Y0343062D01*
X0318554Y0344061D02*
X0257446Y0344061D01*
X0257545Y0343500D02*
X0257545Y0343500D01*
X0257270Y0345059D02*
X0318730Y0345059D01*
X0318906Y0346058D02*
X0257094Y0346058D01*
X0256969Y0346765D02*
X0256969Y0346765D01*
X0256801Y0347056D02*
X0319199Y0347056D01*
X0319031Y0346765D02*
X0319031Y0346765D01*
X0319776Y0348055D02*
X0256224Y0348055D01*
X0255648Y0349053D02*
X0320352Y0349053D01*
X0320688Y0349635D02*
X0320688Y0349635D01*
X0320688Y0349635D01*
X0321184Y0350052D02*
X0254816Y0350052D01*
X0253626Y0351050D02*
X0322374Y0351050D01*
X0221666Y0335074D02*
X0150334Y0335074D01*
X0151772Y0336073D02*
X0220228Y0336073D01*
X0219038Y0337071D02*
X0152962Y0337071D01*
X0153312Y0337365D02*
X0153312Y0337365D01*
X0153312Y0337365D01*
X0153719Y0338070D02*
X0218281Y0338070D01*
X0217704Y0339068D02*
X0154296Y0339068D01*
X0154872Y0340067D02*
X0217128Y0340067D01*
X0217031Y0340235D02*
X0217031Y0340235D01*
X0216884Y0341065D02*
X0155116Y0341065D01*
X0155292Y0342064D02*
X0216708Y0342064D01*
X0216532Y0343062D02*
X0155468Y0343062D01*
X0155545Y0343500D02*
X0155545Y0343500D01*
X0155446Y0344061D02*
X0216554Y0344061D01*
X0216730Y0345059D02*
X0155270Y0345059D01*
X0155094Y0346058D02*
X0216906Y0346058D01*
X0217031Y0346765D02*
X0217031Y0346765D01*
X0217199Y0347056D02*
X0154801Y0347056D01*
X0154969Y0346765D02*
X0154969Y0346765D01*
X0154224Y0348055D02*
X0217776Y0348055D01*
X0218352Y0349053D02*
X0153648Y0349053D01*
X0152816Y0350052D02*
X0219184Y0350052D01*
X0218688Y0349635D02*
X0218688Y0349635D01*
X0218688Y0349635D01*
X0220374Y0351050D02*
X0151626Y0351050D01*
X0138281Y0338070D02*
X0138100Y0338070D01*
X0138100Y0337071D02*
X0139038Y0337071D01*
X0138100Y0336073D02*
X0140228Y0336073D01*
X0141666Y0335074D02*
X0138100Y0335074D01*
X0131900Y0335074D02*
X0128334Y0335074D01*
X0129772Y0336073D02*
X0131900Y0336073D01*
X0131900Y0337071D02*
X0130962Y0337071D01*
X0131312Y0337365D02*
X0131312Y0337365D01*
X0131312Y0337365D01*
X0131719Y0338070D02*
X0131900Y0338070D01*
X0131900Y0334076D02*
X0036100Y0334076D01*
X0036100Y0335074D02*
X0039666Y0335074D01*
X0038228Y0336073D02*
X0036100Y0336073D01*
X0036100Y0337071D02*
X0037038Y0337071D01*
X0036281Y0338070D02*
X0036100Y0338070D01*
X0036100Y0333077D02*
X0131900Y0333077D01*
X0131900Y0332079D02*
X0036100Y0332079D01*
X0036100Y0331080D02*
X0131900Y0331080D01*
X0131900Y0330082D02*
X0036100Y0330082D01*
X0036100Y0329083D02*
X0131900Y0329083D01*
X0131900Y0328085D02*
X0036100Y0328085D01*
X0036100Y0327086D02*
X0131900Y0327086D01*
X0131900Y0326088D02*
X0036100Y0326088D01*
X0036100Y0325089D02*
X0131900Y0325089D01*
X0131900Y0324091D02*
X0036100Y0324091D01*
X0036100Y0323092D02*
X0131900Y0323092D01*
X0131900Y0322094D02*
X0036100Y0322094D01*
X0036100Y0321095D02*
X0131900Y0321095D01*
X0131900Y0320097D02*
X0036100Y0320097D01*
X0036100Y0319098D02*
X0131900Y0319098D01*
X0131900Y0318100D02*
X0036100Y0318100D01*
X0036100Y0317101D02*
X0131900Y0317101D01*
X0131900Y0316103D02*
X0036100Y0316103D01*
X0036100Y0315104D02*
X0131900Y0315104D01*
X0131900Y0314105D02*
X0036100Y0314105D01*
X0036100Y0313107D02*
X0131900Y0313107D01*
X0131900Y0312108D02*
X0036100Y0312108D01*
X0036100Y0311110D02*
X0131900Y0311110D01*
X0131900Y0310111D02*
X0036100Y0310111D01*
X0036100Y0309113D02*
X0131900Y0309113D01*
X0131900Y0308114D02*
X0036100Y0308114D01*
X0036100Y0307116D02*
X0131900Y0307116D01*
X0131900Y0306117D02*
X0036100Y0306117D01*
X0036100Y0305119D02*
X0131900Y0305119D01*
X0131900Y0304120D02*
X0036100Y0304120D01*
X0036100Y0303122D02*
X0131900Y0303122D01*
X0131900Y0302123D02*
X0036100Y0302123D01*
X0036100Y0301125D02*
X0131900Y0301125D01*
X0131900Y0300126D02*
X0036100Y0300126D01*
X0036100Y0299128D02*
X0131900Y0299128D01*
X0131900Y0298129D02*
X0036100Y0298129D01*
X0036100Y0297131D02*
X0131900Y0297131D01*
X0102185Y0291140D02*
X0100819Y0291140D01*
X0097181Y0291140D02*
X0075815Y0291140D01*
X0076102Y0286147D02*
X0079478Y0286147D01*
X0079478Y0285149D02*
X0076050Y0285149D01*
X0076050Y0284150D02*
X0079478Y0284150D01*
X0079478Y0283152D02*
X0076050Y0283152D01*
X0076050Y0282153D02*
X0079478Y0282153D01*
X0079478Y0281155D02*
X0076050Y0281155D01*
X0076050Y0280156D02*
X0079734Y0280156D01*
X0082103Y0280156D02*
X0082353Y0280156D01*
X0082353Y0281155D02*
X0082103Y0281155D01*
X0082103Y0282153D02*
X0082353Y0282153D01*
X0082353Y0283152D02*
X0082103Y0283152D01*
X0071898Y0286147D02*
X0066102Y0286147D01*
X0068500Y0263181D02*
X0069500Y0263181D01*
X0069500Y0262183D02*
X0068500Y0262183D01*
X0068500Y0261184D02*
X0069500Y0261184D01*
X0069500Y0260186D02*
X0068500Y0260186D01*
X0068500Y0259187D02*
X0069500Y0259187D01*
X0072671Y0262183D02*
X0075046Y0262183D01*
X0074267Y0261184D02*
X0073468Y0261184D01*
X0071266Y0263181D02*
X0076191Y0263181D01*
X0081809Y0263181D02*
X0086191Y0263181D01*
X0085046Y0262183D02*
X0082954Y0262183D01*
X0083733Y0261184D02*
X0084267Y0261184D01*
X0095808Y0286147D02*
X0101898Y0286147D01*
X0119666Y0335074D02*
X0048334Y0335074D01*
X0049772Y0336073D02*
X0118228Y0336073D01*
X0117038Y0337071D02*
X0050962Y0337071D01*
X0051312Y0337365D02*
X0051312Y0337365D01*
X0051312Y0337365D01*
X0051719Y0338070D02*
X0116281Y0338070D01*
X0115704Y0339068D02*
X0052296Y0339068D01*
X0052872Y0340067D02*
X0115128Y0340067D01*
X0115031Y0340235D02*
X0115031Y0340235D01*
X0114884Y0341065D02*
X0053116Y0341065D01*
X0053292Y0342064D02*
X0114708Y0342064D01*
X0114532Y0343062D02*
X0053468Y0343062D01*
X0053545Y0343500D02*
X0053545Y0343500D01*
X0053446Y0344061D02*
X0114554Y0344061D01*
X0114730Y0345059D02*
X0053270Y0345059D01*
X0053094Y0346058D02*
X0114906Y0346058D01*
X0115031Y0346765D02*
X0115031Y0346765D01*
X0115199Y0347056D02*
X0052801Y0347056D01*
X0052969Y0346765D02*
X0052969Y0346765D01*
X0052224Y0348055D02*
X0115776Y0348055D01*
X0116352Y0349053D02*
X0051648Y0349053D01*
X0050816Y0350052D02*
X0117184Y0350052D01*
X0116688Y0349635D02*
X0116688Y0349635D01*
X0116688Y0349635D01*
X0118374Y0351050D02*
X0049626Y0351050D01*
X0177492Y0189292D02*
X0199029Y0189292D01*
X0202971Y0189292D02*
X0204508Y0189292D01*
X0203746Y0184299D02*
X0197474Y0184299D01*
X0198558Y0161333D02*
X0193442Y0161333D01*
X0194802Y0160335D02*
X0197198Y0160335D01*
X0196330Y0159336D02*
X0195670Y0159336D01*
X0188268Y0161333D02*
X0183442Y0161333D01*
X0184802Y0160335D02*
X0187198Y0160335D01*
X0186330Y0159336D02*
X0185670Y0159336D01*
X0173746Y0184299D02*
X0168254Y0184299D01*
X0264143Y0092436D02*
X0301206Y0092436D01*
X0304794Y0092436D02*
X0335900Y0092436D01*
X0335900Y0091437D02*
X0305721Y0091437D01*
X0306135Y0090439D02*
X0335900Y0090439D01*
X0335900Y0089440D02*
X0306150Y0089440D01*
X0305857Y0088442D02*
X0335900Y0088442D01*
X0335900Y0087443D02*
X0309125Y0087443D01*
X0310510Y0086445D02*
X0335900Y0086445D01*
X0335900Y0085446D02*
X0311018Y0085446D01*
X0311150Y0084448D02*
X0335900Y0084448D01*
X0335900Y0083449D02*
X0310974Y0083449D01*
X0310406Y0082451D02*
X0335900Y0082451D01*
X0306875Y0087443D02*
X0305123Y0087443D01*
X0332944Y0131378D02*
X0335900Y0131378D01*
X0335900Y0132376D02*
X0334134Y0132376D01*
X0335312Y0133365D02*
X0335312Y0133365D01*
X0335312Y0133365D01*
X0335318Y0133375D02*
X0335900Y0133375D01*
X0335894Y0134373D02*
X0335900Y0134373D01*
X0062875Y0087443D02*
X0061398Y0087443D01*
X0061490Y0086445D02*
X0059856Y0086445D01*
D14*
X0059000Y0089500D03*
X0064000Y0084500D03*
X0074000Y0084500D03*
X0080937Y0098303D03*
X0080937Y0102803D03*
X0086937Y0102803D03*
X0086937Y0098303D03*
X0099000Y0089776D03*
X0104000Y0084500D03*
X0109000Y0094500D03*
X0094000Y0079500D03*
X0094000Y0074500D03*
X0059000Y0104500D03*
X0094000Y0176500D03*
X0094000Y0181500D03*
X0104000Y0186500D03*
X0099000Y0191776D03*
X0109000Y0196500D03*
X0086937Y0200303D03*
X0086937Y0204803D03*
X0080937Y0204803D03*
X0080937Y0200303D03*
X0074000Y0186500D03*
X0064000Y0186500D03*
X0059000Y0191500D03*
X0059000Y0206500D03*
X0094000Y0278500D03*
X0094000Y0283500D03*
X0104000Y0288500D03*
X0099000Y0293776D03*
X0109000Y0298500D03*
X0086937Y0302303D03*
X0086937Y0306803D03*
X0080937Y0306803D03*
X0080937Y0302303D03*
X0074000Y0288500D03*
X0064000Y0288500D03*
X0059000Y0293500D03*
X0059000Y0308500D03*
X0161000Y0308500D03*
X0161000Y0293500D03*
X0166000Y0288500D03*
X0176000Y0288500D03*
X0182937Y0302303D03*
X0182937Y0306803D03*
X0188937Y0306803D03*
X0188937Y0302303D03*
X0201000Y0293776D03*
X0206000Y0288500D03*
X0196000Y0283500D03*
X0196000Y0278500D03*
X0211000Y0298500D03*
X0263000Y0293500D03*
X0268000Y0288500D03*
X0278000Y0288500D03*
X0284937Y0302303D03*
X0284937Y0306803D03*
X0290937Y0306803D03*
X0290937Y0302303D03*
X0303000Y0293776D03*
X0308000Y0288500D03*
X0313000Y0298500D03*
X0298000Y0283500D03*
X0298000Y0278500D03*
X0263000Y0308500D03*
X0263000Y0206500D03*
X0263000Y0191500D03*
X0268000Y0186500D03*
X0278000Y0186500D03*
X0284937Y0200303D03*
X0284937Y0204803D03*
X0290937Y0204803D03*
X0290937Y0200303D03*
X0303000Y0191776D03*
X0308000Y0186500D03*
X0313000Y0196500D03*
X0298000Y0181500D03*
X0298000Y0176500D03*
X0290937Y0102803D03*
X0290937Y0098303D03*
X0284937Y0098303D03*
X0284937Y0102803D03*
X0278000Y0084500D03*
X0268000Y0084500D03*
X0263000Y0089500D03*
X0263000Y0104500D03*
X0298000Y0079500D03*
X0298000Y0074500D03*
X0308000Y0084500D03*
X0303000Y0089776D03*
X0313000Y0094500D03*
X0211000Y0094500D03*
X0201000Y0089776D03*
X0206000Y0084500D03*
X0196000Y0079500D03*
X0196000Y0074500D03*
X0176000Y0084500D03*
X0166000Y0084500D03*
X0161000Y0089500D03*
X0161000Y0104500D03*
X0182937Y0102803D03*
X0182937Y0098303D03*
X0188937Y0098303D03*
X0188937Y0102803D03*
X0196000Y0176500D03*
X0196000Y0181500D03*
X0206000Y0186500D03*
X0201000Y0191776D03*
X0211000Y0196500D03*
X0188937Y0200303D03*
X0188937Y0204803D03*
X0182937Y0204803D03*
X0182937Y0200303D03*
X0176000Y0186500D03*
X0166000Y0186500D03*
X0161000Y0191500D03*
X0161000Y0206500D03*
D15*
X0161000Y0191500D02*
X0200724Y0191500D01*
X0201000Y0191776D01*
X0206000Y0186500D02*
X0176000Y0186500D01*
X0166000Y0186500D01*
X0176000Y0186500D02*
X0176000Y0176500D01*
X0191000Y0161500D01*
X0191000Y0156500D01*
X0187772Y0181500D02*
X0196000Y0181500D01*
X0263000Y0191500D02*
X0302724Y0191500D01*
X0303000Y0191776D01*
X0308000Y0186500D02*
X0278000Y0186500D01*
X0268000Y0186500D01*
X0278000Y0186500D02*
X0278000Y0176500D01*
X0293000Y0161500D01*
X0293000Y0156500D01*
X0289772Y0181500D02*
X0298000Y0181500D01*
X0293000Y0258500D02*
X0293000Y0263500D01*
X0278000Y0278500D01*
X0278000Y0288500D01*
X0308000Y0288500D01*
X0302724Y0293500D02*
X0303000Y0293776D01*
X0302724Y0293500D02*
X0263000Y0293500D01*
X0268000Y0288500D02*
X0278000Y0288500D01*
X0289772Y0283500D02*
X0298000Y0283500D01*
X0206000Y0288500D02*
X0176000Y0288500D01*
X0166000Y0288500D01*
X0161000Y0293500D02*
X0200724Y0293500D01*
X0201000Y0293776D01*
X0196000Y0283500D02*
X0187772Y0283500D01*
X0176000Y0278500D02*
X0176000Y0288500D01*
X0176000Y0278500D02*
X0191000Y0263500D01*
X0191000Y0258500D01*
X0104000Y0288500D02*
X0074000Y0288500D01*
X0064000Y0288500D01*
X0059000Y0293500D02*
X0098724Y0293500D01*
X0099000Y0293776D01*
X0094000Y0283500D02*
X0085772Y0283500D01*
X0074000Y0278500D02*
X0074000Y0288500D01*
X0074000Y0278500D02*
X0089000Y0263500D01*
X0089000Y0258500D01*
X0099000Y0191776D02*
X0098724Y0191500D01*
X0059000Y0191500D01*
X0064000Y0186500D02*
X0074000Y0186500D01*
X0104000Y0186500D01*
X0094000Y0181500D02*
X0085772Y0181500D01*
X0074000Y0176500D02*
X0074000Y0186500D01*
X0074000Y0176500D02*
X0089000Y0161500D01*
X0089000Y0156500D01*
X0099000Y0089776D02*
X0098724Y0089500D01*
X0059000Y0089500D01*
X0064000Y0084500D02*
X0074000Y0084500D01*
X0104000Y0084500D01*
X0094000Y0079500D02*
X0085772Y0079500D01*
X0074000Y0074500D02*
X0074000Y0084500D01*
X0074000Y0074500D02*
X0089000Y0059500D01*
X0089000Y0054500D01*
X0161000Y0089500D02*
X0200724Y0089500D01*
X0201000Y0089776D01*
X0206000Y0084500D02*
X0176000Y0084500D01*
X0166000Y0084500D01*
X0176000Y0084500D02*
X0176000Y0074500D01*
X0191000Y0059500D01*
X0191000Y0054500D01*
X0187772Y0079500D02*
X0196000Y0079500D01*
X0263000Y0089500D02*
X0302724Y0089500D01*
X0303000Y0089776D01*
X0308000Y0084500D02*
X0278000Y0084500D01*
X0268000Y0084500D01*
X0278000Y0084500D02*
X0278000Y0074500D01*
X0293000Y0059500D01*
X0293000Y0054500D01*
X0289772Y0079500D02*
X0298000Y0079500D01*
M02*
